<svg width="875" height="651" viewBox="0 0 875 651" fill="none" xmlns="http://www.w3.org/2000/svg">
<path d="M295.082 450.496C359.97 408.971 429.336 376.557 501.722 353.936C562.708 335.179 627.372 324.738 691.449 336.211C697.847 337.712 706.247 339.25 712.539 341.113L726.453 345.339L726.358 345.763L712.352 342.306C708.554 341.252 702.196 340.303 698.267 339.572L691.23 338.291L684.145 337.382C646.526 332.666 608.244 338.616 571.311 344.696C473.655 360.827 380.533 399.801 295.017 450.336L295.082 450.496Z" fill="#D4D4D4"/>
<path d="M304.923 480.895C371.86 441.357 442.818 411.751 516.305 392.7C578.204 376.968 643.363 370.274 706.84 386.704C713.16 388.721 721.479 390.91 727.676 393.303L741.372 398.704L741.256 399.147L727.43 394.552C723.686 393.182 717.378 391.751 713.487 390.716L706.517 388.888L699.48 387.452C662.113 379.94 623.55 383.659 586.328 387.606C487.905 398.099 392.873 433.045 304.865 480.721L304.923 480.895Z" fill="#D4D4D4"/>
<path d="M311.442 515.939C379.963 481.522 452.027 456.441 526.119 441.222C588.513 428.694 653.732 424.648 716.199 441.971C722.401 444.049 730.586 446.353 736.647 448.774L750.039 454.231L749.903 454.638L736.344 449.923C732.679 448.531 726.462 446.996 722.633 445.908L715.775 443.984L708.833 442.42C671.959 434.224 633.372 436.394 596.109 438.819C497.577 445.284 401.283 474.516 311.393 515.776L311.442 515.939Z" fill="#D4D4D4"/>
<path d="M331.8 558.541C396.472 529.432 464.396 508.033 534.142 494.795C592.874 483.887 654.191 479.988 712.743 493.83C718.553 495.501 726.225 497.343 731.9 499.301L744.438 503.714L744.307 504.052L731.606 500.256C728.173 499.132 722.344 497.911 718.756 497.041L712.328 495.503L705.818 494.264C671.238 487.776 634.961 489.897 599.928 492.219C507.289 498.402 416.564 523.444 331.755 558.407L331.8 558.541Z" fill="#D4D4D4"/>
<path d="M755.839 530.004C704.727 555.654 650.672 575.478 594.812 589.059C547.764 600.31 498.341 606.247 450.433 598.292C445.667 597.272 439.389 596.208 434.72 594.959L424.402 592.132L424.495 591.863L434.919 594.204C437.741 594.913 442.504 595.583 445.44 596.087L450.701 596.975L456.015 597.626C484.24 601.016 513.488 597.647 541.722 594.183C616.379 584.986 688.724 561.252 755.881 530.106L755.839 530.004Z" fill="#D4D4D4"/>
<path d="M808.293 483.008C791.787 506.184 772.59 527.333 751.106 546.011C732.967 561.656 712.509 575.383 689.411 582.381C687.059 582.972 684.026 583.879 681.663 584.343L676.422 585.337L676.399 585.193L681.571 583.951C682.989 583.65 685.256 582.898 686.676 582.477L689.216 581.715L691.723 580.832C705.022 576.113 717.163 568.056 728.832 560.18C759.68 539.338 786.04 512.321 808.336 483.046L808.293 483.008Z" fill="#D4D4D4"/>
<path d="M407.655 346.54C419 307.667 435.561 271.462 456.99 238.685C475.155 211.204 497.912 186.287 528.538 171.342C531.727 170.009 535.755 168.065 539.035 166.926L546.327 164.456L546.445 164.675L539.4 167.518C537.446 168.236 534.477 169.804 532.589 170.708L529.217 172.34L525.964 174.153C508.732 183.829 495.174 198.477 482.219 212.761C447.985 250.554 424.072 297.13 407.568 346.489L407.655 346.54Z" fill="#D4D4D4"/>
<path d="M565.926 307.017C581.32 341.248 591.433 376.738 596.051 412.739C599.782 443.044 598.734 474.304 586.138 503.269C584.692 506.129 583.023 509.922 581.396 512.699L577.742 518.828L577.526 518.745L580.782 512.501C581.727 510.819 582.877 507.928 583.664 506.154L585.059 502.975L586.261 499.739C592.586 482.548 593.329 464.062 593.866 446.197C595.257 398.953 584.086 351.728 566.017 307.001L565.926 307.017Z" fill="#D4D4D4"/>
<path d="M640.386 325.016C651.8 356.827 658.385 389.397 660.001 422.04C661.221 449.506 658.083 477.495 644.741 502.612C643.241 505.077 641.476 508.366 639.82 510.744L636.11 515.99L635.922 515.899L639.284 510.524C640.25 509.08 641.486 506.565 642.317 505.028L643.792 502.272L645.099 499.451C651.985 484.463 653.951 467.921 655.688 451.921C660.256 409.608 653.547 366.429 640.469 325.008L640.386 325.016Z" fill="#D4D4D4"/>
<path d="M713.81 340.016C723.277 372.447 727.877 405.343 727.516 438.012C727.073 465.492 722.25 493.229 707.418 517.484C705.773 519.854 703.813 523.028 702.017 525.301L697.997 530.311L697.816 530.209L701.495 525.049C702.547 523.666 703.931 521.232 704.853 519.748L706.492 517.088L707.966 514.352C715.744 499.814 718.705 483.427 721.406 467.567C728.523 425.623 724.438 382.134 713.894 340.013L713.81 340.016Z" fill="#D4D4D4"/>
<path d="M392.258 565.788C376.204 543 363.823 518.548 355.376 492.948C348.38 471.378 344.734 448.435 349.832 425.537C350.483 423.248 351.165 420.247 351.96 417.993L353.76 413.007L353.928 413.038L352.435 418.05C351.984 419.41 351.553 421.681 351.23 423.085L350.661 425.6L350.241 428.129C348.054 441.557 350.12 455.141 352.249 468.243C357.9 502.889 372.708 535.748 392.194 565.813L392.258 565.788Z" fill="#D4D4D4"/>
<path d="M527.573 534.057C507.964 506.223 492.842 476.359 482.525 445.091C473.98 418.745 469.527 390.724 475.754 362.757C476.55 359.961 477.382 356.294 478.353 353.541L480.551 347.453L480.757 347.49L478.933 353.611C478.382 355.273 477.856 358.046 477.461 359.761L476.766 362.833L476.253 365.922C473.582 382.323 476.106 398.914 478.706 414.917C485.608 457.232 503.695 497.366 527.494 534.087L527.573 534.057Z" fill="#D4D4D4"/>
<path d="M450.701 533.292C433.066 508.261 419.467 481.403 410.189 453.284C402.504 429.591 398.5 404.391 404.1 379.24C404.815 376.725 405.564 373.428 406.437 370.952L408.413 365.477L408.599 365.51L406.959 371.015C406.463 372.509 405.99 375.003 405.635 376.546L405.01 379.308L404.549 382.086C402.146 396.835 404.416 411.756 406.754 426.148C412.962 464.202 429.227 500.295 450.63 533.319L450.701 533.292Z" fill="#D4D4D4"/>
<path d="M373.238 574.848C378.011 512.304 391.208 451.683 412.551 394.262C430.736 346.04 456.402 299.833 496.58 265.413C500.833 262.162 506.122 257.668 510.566 254.672L520.462 248.101L520.701 248.382L511.278 255.411C508.643 257.256 504.784 260.77 502.302 262.866L497.875 266.635L493.676 270.628C471.452 291.888 456.102 319.122 441.521 345.575C403.005 415.546 382.22 494.562 373.097 574.806L373.238 574.848Z" fill="#D4D4D4"/>
<ellipse cx="715" cy="157" rx="159" ry="154" fill="#152355"/>
<path fill-rule="evenodd" clip-rule="evenodd" d="M857.418 221.812C841.717 253.595 815.079 279.309 782.244 294.35C802.094 250.083 807.807 216.031 802.275 185.725C796.694 155.154 779.685 128.477 754.397 99.0355C756.24 97.6877 758.146 96.4031 760.121 95.1824C774.543 86.2688 792.65 80.7367 816.004 78.9151L816.104 79.0314C835.677 101.88 848.659 122.382 855.434 144.699C862.208 167.013 862.791 191.188 857.49 221.404L857.418 221.812ZM859.168 218.147C863.854 189.408 863.076 166.052 856.501 144.394C849.714 122.036 836.764 101.534 817.363 78.8137C827.748 78.0739 839.159 78.0563 851.729 78.7892C851.741 78.79 851.753 78.7903 851.765 78.7902C865.199 101.356 872.888 127.556 872.888 155.5C872.888 177.816 867.985 199.018 859.168 218.147ZM715.628 308.918C738.849 308.831 760.889 303.871 780.72 295.038C800.929 250.334 806.707 216.188 801.18 185.914C795.647 155.607 778.773 129.097 753.513 99.6914C736.282 112.632 724.762 131.217 715.634 154.855C730.857 172.566 741.168 190.11 745.012 209.256C745.103 209.327 745.172 209.427 745.202 209.546C745.238 209.685 745.214 209.825 745.147 209.941C745.966 214.2 746.466 218.538 746.629 222.976C747.532 247.57 738.096 275.122 715.628 308.918ZM714.646 155.39C729.828 173.021 740.056 190.4 743.889 209.306C705.908 218.416 675.632 221.538 646.786 213.217C617.781 204.849 590.133 184.886 557.536 147.587L557.331 147.353C558.382 127.821 563.194 109.256 571.075 92.329C593.108 126.259 614.809 145.709 638.102 154.834C661.482 163.993 686.375 162.715 714.646 155.39ZM557.112 155.5C557.112 153.3 557.16 151.111 557.254 148.933C589.671 185.891 617.338 205.849 646.47 214.252C675.59 222.653 706.088 219.482 744.098 210.368C744.881 214.503 745.359 218.713 745.518 223.014C746.201 241.621 740.895 262.015 728.301 285.692L728.291 285.693C674.329 290.633 634.427 282.984 592.944 252.646L592.545 252.354C570.394 225.942 557.112 192.228 557.112 155.5ZM595.617 255.906C636.004 284.319 675.32 291.531 727.69 286.832C723.883 293.89 719.432 301.239 714.303 308.918C666.899 308.719 624.427 288.22 595.617 255.906ZM583.166 107.728C601.332 131.814 619.425 146.352 638.518 153.832C641.196 154.881 643.896 155.792 646.619 156.571C646.62 156.52 646.628 156.468 646.645 156.416C658.641 119.844 672.681 91.1764 696.249 69.7974C719.622 48.5946 752.306 34.6153 801.491 27.1268C776.648 11.2909 746.931 2.08042 715 2.08042C704.198 2.08042 693.649 3.13455 683.456 5.14272L683.027 5.30294C632.899 24.0039 600.6 57.3581 583.274 107.415L583.166 107.728ZM582.363 106.658C578.791 101.867 575.215 96.7056 571.628 91.1545C591.447 49.5268 629.903 17.9899 676.593 6.65134C629.708 25.806 599.118 58.5676 582.363 106.658ZM683.145 4.10136C610.597 18.4369 556 80.773 556 155.5C556 240.828 627.187 310 715 310C802.813 310 874 240.828 874 155.5C874 70.172 802.813 1 715 1C704.091 1 693.438 2.06754 683.147 4.10098L683.145 4.10136ZM802.865 28.0129C753.139 35.4364 720.352 49.4107 697.008 70.5872C673.649 91.7769 659.681 120.233 647.705 156.744C647.691 156.786 647.673 156.824 647.651 156.86C668.172 162.468 690.075 160.671 714.675 154.265C724.955 127.717 738.321 107.376 759.525 94.2707C780.738 81.1595 809.711 75.3417 851.092 77.6705C839.04 57.8138 822.515 40.8254 802.865 28.0129Z" stroke="url(#paint0_linear_1766_6870)" stroke-width="2" stroke-linecap="square"/>
<path d="M405.228 636.022C410.728 623.022 431.015 615.942 454.228 610.522L463.228 622.522C455.228 637.522 441.228 646.522 420.228 650.022C409.728 650.522 403.728 640.522 405.228 636.022Z" fill="url(#paint1_linear_1766_6870)" stroke="#152355"/>
<path d="M411.729 630.522C414.442 639.301 417.705 642.88 426.229 647.022M428.229 629.522L455.229 613.522" stroke="#152355" stroke-linecap="round"/>
<path d="M454 610.5L591.728 515.522L627.228 542.022C562.789 570.357 526.727 587.839 463 622.5L454 610.5Z" fill="#D4D4D4" stroke="#152355"/>
<path d="M588.923 512.022L619.423 496.522L717.423 490.522L703.923 536.022C672.521 531.553 655.195 529.944 630.423 547.022C595.972 533.922 585.215 526.311 588.923 512.022Z" fill="#152355"/>
<path d="M666.5 419.5L678 411.5L695 414L705.5 433L685 440L666.5 419.5Z" fill="#D4D4D4"/>
<path d="M638.229 462.522C648.446 434.682 658.168 423.732 675.729 412.522L667.729 418.522C688.229 444.522 700.229 432.522 693.229 416.022C689.883 411.848 690.396 409.798 694.729 406.522C701.489 405.636 704.643 405.073 709.729 404.022C711.229 403.522 715.519 409.812 719.229 413.522L709.729 499.522C679.48 510.457 659.142 510.211 614.729 494.522C626.252 482.401 631.734 475.445 638.229 462.522Z" fill="url(#paint2_linear_1766_6870)" stroke="#152355"/>
<path d="M737.729 507.022C726.763 545.999 719.937 567.76 704.229 606.022C706.155 614.713 702.064 607.993 698.806 608.642C702.729 612.135 695.501 618.586 695.501 616.5C695.975 610.813 697.301 608.942 698.806 608.642C698.026 607.948 696.806 607.37 695.001 607C691.001 605.5 683.832 617.139 689.729 606.022C698.912 555.819 706.807 500.957 712.729 496.022L737.729 507.022Z" fill="#D4D4D4"/>
<path d="M689.729 606.022H704.229M689.729 606.022C698.912 555.819 706.807 500.957 712.729 496.022L737.729 507.022C726.763 545.999 719.937 567.76 704.229 606.022M689.729 606.022C689.729 607.022 689.851 605.356 689.729 606.022ZM689.729 606.022C683.832 617.139 691.001 605.5 695.001 607C705.888 609.234 695.501 619 695.501 616.5C697.001 598.5 707.045 618.726 704.229 606.022" stroke="#152355"/>
<path d="M703.999 607H689.261C689.261 607 674.372 631.474 677.414 633.471C678.935 634.97 705.804 636.968 706.818 635.469C710.367 631.474 703.999 607 703.999 607Z" fill="url(#paint3_linear_1766_6870)" stroke="#152355"/>
<path d="M682.229 631.022H704.229M690.229 621.022L694.729 608.022M700.729 544.022C711.642 541.274 717.142 542.143 726.229 546.522M621.729 496.522C635.231 477.789 642.31 466.097 652.229 444.522M663.729 463.022C657.214 479.868 652.535 488.671 641.229 502.522" stroke="#152355" stroke-linecap="round"/>
<path d="M507.728 574.022C506.639 584.768 510.485 588.272 521.728 592.022M535.228 565.522C535.775 570.167 537.411 571.704 542.728 572.522" stroke="#152355" stroke-linecap="round"/>
<path d="M783.727 518.023L800.227 531.023L787.227 537.023L776.227 522.523C715.2 502.811 674.727 487.022 652.228 447.523C647.727 439.522 656.727 430.022 665.228 435.523C708.844 473.181 738.727 497.522 783.727 518.023Z" fill="#D4D4D4" stroke="#152355"/>
<path d="M800.229 531.022C800.229 531.822 787.895 521.689 781.729 516.522L704.229 412.522C698.229 403.522 716.229 400.522 726.729 412.522C753.75 448.913 766.551 470.572 789.729 509.022C796.037 512.896 799.279 515.185 803.229 520.022C802.229 523.356 800.229 530.222 800.229 531.022Z" fill="#D4D4D4" stroke="#152355"/>
<path d="M692.5 400.001C698 391.001 691 384.5 689.5 391L689 392L692.5 400.001Z" fill="#D4D4D4" stroke="#152355"/>
<path d="M673.728 411.022C693.228 426.022 700.728 417.022 688.728 389.522L688.228 388.522L673.728 383.022L665.728 404.522C656.727 403.522 663.728 417.022 673.728 411.022Z" fill="#D4D4D4" stroke="#152355"/>
<path fill-rule="evenodd" clip-rule="evenodd" d="M664.573 379.505C665.095 379.165 665.647 378.838 666.228 378.523C678.728 372.023 687.228 380.023 688.728 387.523C688.728 388.522 688.228 388.522 687.229 388.523H687.228C676.228 386.022 671.728 390.022 674.728 404.023C675.228 405.522 672.228 408.522 668.728 407.023C660.899 401.431 657.292 395.214 657.731 389.683C655.515 389.173 653.403 390.272 650.727 394.022C644.387 403.005 640.962 410.87 638.071 417.51C632.756 429.719 629.245 437.783 612.727 441.022C597.343 443.26 594.164 438.299 589.01 430.255C584.95 423.92 579.665 415.672 566.227 407.522C554.728 402.022 551.728 380.022 564.227 383.022C565.888 383.661 567.451 384.283 568.944 384.878C579.138 388.938 586.08 391.703 598.727 389.522C608.951 387.895 619.714 381.302 629.411 375.362C640.582 368.519 650.339 362.542 656.227 366.022C662.498 369.728 663.417 374.065 664.339 378.417C664.416 378.78 664.493 379.142 664.573 379.505Z" fill="#152355"/>
<path d="M270 227.721C270 215.341 277.605 204.232 289.146 199.753L348.146 176.855C367.809 169.224 389 183.731 389 204.823V353.279C389 365.659 381.395 376.768 369.854 381.247L310.854 404.145C291.191 411.776 270 397.269 270 376.177V227.721Z" fill="#888888"/>
<path d="M273 224.721C273 212.341 280.605 201.232 292.146 196.753L351.146 173.855C370.809 166.224 392 180.731 392 201.823V350.279C392 362.659 384.395 373.768 372.854 378.247L313.854 401.145C294.191 408.776 273 394.269 273 373.177V224.721Z" fill="#152355"/>
<path d="M125 286.721C125 274.341 132.605 263.232 144.146 258.753L203.146 235.855C222.809 228.224 244 242.731 244 263.823V412.279C244 424.659 236.395 435.768 224.854 440.247L165.854 463.145C146.191 470.776 125 456.269 125 435.177V286.721Z" fill="#888888"/>
<path d="M128 283.721C128 271.341 135.605 260.232 147.146 255.753L206.146 232.855C225.809 225.224 247 239.731 247 260.823V409.279C247 421.659 239.395 432.768 227.854 437.247L168.854 460.145C149.191 467.776 128 453.269 128 432.177V283.721Z" fill="#152355"/>
<path d="M0 326.721C0 314.341 7.60458 303.232 19.1458 298.753L78.1458 275.855C97.809 268.224 119 282.731 119 303.823V452.279C119 464.659 111.395 475.768 99.8542 480.247L40.8542 503.145C21.191 510.776 0 496.269 0 475.177V326.721Z" fill="#888888"/>
<path d="M3 322.721C3 310.341 10.6046 299.232 22.1458 294.753L81.1458 271.855C100.809 264.224 122 278.731 122 299.823V448.279C122 460.659 114.395 471.768 102.854 476.247L43.8542 499.145C24.191 506.776 3 492.269 3 471.177V322.721Z" fill="#152355"/>
<path fill-rule="evenodd" clip-rule="evenodd" d="M294 323.5L334 246L359 236L358 298L370 293V310L358 314V330.5L339 339V322L294 340V323.5ZM317 312L343.5 262L342.5 302.5L317 312Z" fill="#D4D4D4"/>
<path fill-rule="evenodd" clip-rule="evenodd" d="M24 421.5L64 344L89 334L88 396L100 391V408L88 412V428.5L69 437V420L24 438V421.5ZM47 410L73.5 360L72.5 400.5L47 410Z" fill="#D4D4D4"/>
<path fill-rule="evenodd" clip-rule="evenodd" d="M168.419 400.482C186.86 407.023 210.32 388.334 220.818 358.738C231.317 329.142 224.878 299.846 206.438 293.305C187.997 286.764 164.537 305.453 154.038 335.049C143.54 364.645 149.979 393.94 168.419 400.482ZM180.334 379.574C190.066 381.648 201.122 368.472 205.028 350.143C208.933 331.815 204.21 315.276 194.478 313.202C184.746 311.128 173.69 324.305 169.784 342.633C165.878 360.961 170.602 377.5 180.334 379.574Z" fill="#D4D4D4"/>
<circle cx="260" cy="343" r="7" fill="url(#paint4_linear_1766_6870)"/>
<circle cx="260" cy="277" r="7" fill="url(#paint5_linear_1766_6870)"/>
<defs>
<linearGradient id="paint0_linear_1766_6870" x1="555.605" y1="86.4681" x2="910.238" y2="128.486" gradientUnits="userSpaceOnUse">
<stop stop-color="#99660A"/>
<stop offset="0.204906" stop-color="#F2DB51"/>
<stop offset="0.638605" stop-color="#F2DB51"/>
<stop offset="1" stop-color="#99660A"/>
</linearGradient>
<linearGradient id="paint1_linear_1766_6870" x1="404.928" y1="621.453" x2="468.933" y2="632.311" gradientUnits="userSpaceOnUse">
<stop stop-color="#99660A"/>
<stop offset="0.204906" stop-color="#F2DB51"/>
<stop offset="0.638605" stop-color="#F2DB51"/>
<stop offset="1" stop-color="#99660A"/>
</linearGradient>
<linearGradient id="paint2_linear_1766_6870" x1="614.599" y1="432.514" x2="731.185" y2="446.117" gradientUnits="userSpaceOnUse">
<stop stop-color="#99660A"/>
<stop offset="0.204906" stop-color="#F2DB51"/>
<stop offset="0.638605" stop-color="#F2DB51"/>
<stop offset="1" stop-color="#99660A"/>
</linearGradient>
<linearGradient id="paint3_linear_1766_6870" x1="676.966" y1="615.021" x2="711.38" y2="619.242" gradientUnits="userSpaceOnUse">
<stop stop-color="#99660A"/>
<stop offset="0.204906" stop-color="#F2DB51"/>
<stop offset="0.638605" stop-color="#F2DB51"/>
<stop offset="1" stop-color="#99660A"/>
</linearGradient>
<linearGradient id="paint4_linear_1766_6870" x1="252.983" y1="339.872" x2="268.607" y2="341.671" gradientUnits="userSpaceOnUse">
<stop stop-color="#99660A"/>
<stop offset="0.204906" stop-color="#F2DB51"/>
<stop offset="0.638605" stop-color="#F2DB51"/>
<stop offset="1" stop-color="#99660A"/>
</linearGradient>
<linearGradient id="paint5_linear_1766_6870" x1="252.983" y1="273.872" x2="268.607" y2="275.671" gradientUnits="userSpaceOnUse">
<stop stop-color="#99660A"/>
<stop offset="0.204906" stop-color="#F2DB51"/>
<stop offset="0.638605" stop-color="#F2DB51"/>
<stop offset="1" stop-color="#99660A"/>
</linearGradient>
</defs>
</svg>
