<svg width="570" height="180" viewBox="0 0 570 180" fill="none" xmlns="http://www.w3.org/2000/svg">
<mask id="path-1-inside-1_465_3105" fill="white">
<path d="M0 0H570V180H0V0Z"/>
</mask>
<path d="M570 179H0V181H570V179Z" fill="#D4D4D4" mask="url(#path-1-inside-1_465_3105)"/>
<path d="M285.585 15.814C285.585 19.0249 282.964 21.6279 279.731 21.6279C276.498 21.6279 273.878 19.0249 273.878 15.814C273.878 12.603 276.498 10 279.731 10C282.964 10 285.585 12.603 285.585 15.814Z" fill="url(#paint0_linear_465_3105)"/>
<path d="M292.136 30.5613C291.64 30.8313 291.101 30.9438 290.575 30.9159C290.293 31.0053 289.993 31.0536 289.682 31.0536H283.982C283.856 31.8891 283.525 32.7063 282.977 33.4288L277.469 40.7005C277.43 40.7517 277.39 40.8019 277.35 40.8513L280.833 44.3056C280.943 44.415 281.043 44.531 281.132 44.6523C281.809 45.1847 282.244 46.0084 282.244 46.933V56.0536C282.244 57.6591 280.933 58.9606 279.317 58.9606C277.701 58.9606 276.39 57.6591 276.39 56.0536V48.1156L268.923 40.7101C268.342 40.1335 268.056 39.3745 268.065 38.6183C267.764 37.1886 268.062 35.6424 269.016 34.3836L274.524 27.1119C275.895 25.3022 278.216 24.6216 280.279 25.2396H289.682C289.699 25.2396 289.715 25.2398 289.732 25.2401L293.57 23.1494C294.987 22.3774 296.766 22.8927 297.543 24.3003C298.321 25.708 297.802 27.475 296.385 28.247L292.136 30.5613Z" fill="url(#paint1_linear_465_3105)"/>
<path d="M267.669 46.0438C268.64 44.7609 270.475 44.5034 271.767 45.4687C273.059 46.434 273.318 48.2564 272.346 49.5393L266.266 57.5657C265.294 58.8486 263.459 59.106 262.167 58.1408C260.876 57.1755 260.616 55.353 261.588 54.0701L267.669 46.0438Z" fill="url(#paint2_linear_465_3105)"/>
<path d="M309 13.4884C303.468 13.4884 298.463 16.1257 294.856 20.383C296.735 20.4908 298.512 21.5475 299.449 23.3242C300.869 26.0161 299.823 29.3413 297.112 30.7514L293.38 32.693C292.085 33.367 290.644 33.4814 289.337 33.1233C289.179 34.3032 289.097 35.5125 289.097 36.7442C289.097 49.588 298.008 60 309 60V13.4884Z" fill="url(#paint3_linear_465_3105)"/>
<path d="M97.5195 87.4453V111.996H101.172V123.891H96.6602V116H77.793V123.891H73.2812V111.996H75.4883C76.3477 110.421 77.1615 108.702 77.9297 106.84C78.6979 104.965 79.401 102.986 80.0391 100.902C80.6771 98.819 81.2174 96.651 81.6602 94.3984C82.1159 92.1328 82.4544 89.8151 82.6758 87.4453H97.5195ZM92.8516 91.4492H86.543C86.3867 92.9466 86.1198 94.5872 85.7422 96.3711C85.3776 98.1419 84.9219 99.9518 84.375 101.801C83.8281 103.65 83.2161 105.447 82.5391 107.191C81.875 108.936 81.1719 110.538 80.4297 111.996H92.8516V91.4492ZM113.945 93.9688C115.872 93.9688 117.526 94.3659 118.906 95.1602C120.286 95.9544 121.348 97.0807 122.09 98.5391C122.832 99.9974 123.203 101.742 123.203 103.773V106.234H108.77C108.822 108.331 109.382 109.945 110.449 111.078C111.53 112.211 113.04 112.777 114.98 112.777C116.361 112.777 117.598 112.647 118.691 112.387C119.798 112.113 120.938 111.716 122.109 111.195V114.926C121.029 115.434 119.928 115.805 118.809 116.039C117.689 116.273 116.348 116.391 114.785 116.391C112.663 116.391 110.794 115.98 109.18 115.16C107.578 114.327 106.322 113.09 105.41 111.449C104.512 109.809 104.062 107.771 104.062 105.336C104.062 102.914 104.473 100.857 105.293 99.1641C106.113 97.4714 107.266 96.1823 108.75 95.2969C110.234 94.4115 111.966 93.9688 113.945 93.9688ZM113.945 97.4258C112.5 97.4258 111.328 97.8945 110.43 98.832C109.544 99.7695 109.023 101.143 108.867 102.953H118.711C118.698 101.872 118.516 100.915 118.164 100.082C117.826 99.2487 117.305 98.5977 116.602 98.1289C115.911 97.6602 115.026 97.4258 113.945 97.4258ZM132.793 94.3789V105.414C132.793 105.766 132.78 106.215 132.754 106.762C132.741 107.296 132.715 107.855 132.676 108.441C132.637 109.014 132.598 109.542 132.559 110.023C132.52 110.505 132.487 110.863 132.461 111.098L143.34 94.3789H148.926V116H144.531V105.082C144.531 104.509 144.544 103.845 144.57 103.09C144.609 102.335 144.648 101.605 144.688 100.902C144.74 100.199 144.772 99.6654 144.785 99.3008L133.945 116H128.379V94.3789H132.793ZM147.305 85.2773C147.174 86.6185 146.81 87.7773 146.211 88.7539C145.625 89.7174 144.733 90.4596 143.535 90.9805C142.337 91.5013 140.762 91.7617 138.809 91.7617C136.79 91.7617 135.195 91.5143 134.023 91.0195C132.852 90.5117 132.005 89.776 131.484 88.8125C130.964 87.8359 130.651 86.6576 130.547 85.2773H134.727C134.857 86.7227 135.234 87.6992 135.859 88.207C136.484 88.7018 137.493 88.9492 138.887 88.9492C140.085 88.9492 141.042 88.6823 141.758 88.1484C142.487 87.6146 142.923 86.6576 143.066 85.2773H147.305ZM164.238 116.391C162.194 116.391 160.423 115.993 158.926 115.199C157.428 114.405 156.276 113.188 155.469 111.547C154.661 109.906 154.258 107.823 154.258 105.297C154.258 102.667 154.701 100.518 155.586 98.8516C156.471 97.1849 157.695 95.9544 159.258 95.1602C160.833 94.3659 162.637 93.9688 164.668 93.9688C165.957 93.9688 167.122 94.099 168.164 94.3594C169.219 94.6068 170.111 94.9128 170.84 95.2773L169.473 98.9492C168.678 98.6237 167.865 98.3503 167.031 98.1289C166.198 97.9076 165.397 97.7969 164.629 97.7969C163.366 97.7969 162.311 98.0768 161.465 98.6367C160.632 99.1966 160.007 100.03 159.59 101.137C159.186 102.243 158.984 103.617 158.984 105.258C158.984 106.846 159.193 108.188 159.609 109.281C160.026 110.362 160.645 111.182 161.465 111.742C162.285 112.289 163.294 112.562 164.492 112.562C165.677 112.562 166.738 112.419 167.676 112.133C168.613 111.846 169.499 111.475 170.332 111.02V115.004C169.512 115.473 168.633 115.818 167.695 116.039C166.758 116.273 165.605 116.391 164.238 116.391ZM191.738 97.9922H184.629V116H180.059V97.9922H172.988V94.3789H191.738V97.9922ZM214.102 99.9258C214.102 101.176 213.717 102.198 212.949 102.992C212.194 103.773 211.152 104.288 209.824 104.535V104.691C211.243 104.874 212.428 105.375 213.379 106.195C214.329 107.016 214.805 108.155 214.805 109.613C214.805 110.85 214.492 111.951 213.867 112.914C213.255 113.865 212.279 114.62 210.938 115.18C209.609 115.727 207.871 116 205.723 116H195.918V94.3789H205.684C207.298 94.3789 208.737 94.5547 210 94.9062C211.276 95.2578 212.279 95.8372 213.008 96.6445C213.737 97.4518 214.102 98.5456 214.102 99.9258ZM210.02 109.457C210.02 108.389 209.609 107.621 208.789 107.152C207.982 106.684 206.797 106.449 205.234 106.449H200.527V112.621H205.332C206.79 112.621 207.936 112.38 208.77 111.898C209.603 111.404 210.02 110.59 210.02 109.457ZM209.434 100.336C209.434 99.4896 209.115 98.8646 208.477 98.4609C207.839 98.0443 206.836 97.8359 205.469 97.8359H200.527V103.07H204.844C206.354 103.07 207.493 102.855 208.262 102.426C209.043 101.983 209.434 101.286 209.434 100.336ZM224.395 94.3789V105.414C224.395 105.766 224.382 106.215 224.355 106.762C224.342 107.296 224.316 107.855 224.277 108.441C224.238 109.014 224.199 109.542 224.16 110.023C224.121 110.505 224.089 110.863 224.062 111.098L234.941 94.3789H240.527V116H236.133V105.082C236.133 104.509 236.146 103.845 236.172 103.09C236.211 102.335 236.25 101.605 236.289 100.902C236.341 100.199 236.374 99.6654 236.387 99.3008L225.547 116H219.98V94.3789H224.395ZM249.297 116H244.18L250.215 107.172C249.395 106.911 248.626 106.527 247.91 106.02C247.207 105.499 246.634 104.822 246.191 103.988C245.749 103.142 245.527 102.113 245.527 100.902C245.527 98.793 246.283 97.1784 247.793 96.0586C249.303 94.9388 251.276 94.3789 253.711 94.3789H263.516V116H258.926V107.641H254.57L249.297 116ZM250.02 100.941C250.02 102.035 250.43 102.868 251.25 103.441C252.07 104.001 253.19 104.281 254.609 104.281H258.926V97.8359H253.945C252.578 97.8359 251.582 98.1354 250.957 98.7344C250.332 99.3203 250.02 100.056 250.02 100.941ZM274.688 111.352L274.961 111.801C274.727 112.738 274.427 113.747 274.062 114.828C273.698 115.909 273.301 116.99 272.871 118.07C272.441 119.164 272.005 120.193 271.562 121.156H268.203C268.477 120.102 268.737 118.995 268.984 117.836C269.245 116.69 269.479 115.557 269.688 114.438C269.909 113.305 270.085 112.276 270.215 111.352H274.688ZM299.824 93.9688C302.559 93.9688 304.622 94.5742 306.016 95.7852C307.422 96.9961 308.125 98.8841 308.125 101.449V116H304.863L303.984 112.934H303.828C303.216 113.715 302.585 114.359 301.934 114.867C301.283 115.375 300.527 115.753 299.668 116C298.822 116.26 297.786 116.391 296.562 116.391C295.273 116.391 294.121 116.156 293.105 115.688C292.09 115.206 291.289 114.477 290.703 113.5C290.117 112.523 289.824 111.286 289.824 109.789C289.824 107.562 290.651 105.889 292.305 104.77C293.971 103.65 296.484 103.031 299.844 102.914L303.594 102.777V101.645C303.594 100.147 303.242 99.0794 302.539 98.4414C301.849 97.8034 300.872 97.4844 299.609 97.4844C298.529 97.4844 297.48 97.6406 296.465 97.9531C295.449 98.2656 294.46 98.6497 293.496 99.1055L292.012 95.8633C293.066 95.3034 294.264 94.8477 295.605 94.4961C296.96 94.1445 298.366 93.9688 299.824 93.9688ZM303.574 105.668L300.781 105.766C298.49 105.844 296.882 106.234 295.957 106.938C295.033 107.641 294.57 108.604 294.57 109.828C294.57 110.896 294.889 111.677 295.527 112.172C296.165 112.654 297.005 112.895 298.047 112.895C299.635 112.895 300.951 112.445 301.992 111.547C303.047 110.635 303.574 109.301 303.574 107.543V105.668ZM329.551 94.3789V103.07H339.668V94.3789H344.277V116H339.668V106.664H329.551V116H324.941V94.3789H329.551ZM359.453 93.9688C361.38 93.9688 363.034 94.3659 364.414 95.1602C365.794 95.9544 366.855 97.0807 367.598 98.5391C368.34 99.9974 368.711 101.742 368.711 103.773V106.234H354.277C354.329 108.331 354.889 109.945 355.957 111.078C357.038 112.211 358.548 112.777 360.488 112.777C361.868 112.777 363.105 112.647 364.199 112.387C365.306 112.113 366.445 111.716 367.617 111.195V114.926C366.536 115.434 365.436 115.805 364.316 116.039C363.197 116.273 361.855 116.391 360.293 116.391C358.171 116.391 356.302 115.98 354.688 115.16C353.086 114.327 351.829 113.09 350.918 111.449C350.02 109.809 349.57 107.771 349.57 105.336C349.57 102.914 349.98 100.857 350.801 99.1641C351.621 97.4714 352.773 96.1823 354.258 95.2969C355.742 94.4115 357.474 93.9688 359.453 93.9688ZM359.453 97.4258C358.008 97.4258 356.836 97.8945 355.938 98.832C355.052 99.7695 354.531 101.143 354.375 102.953H364.219C364.206 101.872 364.023 100.915 363.672 100.082C363.333 99.2487 362.812 98.5977 362.109 98.1289C361.419 97.6602 360.534 97.4258 359.453 97.4258ZM392.988 116.391C390.944 116.391 389.173 115.993 387.676 115.199C386.178 114.405 385.026 113.188 384.219 111.547C383.411 109.906 383.008 107.823 383.008 105.297C383.008 102.667 383.451 100.518 384.336 98.8516C385.221 97.1849 386.445 95.9544 388.008 95.1602C389.583 94.3659 391.387 93.9688 393.418 93.9688C394.707 93.9688 395.872 94.099 396.914 94.3594C397.969 94.6068 398.861 94.9128 399.59 95.2773L398.223 98.9492C397.428 98.6237 396.615 98.3503 395.781 98.1289C394.948 97.9076 394.147 97.7969 393.379 97.7969C392.116 97.7969 391.061 98.0768 390.215 98.6367C389.382 99.1966 388.757 100.03 388.34 101.137C387.936 102.243 387.734 103.617 387.734 105.258C387.734 106.846 387.943 108.188 388.359 109.281C388.776 110.362 389.395 111.182 390.215 111.742C391.035 112.289 392.044 112.562 393.242 112.562C394.427 112.562 395.488 112.419 396.426 112.133C397.363 111.846 398.249 111.475 399.082 111.02V115.004C398.262 115.473 397.383 115.818 396.445 116.039C395.508 116.273 394.355 116.391 392.988 116.391ZM421.953 116H417.324V97.9727H411.328C411.068 101.254 410.742 104.06 410.352 106.391C409.961 108.721 409.473 110.622 408.887 112.094C408.301 113.552 407.578 114.62 406.719 115.297C405.859 115.974 404.824 116.312 403.613 116.312C403.079 116.312 402.598 116.273 402.168 116.195C401.738 116.13 401.354 116.026 401.016 115.883V112.27C401.237 112.348 401.478 112.413 401.738 112.465C401.999 112.517 402.266 112.543 402.539 112.543C403.021 112.543 403.464 112.348 403.867 111.957C404.284 111.553 404.668 110.922 405.02 110.062C405.371 109.203 405.69 108.07 405.977 106.664C406.263 105.245 406.523 103.526 406.758 101.508C406.992 99.4766 407.201 97.1003 407.383 94.3789H421.953V116ZM447.676 105.141C447.676 106.938 447.441 108.533 446.973 109.926C446.504 111.319 445.82 112.497 444.922 113.461C444.023 114.411 442.943 115.141 441.68 115.648C440.417 116.143 438.991 116.391 437.402 116.391C435.918 116.391 434.557 116.143 433.32 115.648C432.083 115.141 431.009 114.411 430.098 113.461C429.199 112.497 428.503 111.319 428.008 109.926C427.513 108.533 427.266 106.938 427.266 105.141C427.266 102.758 427.676 100.74 428.496 99.0859C429.329 97.4193 430.514 96.1497 432.051 95.2773C433.587 94.4049 435.417 93.9688 437.539 93.9688C439.531 93.9688 441.289 94.4049 442.812 95.2773C444.336 96.1497 445.527 97.4193 446.387 99.0859C447.246 100.753 447.676 102.771 447.676 105.141ZM431.992 105.141C431.992 106.716 432.181 108.064 432.559 109.184C432.949 110.303 433.548 111.163 434.355 111.762C435.163 112.348 436.204 112.641 437.48 112.641C438.757 112.641 439.798 112.348 440.605 111.762C441.413 111.163 442.005 110.303 442.383 109.184C442.76 108.064 442.949 106.716 442.949 105.141C442.949 103.565 442.76 102.23 442.383 101.137C442.005 100.03 441.413 99.1901 440.605 98.6172C439.798 98.0312 438.75 97.7383 437.461 97.7383C435.56 97.7383 434.173 98.3763 433.301 99.6523C432.428 100.928 431.992 102.758 431.992 105.141ZM471.133 99.9258C471.133 101.176 470.749 102.198 469.98 102.992C469.225 103.773 468.184 104.288 466.855 104.535V104.691C468.275 104.874 469.46 105.375 470.41 106.195C471.361 107.016 471.836 108.155 471.836 109.613C471.836 110.85 471.523 111.951 470.898 112.914C470.286 113.865 469.31 114.62 467.969 115.18C466.641 115.727 464.902 116 462.754 116H452.949V94.3789H462.715C464.329 94.3789 465.768 94.5547 467.031 94.9062C468.307 95.2578 469.31 95.8372 470.039 96.6445C470.768 97.4518 471.133 98.5456 471.133 99.9258ZM467.051 109.457C467.051 108.389 466.641 107.621 465.82 107.152C465.013 106.684 463.828 106.449 462.266 106.449H457.559V112.621H462.363C463.822 112.621 464.967 112.38 465.801 111.898C466.634 111.404 467.051 110.59 467.051 109.457ZM466.465 100.336C466.465 99.4896 466.146 98.8646 465.508 98.4609C464.87 98.0443 463.867 97.8359 462.5 97.8359H457.559V103.07H461.875C463.385 103.07 464.525 102.855 465.293 102.426C466.074 101.983 466.465 101.286 466.465 100.336ZM485.488 93.9688C488.223 93.9688 490.286 94.5742 491.68 95.7852C493.086 96.9961 493.789 98.8841 493.789 101.449V116H490.527L489.648 112.934H489.492C488.88 113.715 488.249 114.359 487.598 114.867C486.947 115.375 486.191 115.753 485.332 116C484.486 116.26 483.451 116.391 482.227 116.391C480.938 116.391 479.785 116.156 478.77 115.688C477.754 115.206 476.953 114.477 476.367 113.5C475.781 112.523 475.488 111.286 475.488 109.789C475.488 107.562 476.315 105.889 477.969 104.77C479.635 103.65 482.148 103.031 485.508 102.914L489.258 102.777V101.645C489.258 100.147 488.906 99.0794 488.203 98.4414C487.513 97.8034 486.536 97.4844 485.273 97.4844C484.193 97.4844 483.145 97.6406 482.129 97.9531C481.113 98.2656 480.124 98.6497 479.16 99.1055L477.676 95.8633C478.73 95.3034 479.928 94.8477 481.27 94.4961C482.624 94.1445 484.03 93.9688 485.488 93.9688ZM489.238 105.668L486.445 105.766C484.154 105.844 482.546 106.234 481.621 106.938C480.697 107.641 480.234 108.604 480.234 109.828C480.234 110.896 480.553 111.677 481.191 112.172C481.829 112.654 482.669 112.895 483.711 112.895C485.299 112.895 486.615 112.445 487.656 111.547C488.711 110.635 489.238 109.301 489.238 107.543V105.668Z" fill="white"/>
<path d="M37.6465 149.982C36.8587 149.982 36.1491 150.119 35.5176 150.393C34.8926 150.66 34.3587 151.05 33.916 151.564C33.4798 152.072 33.1445 152.688 32.9102 153.41C32.6758 154.133 32.5586 154.947 32.5586 155.852C32.5586 157.049 32.7441 158.091 33.1152 158.977C33.4928 159.855 34.0527 160.536 34.7949 161.018C35.5436 161.499 36.4779 161.74 37.5977 161.74C38.2357 161.74 38.8346 161.688 39.3945 161.584C39.9609 161.473 40.5111 161.337 41.0449 161.174V162.619C40.5241 162.814 39.9772 162.958 39.4043 163.049C38.8314 163.146 38.151 163.195 37.3633 163.195C35.9115 163.195 34.6973 162.896 33.7207 162.297C32.7507 161.691 32.0215 160.839 31.5332 159.738C31.0514 158.638 30.8105 157.339 30.8105 155.842C30.8105 154.761 30.9603 153.775 31.2598 152.883C31.5658 151.984 32.0085 151.21 32.5879 150.559C33.1738 149.908 33.89 149.406 34.7363 149.055C35.5892 148.697 36.5658 148.518 37.666 148.518C38.3887 148.518 39.0853 148.589 39.7559 148.732C40.4264 148.876 41.0319 149.081 41.5723 149.348L40.9082 150.754C40.4525 150.546 39.9512 150.367 39.4043 150.217C38.8639 150.061 38.278 149.982 37.6465 149.982ZM51.9238 163H50.2734V153.654H47.0215C46.8913 155.34 46.7253 156.786 46.5234 157.99C46.3281 159.188 46.0807 160.168 45.7812 160.93C45.4883 161.685 45.1302 162.242 44.707 162.6C44.2904 162.951 43.7923 163.127 43.2129 163.127C43.0371 163.127 42.8711 163.117 42.7148 163.098C42.5586 163.078 42.4251 163.046 42.3145 163V161.77C42.3991 161.796 42.487 161.815 42.5781 161.828C42.6758 161.841 42.7767 161.848 42.8809 161.848C43.1738 161.848 43.4408 161.727 43.6816 161.486C43.929 161.239 44.1504 160.868 44.3457 160.373C44.5475 159.878 44.7266 159.253 44.8828 158.498C45.0391 157.736 45.1758 156.841 45.293 155.812C45.4167 154.777 45.5241 153.605 45.6152 152.297H51.9238V163ZM64.5703 157.629C64.5703 158.508 64.4564 159.292 64.2285 159.982C64.0007 160.673 63.6719 161.255 63.2422 161.73C62.8125 162.206 62.2917 162.57 61.6797 162.824C61.0742 163.072 60.3874 163.195 59.6191 163.195C58.903 163.195 58.2454 163.072 57.6465 162.824C57.054 162.57 56.5397 162.206 56.1035 161.73C55.6738 161.255 55.3385 160.673 55.0977 159.982C54.8633 159.292 54.7461 158.508 54.7461 157.629C54.7461 156.457 54.9447 155.461 55.3418 154.641C55.7389 153.814 56.3053 153.186 57.041 152.756C57.7832 152.32 58.6654 152.102 59.6875 152.102C60.6641 152.102 61.5169 152.32 62.2461 152.756C62.9818 153.192 63.5514 153.824 63.9551 154.65C64.3652 155.471 64.5703 156.464 64.5703 157.629ZM56.4258 157.629C56.4258 158.488 56.5397 159.234 56.7676 159.865C56.9954 160.497 57.347 160.985 57.8223 161.33C58.2975 161.675 58.9095 161.848 59.6582 161.848C60.4004 161.848 61.0091 161.675 61.4844 161.33C61.9661 160.985 62.321 160.497 62.5488 159.865C62.7767 159.234 62.8906 158.488 62.8906 157.629C62.8906 156.776 62.7767 156.04 62.5488 155.422C62.321 154.797 61.9694 154.315 61.4941 153.977C61.0189 153.638 60.4036 153.469 59.6484 153.469C58.5352 153.469 57.7181 153.837 57.1973 154.572C56.6829 155.308 56.4258 156.327 56.4258 157.629ZM75.8789 154.982C75.8789 155.653 75.6836 156.177 75.293 156.555C74.9023 156.926 74.3978 157.176 73.7793 157.307V157.385C74.4499 157.476 75.026 157.717 75.5078 158.107C75.9961 158.492 76.2402 159.081 76.2402 159.875C76.2402 160.487 76.0938 161.027 75.8008 161.496C75.5078 161.965 75.0488 162.333 74.4238 162.6C73.7988 162.867 72.985 163 71.9824 163H67.373V152.297H71.9434C72.7116 152.297 73.3887 152.385 73.9746 152.561C74.5671 152.73 75.0326 153.01 75.3711 153.4C75.7096 153.791 75.8789 154.318 75.8789 154.982ZM74.5508 159.875C74.5508 159.243 74.3099 158.788 73.8281 158.508C73.3529 158.228 72.6595 158.088 71.748 158.088H69.0039V161.682H71.7871C72.6855 161.682 73.3691 161.545 73.8379 161.271C74.3132 160.992 74.5508 160.526 74.5508 159.875ZM74.2285 155.168C74.2285 154.66 74.043 154.283 73.6719 154.035C73.3008 153.781 72.6921 153.654 71.8457 153.654H69.0039V156.73H71.5625C72.4414 156.73 73.1055 156.604 73.5547 156.35C74.0039 156.096 74.2285 155.702 74.2285 155.168ZM82.8613 152.121C84.1374 152.121 85.0846 152.408 85.7031 152.98C86.3216 153.553 86.6309 154.468 86.6309 155.725V163H85.4492L85.1367 161.418H85.0586C84.7591 161.809 84.4466 162.137 84.1211 162.404C83.7956 162.665 83.418 162.863 82.9883 163C82.5651 163.13 82.0443 163.195 81.4258 163.195C80.7747 163.195 80.1953 163.081 79.6875 162.854C79.1862 162.626 78.7891 162.281 78.4961 161.818C78.2096 161.356 78.0664 160.77 78.0664 160.061C78.0664 158.993 78.4896 158.173 79.3359 157.6C80.1823 157.027 81.4714 156.714 83.2031 156.662L85.0488 156.584V155.93C85.0488 155.005 84.8503 154.357 84.4531 153.986C84.056 153.615 83.4961 153.43 82.7734 153.43C82.2135 153.43 81.6797 153.511 81.1719 153.674C80.6641 153.837 80.1823 154.029 79.7266 154.25L79.2285 153.02C79.7103 152.772 80.2637 152.561 80.8887 152.385C81.5137 152.209 82.1712 152.121 82.8613 152.121ZM85.0293 157.727L83.3984 157.795C82.0638 157.847 81.123 158.065 80.5762 158.449C80.0293 158.833 79.7559 159.377 79.7559 160.08C79.7559 160.692 79.9414 161.145 80.3125 161.438C80.6836 161.73 81.1751 161.877 81.7871 161.877C82.7376 161.877 83.5156 161.613 84.1211 161.086C84.7266 160.559 85.0293 159.768 85.0293 158.713V157.727ZM105.586 166.701H104.004V163H95.166V152.297H96.7969V161.623H102.471V152.297H104.092V161.643H105.586V166.701ZM111.807 152.102C112.718 152.102 113.499 152.303 114.15 152.707C114.801 153.111 115.299 153.677 115.645 154.406C115.99 155.129 116.162 155.975 116.162 156.945V157.951H108.77C108.789 159.208 109.102 160.165 109.707 160.822C110.312 161.48 111.165 161.809 112.266 161.809C112.943 161.809 113.542 161.747 114.062 161.623C114.583 161.499 115.124 161.317 115.684 161.076V162.502C115.143 162.743 114.606 162.919 114.072 163.029C113.545 163.14 112.92 163.195 112.197 163.195C111.169 163.195 110.27 162.987 109.502 162.57C108.74 162.147 108.148 161.529 107.725 160.715C107.301 159.901 107.09 158.905 107.09 157.727C107.09 156.574 107.282 155.578 107.666 154.738C108.057 153.892 108.604 153.241 109.307 152.785C110.016 152.329 110.85 152.102 111.807 152.102ZM111.787 153.43C110.921 153.43 110.231 153.713 109.717 154.279C109.202 154.846 108.896 155.637 108.799 156.652H114.463C114.456 156.014 114.355 155.454 114.16 154.973C113.971 154.484 113.682 154.107 113.291 153.84C112.9 153.566 112.399 153.43 111.787 153.43ZM120.547 152.297V156.789H126.514V152.297H128.135V163H126.514V158.166H120.547V163H118.916V152.297H120.547ZM132.09 163H130.195L133.281 158.488C132.832 158.391 132.415 158.225 132.031 157.99C131.647 157.749 131.335 157.421 131.094 157.004C130.859 156.587 130.742 156.07 130.742 155.451C130.742 154.423 131.084 153.641 131.768 153.107C132.458 152.567 133.366 152.297 134.492 152.297H139.229V163H137.607V158.703H134.893L132.09 163ZM132.314 155.461C132.314 156.099 132.542 156.574 132.998 156.887C133.454 157.193 134.105 157.346 134.951 157.346H137.607V153.654H134.668C133.835 153.654 133.232 153.824 132.861 154.162C132.497 154.494 132.314 154.927 132.314 155.461ZM149.941 153.674H146.416V163H144.814V153.674H141.338V152.297H149.941V153.674ZM156.348 163.195C155.384 163.195 154.535 162.997 153.799 162.6C153.063 162.202 152.49 161.597 152.08 160.783C151.67 159.969 151.465 158.944 151.465 157.707C151.465 156.411 151.68 155.354 152.109 154.533C152.546 153.706 153.145 153.094 153.906 152.697C154.668 152.3 155.534 152.102 156.504 152.102C157.038 152.102 157.552 152.157 158.047 152.268C158.548 152.372 158.958 152.505 159.277 152.668L158.789 154.025C158.464 153.895 158.086 153.778 157.656 153.674C157.233 153.57 156.836 153.518 156.465 153.518C155.723 153.518 155.104 153.677 154.609 153.996C154.121 154.315 153.753 154.784 153.506 155.402C153.265 156.021 153.145 156.783 153.145 157.688C153.145 158.553 153.262 159.292 153.496 159.904C153.737 160.516 154.092 160.985 154.561 161.311C155.036 161.63 155.628 161.789 156.338 161.789C156.904 161.789 157.415 161.73 157.871 161.613C158.327 161.49 158.74 161.346 159.111 161.184V162.629C158.753 162.811 158.353 162.951 157.91 163.049C157.474 163.146 156.953 163.195 156.348 163.195ZM162.168 163H160.273L163.359 158.488C162.91 158.391 162.493 158.225 162.109 157.99C161.725 157.749 161.413 157.421 161.172 157.004C160.938 156.587 160.82 156.07 160.82 155.451C160.82 154.423 161.162 153.641 161.846 153.107C162.536 152.567 163.444 152.297 164.57 152.297H169.307V163H167.686V158.703H164.971L162.168 163ZM162.393 155.461C162.393 156.099 162.62 156.574 163.076 156.887C163.532 157.193 164.183 157.346 165.029 157.346H167.686V153.654H164.746C163.913 153.654 163.311 153.824 162.939 154.162C162.575 154.494 162.393 154.927 162.393 155.461ZM185.215 153.674H181.689V163H180.088V153.674H176.611V152.297H185.215V153.674ZM196.562 157.629C196.562 158.508 196.449 159.292 196.221 159.982C195.993 160.673 195.664 161.255 195.234 161.73C194.805 162.206 194.284 162.57 193.672 162.824C193.066 163.072 192.38 163.195 191.611 163.195C190.895 163.195 190.238 163.072 189.639 162.824C189.046 162.57 188.532 162.206 188.096 161.73C187.666 161.255 187.331 160.673 187.09 159.982C186.855 159.292 186.738 158.508 186.738 157.629C186.738 156.457 186.937 155.461 187.334 154.641C187.731 153.814 188.298 153.186 189.033 152.756C189.775 152.32 190.658 152.102 191.68 152.102C192.656 152.102 193.509 152.32 194.238 152.756C194.974 153.192 195.544 153.824 195.947 154.65C196.357 155.471 196.562 156.464 196.562 157.629ZM188.418 157.629C188.418 158.488 188.532 159.234 188.76 159.865C188.988 160.497 189.339 160.985 189.814 161.33C190.29 161.675 190.902 161.848 191.65 161.848C192.393 161.848 193.001 161.675 193.477 161.33C193.958 160.985 194.313 160.497 194.541 159.865C194.769 159.234 194.883 158.488 194.883 157.629C194.883 156.776 194.769 156.04 194.541 155.422C194.313 154.797 193.962 154.315 193.486 153.977C193.011 153.638 192.396 153.469 191.641 153.469C190.527 153.469 189.71 153.837 189.189 154.572C188.675 155.308 188.418 156.327 188.418 157.629ZM205.859 152.297V153.674H200.996V163H199.365V152.297H205.859ZM215.84 152.297V161.623H217.373V166.701H215.801V163H208.223V166.701H206.67V161.623H207.51C208.122 160.777 208.63 159.849 209.033 158.84C209.437 157.831 209.743 156.773 209.951 155.666C210.16 154.553 210.27 153.43 210.283 152.297H215.84ZM214.268 153.586H211.729C211.67 154.536 211.53 155.503 211.309 156.486C211.094 157.469 210.807 158.407 210.449 159.299C210.091 160.184 209.674 160.959 209.199 161.623H214.268V153.586ZM223.506 152.121C224.782 152.121 225.729 152.408 226.348 152.98C226.966 153.553 227.275 154.468 227.275 155.725V163H226.094L225.781 161.418H225.703C225.404 161.809 225.091 162.137 224.766 162.404C224.44 162.665 224.062 162.863 223.633 163C223.21 163.13 222.689 163.195 222.07 163.195C221.419 163.195 220.84 163.081 220.332 162.854C219.831 162.626 219.434 162.281 219.141 161.818C218.854 161.356 218.711 160.77 218.711 160.061C218.711 158.993 219.134 158.173 219.98 157.6C220.827 157.027 222.116 156.714 223.848 156.662L225.693 156.584V155.93C225.693 155.005 225.495 154.357 225.098 153.986C224.701 153.615 224.141 153.43 223.418 153.43C222.858 153.43 222.324 153.511 221.816 153.674C221.309 153.837 220.827 154.029 220.371 154.25L219.873 153.02C220.355 152.772 220.908 152.561 221.533 152.385C222.158 152.209 222.816 152.121 223.506 152.121ZM225.674 157.727L224.043 157.795C222.708 157.847 221.768 158.065 221.221 158.449C220.674 158.833 220.4 159.377 220.4 160.08C220.4 160.692 220.586 161.145 220.957 161.438C221.328 161.73 221.82 161.877 222.432 161.877C223.382 161.877 224.16 161.613 224.766 161.086C225.371 160.559 225.674 159.768 225.674 158.713V157.727ZM232.471 160.676L232.598 160.9C232.48 161.376 232.331 161.883 232.148 162.424C231.973 162.964 231.777 163.505 231.562 164.045C231.354 164.592 231.143 165.103 230.928 165.578H229.717C229.854 165.057 229.987 164.507 230.117 163.928C230.247 163.355 230.365 162.788 230.469 162.229C230.579 161.662 230.667 161.145 230.732 160.676H232.471ZM247.227 152.297H249.014L244.395 157.463L249.385 163H247.48L242.617 157.57V163H240.986V152.297H242.617V157.492L247.227 152.297ZM260.547 157.629C260.547 158.508 260.433 159.292 260.205 159.982C259.977 160.673 259.648 161.255 259.219 161.73C258.789 162.206 258.268 162.57 257.656 162.824C257.051 163.072 256.364 163.195 255.596 163.195C254.88 163.195 254.222 163.072 253.623 162.824C253.031 162.57 252.516 162.206 252.08 161.73C251.65 161.255 251.315 160.673 251.074 159.982C250.84 159.292 250.723 158.508 250.723 157.629C250.723 156.457 250.921 155.461 251.318 154.641C251.715 153.814 252.282 153.186 253.018 152.756C253.76 152.32 254.642 152.102 255.664 152.102C256.641 152.102 257.493 152.32 258.223 152.756C258.958 153.192 259.528 153.824 259.932 154.65C260.342 155.471 260.547 156.464 260.547 157.629ZM252.402 157.629C252.402 158.488 252.516 159.234 252.744 159.865C252.972 160.497 253.324 160.985 253.799 161.33C254.274 161.675 254.886 161.848 255.635 161.848C256.377 161.848 256.986 161.675 257.461 161.33C257.943 160.985 258.298 160.497 258.525 159.865C258.753 159.234 258.867 158.488 258.867 157.629C258.867 156.776 258.753 156.04 258.525 155.422C258.298 154.797 257.946 154.315 257.471 153.977C256.995 153.638 256.38 153.469 255.625 153.469C254.512 153.469 253.695 153.837 253.174 154.572C252.66 155.308 252.402 156.327 252.402 157.629ZM269.844 152.297V153.674H264.98V163H263.35V152.297H269.844ZM279.824 152.297V161.623H281.357V166.701H279.785V163H272.207V166.701H270.654V161.623H271.494C272.106 160.777 272.614 159.849 273.018 158.84C273.421 157.831 273.727 156.773 273.936 155.666C274.144 154.553 274.255 153.43 274.268 152.297H279.824ZM278.252 153.586H275.713C275.654 154.536 275.514 155.503 275.293 156.486C275.078 157.469 274.792 158.407 274.434 159.299C274.076 160.184 273.659 160.959 273.184 161.623H278.252V153.586ZM287.49 152.121C288.766 152.121 289.714 152.408 290.332 152.98C290.951 153.553 291.26 154.468 291.26 155.725V163H290.078L289.766 161.418H289.688C289.388 161.809 289.076 162.137 288.75 162.404C288.424 162.665 288.047 162.863 287.617 163C287.194 163.13 286.673 163.195 286.055 163.195C285.404 163.195 284.824 163.081 284.316 162.854C283.815 162.626 283.418 162.281 283.125 161.818C282.839 161.356 282.695 160.77 282.695 160.061C282.695 158.993 283.118 158.173 283.965 157.6C284.811 157.027 286.1 156.714 287.832 156.662L289.678 156.584V155.93C289.678 155.005 289.479 154.357 289.082 153.986C288.685 153.615 288.125 153.43 287.402 153.43C286.842 153.43 286.309 153.511 285.801 153.674C285.293 153.837 284.811 154.029 284.355 154.25L283.857 153.02C284.339 152.772 284.893 152.561 285.518 152.385C286.143 152.209 286.8 152.121 287.49 152.121ZM289.658 157.727L288.027 157.795C286.693 157.847 285.752 158.065 285.205 158.449C284.658 158.833 284.385 159.377 284.385 160.08C284.385 160.692 284.57 161.145 284.941 161.438C285.312 161.73 285.804 161.877 286.416 161.877C287.367 161.877 288.145 161.613 288.75 161.086C289.355 160.559 289.658 159.768 289.658 158.713V157.727ZM304.082 163.195C303.118 163.195 302.269 162.997 301.533 162.6C300.798 162.202 300.225 161.597 299.814 160.783C299.404 159.969 299.199 158.944 299.199 157.707C299.199 156.411 299.414 155.354 299.844 154.533C300.28 153.706 300.879 153.094 301.641 152.697C302.402 152.3 303.268 152.102 304.238 152.102C304.772 152.102 305.286 152.157 305.781 152.268C306.283 152.372 306.693 152.505 307.012 152.668L306.523 154.025C306.198 153.895 305.82 153.778 305.391 153.674C304.967 153.57 304.57 153.518 304.199 153.518C303.457 153.518 302.839 153.677 302.344 153.996C301.855 154.315 301.488 154.784 301.24 155.402C300.999 156.021 300.879 156.783 300.879 157.688C300.879 158.553 300.996 159.292 301.23 159.904C301.471 160.516 301.826 160.985 302.295 161.311C302.77 161.63 303.363 161.789 304.072 161.789C304.639 161.789 305.15 161.73 305.605 161.613C306.061 161.49 306.475 161.346 306.846 161.184V162.629C306.488 162.811 306.087 162.951 305.645 163.049C305.208 163.146 304.688 163.195 304.082 163.195ZM318.613 157.629C318.613 158.508 318.499 159.292 318.271 159.982C318.044 160.673 317.715 161.255 317.285 161.73C316.855 162.206 316.335 162.57 315.723 162.824C315.117 163.072 314.43 163.195 313.662 163.195C312.946 163.195 312.288 163.072 311.689 162.824C311.097 162.57 310.583 162.206 310.146 161.73C309.717 161.255 309.382 160.673 309.141 159.982C308.906 159.292 308.789 158.508 308.789 157.629C308.789 156.457 308.988 155.461 309.385 154.641C309.782 153.814 310.348 153.186 311.084 152.756C311.826 152.32 312.708 152.102 313.73 152.102C314.707 152.102 315.56 152.32 316.289 152.756C317.025 153.192 317.594 153.824 317.998 154.65C318.408 155.471 318.613 156.464 318.613 157.629ZM310.469 157.629C310.469 158.488 310.583 159.234 310.811 159.865C311.038 160.497 311.39 160.985 311.865 161.33C312.34 161.675 312.952 161.848 313.701 161.848C314.443 161.848 315.052 161.675 315.527 161.33C316.009 160.985 316.364 160.497 316.592 159.865C316.82 159.234 316.934 158.488 316.934 157.629C316.934 156.776 316.82 156.04 316.592 155.422C316.364 154.797 316.012 154.315 315.537 153.977C315.062 153.638 314.447 153.469 313.691 153.469C312.578 153.469 311.761 153.837 311.24 154.572C310.726 155.308 310.469 156.327 310.469 157.629ZM329.922 154.982C329.922 155.653 329.727 156.177 329.336 156.555C328.945 156.926 328.441 157.176 327.822 157.307V157.385C328.493 157.476 329.069 157.717 329.551 158.107C330.039 158.492 330.283 159.081 330.283 159.875C330.283 160.487 330.137 161.027 329.844 161.496C329.551 161.965 329.092 162.333 328.467 162.6C327.842 162.867 327.028 163 326.025 163H321.416V152.297H325.986C326.755 152.297 327.432 152.385 328.018 152.561C328.61 152.73 329.076 153.01 329.414 153.4C329.753 153.791 329.922 154.318 329.922 154.982ZM328.594 159.875C328.594 159.243 328.353 158.788 327.871 158.508C327.396 158.228 326.702 158.088 325.791 158.088H323.047V161.682H325.83C326.729 161.682 327.412 161.545 327.881 161.271C328.356 160.992 328.594 160.526 328.594 159.875ZM328.271 155.168C328.271 154.66 328.086 154.283 327.715 154.035C327.344 153.781 326.735 153.654 325.889 153.654H323.047V156.73H325.605C326.484 156.73 327.148 156.604 327.598 156.35C328.047 156.096 328.271 155.702 328.271 155.168ZM341.865 152.297V163H340.234V153.693H334.531V163H332.9V152.297H341.865ZM349.307 152.121C350.583 152.121 351.53 152.408 352.148 152.98C352.767 153.553 353.076 154.468 353.076 155.725V163H351.895L351.582 161.418H351.504C351.204 161.809 350.892 162.137 350.566 162.404C350.241 162.665 349.863 162.863 349.434 163C349.01 163.13 348.49 163.195 347.871 163.195C347.22 163.195 346.641 163.081 346.133 162.854C345.632 162.626 345.234 162.281 344.941 161.818C344.655 161.356 344.512 160.77 344.512 160.061C344.512 158.993 344.935 158.173 345.781 157.6C346.628 157.027 347.917 156.714 349.648 156.662L351.494 156.584V155.93C351.494 155.005 351.296 154.357 350.898 153.986C350.501 153.615 349.941 153.43 349.219 153.43C348.659 153.43 348.125 153.511 347.617 153.674C347.109 153.837 346.628 154.029 346.172 154.25L345.674 153.02C346.156 152.772 346.709 152.561 347.334 152.385C347.959 152.209 348.617 152.121 349.307 152.121ZM351.475 157.727L349.844 157.795C348.509 157.847 347.568 158.065 347.021 158.449C346.475 158.833 346.201 159.377 346.201 160.08C346.201 160.692 346.387 161.145 346.758 161.438C347.129 161.73 347.62 161.877 348.232 161.877C349.183 161.877 349.961 161.613 350.566 161.086C351.172 160.559 351.475 159.768 351.475 158.713V157.727ZM364.258 152.297V161.623H365.791V166.701H364.219V163H356.641V166.701H355.088V161.623H355.928C356.54 160.777 357.048 159.849 357.451 158.84C357.855 157.831 358.161 156.773 358.369 155.666C358.577 154.553 358.688 153.43 358.701 152.297H364.258ZM362.686 153.586H360.146C360.088 154.536 359.948 155.503 359.727 156.486C359.512 157.469 359.225 158.407 358.867 159.299C358.509 160.184 358.092 160.959 357.617 161.623H362.686V153.586ZM371.924 152.121C373.2 152.121 374.147 152.408 374.766 152.98C375.384 153.553 375.693 154.468 375.693 155.725V163H374.512L374.199 161.418H374.121C373.822 161.809 373.509 162.137 373.184 162.404C372.858 162.665 372.48 162.863 372.051 163C371.628 163.13 371.107 163.195 370.488 163.195C369.837 163.195 369.258 163.081 368.75 162.854C368.249 162.626 367.852 162.281 367.559 161.818C367.272 161.356 367.129 160.77 367.129 160.061C367.129 158.993 367.552 158.173 368.398 157.6C369.245 157.027 370.534 156.714 372.266 156.662L374.111 156.584V155.93C374.111 155.005 373.913 154.357 373.516 153.986C373.118 153.615 372.559 153.43 371.836 153.43C371.276 153.43 370.742 153.511 370.234 153.674C369.727 153.837 369.245 154.029 368.789 154.25L368.291 153.02C368.773 152.772 369.326 152.561 369.951 152.385C370.576 152.209 371.234 152.121 371.924 152.121ZM374.092 157.727L372.461 157.795C371.126 157.847 370.186 158.065 369.639 158.449C369.092 158.833 368.818 159.377 368.818 160.08C368.818 160.692 369.004 161.145 369.375 161.438C369.746 161.73 370.238 161.877 370.85 161.877C371.8 161.877 372.578 161.613 373.184 161.086C373.789 160.559 374.092 159.768 374.092 158.713V157.727ZM392.793 157.629C392.793 158.794 392.604 159.794 392.227 160.627C391.855 161.46 391.322 162.098 390.625 162.541C389.928 162.977 389.095 163.195 388.125 163.195C387.22 163.195 386.429 163 385.752 162.609C385.081 162.219 384.551 161.649 384.16 160.9C383.776 160.152 383.555 159.24 383.496 158.166H380.654V163H379.033V152.297H380.654V156.789H383.516C383.607 155.799 383.848 154.956 384.238 154.26C384.629 153.563 385.156 153.029 385.82 152.658C386.484 152.287 387.266 152.102 388.164 152.102C389.102 152.102 389.915 152.323 390.605 152.766C391.302 153.202 391.839 153.833 392.217 154.66C392.601 155.48 392.793 156.47 392.793 157.629ZM385.156 157.629C385.156 158.527 385.257 159.292 385.459 159.924C385.667 160.549 385.99 161.027 386.426 161.359C386.868 161.685 387.441 161.848 388.145 161.848C388.841 161.848 389.408 161.685 389.844 161.359C390.286 161.034 390.609 160.559 390.811 159.934C391.019 159.302 391.123 158.534 391.123 157.629C391.123 156.737 391.019 155.982 390.811 155.363C390.602 154.745 390.28 154.276 389.844 153.957C389.408 153.632 388.841 153.469 388.145 153.469C387.448 153.469 386.878 153.632 386.436 153.957C385.999 154.276 385.677 154.745 385.469 155.363C385.26 155.982 385.156 156.737 385.156 157.629ZM402.91 153.674H399.385V163H397.783V153.674H394.307V152.297H402.91V153.674ZM414.512 163.195C413.548 163.195 412.699 162.997 411.963 162.6C411.227 162.202 410.654 161.597 410.244 160.783C409.834 159.969 409.629 158.944 409.629 157.707C409.629 156.411 409.844 155.354 410.273 154.533C410.71 153.706 411.309 153.094 412.07 152.697C412.832 152.3 413.698 152.102 414.668 152.102C415.202 152.102 415.716 152.157 416.211 152.268C416.712 152.372 417.122 152.505 417.441 152.668L416.953 154.025C416.628 153.895 416.25 153.778 415.82 153.674C415.397 153.57 415 153.518 414.629 153.518C413.887 153.518 413.268 153.677 412.773 153.996C412.285 154.315 411.917 154.784 411.67 155.402C411.429 156.021 411.309 156.783 411.309 157.688C411.309 158.553 411.426 159.292 411.66 159.904C411.901 160.516 412.256 160.985 412.725 161.311C413.2 161.63 413.792 161.789 414.502 161.789C415.068 161.789 415.579 161.73 416.035 161.613C416.491 161.49 416.904 161.346 417.275 161.184V162.629C416.917 162.811 416.517 162.951 416.074 163.049C415.638 163.146 415.117 163.195 414.512 163.195ZM432.852 152.297V161.623H434.385V166.701H432.812V163H425.234V166.701H423.682V161.623H424.521C425.133 160.777 425.641 159.849 426.045 158.84C426.449 157.831 426.755 156.773 426.963 155.666C427.171 154.553 427.282 153.43 427.295 152.297H432.852ZM431.279 153.586H428.74C428.682 154.536 428.542 155.503 428.32 156.486C428.105 157.469 427.819 158.407 427.461 159.299C427.103 160.184 426.686 160.959 426.211 161.623H431.279V153.586ZM440.635 152.102C441.546 152.102 442.327 152.303 442.979 152.707C443.63 153.111 444.128 153.677 444.473 154.406C444.818 155.129 444.99 155.975 444.99 156.945V157.951H437.598C437.617 159.208 437.93 160.165 438.535 160.822C439.141 161.48 439.993 161.809 441.094 161.809C441.771 161.809 442.37 161.747 442.891 161.623C443.411 161.499 443.952 161.317 444.512 161.076V162.502C443.971 162.743 443.434 162.919 442.9 163.029C442.373 163.14 441.748 163.195 441.025 163.195C439.997 163.195 439.098 162.987 438.33 162.57C437.568 162.147 436.976 161.529 436.553 160.715C436.13 159.901 435.918 158.905 435.918 157.727C435.918 156.574 436.11 155.578 436.494 154.738C436.885 153.892 437.432 153.241 438.135 152.785C438.844 152.329 439.678 152.102 440.635 152.102ZM440.615 153.43C439.749 153.43 439.059 153.713 438.545 154.279C438.031 154.846 437.725 155.637 437.627 156.652H443.291C443.285 156.014 443.184 155.454 442.988 154.973C442.799 154.484 442.51 154.107 442.119 153.84C441.729 153.566 441.227 153.43 440.615 153.43ZM449.287 152.297V159.025C449.287 159.156 449.284 159.325 449.277 159.533C449.271 159.735 449.261 159.953 449.248 160.188C449.235 160.415 449.222 160.637 449.209 160.852C449.202 161.06 449.193 161.232 449.18 161.369L455.02 152.297H457.012V163H455.498V156.438C455.498 156.229 455.501 155.962 455.508 155.637C455.514 155.311 455.524 154.992 455.537 154.68C455.55 154.361 455.56 154.113 455.566 153.938L449.746 163H447.744V152.297H449.287ZM456.211 147.893C456.152 148.55 455.986 149.1 455.713 149.543C455.446 149.986 455.052 150.321 454.531 150.549C454.01 150.77 453.343 150.881 452.529 150.881C451.689 150.881 451.012 150.773 450.498 150.559C449.99 150.337 449.613 150.005 449.365 149.562C449.124 149.12 448.981 148.563 448.936 147.893H450.459C450.531 148.609 450.723 149.097 451.035 149.357C451.348 149.618 451.855 149.748 452.559 149.748C453.184 149.748 453.675 149.611 454.033 149.338C454.391 149.064 454.606 148.583 454.678 147.893H456.211ZM464.746 163.195C463.783 163.195 462.933 162.997 462.197 162.6C461.462 162.202 460.889 161.597 460.479 160.783C460.068 159.969 459.863 158.944 459.863 157.707C459.863 156.411 460.078 155.354 460.508 154.533C460.944 153.706 461.543 153.094 462.305 152.697C463.066 152.3 463.932 152.102 464.902 152.102C465.436 152.102 465.951 152.157 466.445 152.268C466.947 152.372 467.357 152.505 467.676 152.668L467.188 154.025C466.862 153.895 466.484 153.778 466.055 153.674C465.632 153.57 465.234 153.518 464.863 153.518C464.121 153.518 463.503 153.677 463.008 153.996C462.52 154.315 462.152 154.784 461.904 155.402C461.663 156.021 461.543 156.783 461.543 157.688C461.543 158.553 461.66 159.292 461.895 159.904C462.135 160.516 462.49 160.985 462.959 161.311C463.434 161.63 464.027 161.789 464.736 161.789C465.303 161.789 465.814 161.73 466.27 161.613C466.725 161.49 467.139 161.346 467.51 161.184V162.629C467.152 162.811 466.751 162.951 466.309 163.049C465.872 163.146 465.352 163.195 464.746 163.195ZM477.344 153.674H473.818V163H472.217V153.674H468.74V152.297H477.344V153.674ZM487.969 154.982C487.969 155.653 487.773 156.177 487.383 156.555C486.992 156.926 486.488 157.176 485.869 157.307V157.385C486.54 157.476 487.116 157.717 487.598 158.107C488.086 158.492 488.33 159.081 488.33 159.875C488.33 160.487 488.184 161.027 487.891 161.496C487.598 161.965 487.139 162.333 486.514 162.6C485.889 162.867 485.075 163 484.072 163H479.463V152.297H484.033C484.801 152.297 485.479 152.385 486.064 152.561C486.657 152.73 487.122 153.01 487.461 153.4C487.799 153.791 487.969 154.318 487.969 154.982ZM486.641 159.875C486.641 159.243 486.4 158.788 485.918 158.508C485.443 158.228 484.749 158.088 483.838 158.088H481.094V161.682H483.877C484.775 161.682 485.459 161.545 485.928 161.271C486.403 160.992 486.641 160.526 486.641 159.875ZM486.318 155.168C486.318 154.66 486.133 154.283 485.762 154.035C485.391 153.781 484.782 153.654 483.936 153.654H481.094V156.73H483.652C484.531 156.73 485.195 156.604 485.645 156.35C486.094 156.096 486.318 155.702 486.318 155.168ZM492.49 152.297V159.025C492.49 159.156 492.487 159.325 492.48 159.533C492.474 159.735 492.464 159.953 492.451 160.188C492.438 160.415 492.425 160.637 492.412 160.852C492.406 161.06 492.396 161.232 492.383 161.369L498.223 152.297H500.215V163H498.701V156.438C498.701 156.229 498.704 155.962 498.711 155.637C498.717 155.311 498.727 154.992 498.74 154.68C498.753 154.361 498.763 154.113 498.77 153.938L492.949 163H490.947V152.297H492.49ZM504.18 163H502.285L505.371 158.488C504.922 158.391 504.505 158.225 504.121 157.99C503.737 157.749 503.424 157.421 503.184 157.004C502.949 156.587 502.832 156.07 502.832 155.451C502.832 154.423 503.174 153.641 503.857 153.107C504.548 152.567 505.456 152.297 506.582 152.297H511.318V163H509.697V158.703H506.982L504.18 163ZM504.404 155.461C504.404 156.099 504.632 156.574 505.088 156.887C505.544 157.193 506.195 157.346 507.041 157.346H509.697V153.654H506.758C505.924 153.654 505.322 153.824 504.951 154.162C504.587 154.494 504.404 154.927 504.404 155.461ZM526.035 152.297V163H524.57V156.027C524.57 155.741 524.577 155.451 524.59 155.158C524.609 154.859 524.632 154.559 524.658 154.26H524.6L521.045 163H519.668L516.201 154.26H516.143C516.162 154.559 516.175 154.859 516.182 155.158C516.195 155.451 516.201 155.76 516.201 156.086V163H514.727V152.297H516.904L520.361 161.047L523.867 152.297H526.035ZM530.947 152.297V159.025C530.947 159.156 530.944 159.325 530.938 159.533C530.931 159.735 530.921 159.953 530.908 160.188C530.895 160.415 530.882 160.637 530.869 160.852C530.863 161.06 530.853 161.232 530.84 161.369L536.68 152.297H538.672V163H537.158V156.438C537.158 156.229 537.161 155.962 537.168 155.637C537.174 155.311 537.184 154.992 537.197 154.68C537.21 154.361 537.22 154.113 537.227 153.938L531.406 163H529.404V152.297H530.947Z" fill="white"/>
<defs>
<linearGradient id="paint0_linear_465_3105" x1="260.94" y1="23.8298" x2="314.566" y2="29.7568" gradientUnits="userSpaceOnUse">
<stop stop-color="#99660A"/>
<stop offset="0.204906" stop-color="#F2DB51"/>
<stop offset="0.638605" stop-color="#F2DB51"/>
<stop offset="1" stop-color="#99660A"/>
</linearGradient>
<linearGradient id="paint1_linear_465_3105" x1="260.94" y1="23.8298" x2="314.566" y2="29.7568" gradientUnits="userSpaceOnUse">
<stop stop-color="#99660A"/>
<stop offset="0.204906" stop-color="#F2DB51"/>
<stop offset="0.638605" stop-color="#F2DB51"/>
<stop offset="1" stop-color="#99660A"/>
</linearGradient>
<linearGradient id="paint2_linear_465_3105" x1="260.94" y1="23.8298" x2="314.566" y2="29.7568" gradientUnits="userSpaceOnUse">
<stop stop-color="#99660A"/>
<stop offset="0.204906" stop-color="#F2DB51"/>
<stop offset="0.638605" stop-color="#F2DB51"/>
<stop offset="1" stop-color="#99660A"/>
</linearGradient>
<linearGradient id="paint3_linear_465_3105" x1="260.94" y1="23.8298" x2="314.566" y2="29.7568" gradientUnits="userSpaceOnUse">
<stop stop-color="#99660A"/>
<stop offset="0.204906" stop-color="#F2DB51"/>
<stop offset="0.638605" stop-color="#F2DB51"/>
<stop offset="1" stop-color="#99660A"/>
</linearGradient>
</defs>
</svg>
