<svg width="48" height="50" viewBox="0 0 48 50" fill="none" xmlns="http://www.w3.org/2000/svg">
<path d="M24.5851 5.81395C24.5851 9.02491 21.9643 11.6279 18.7314 11.6279C15.4984 11.6279 12.8776 9.02491 12.8776 5.81395C12.8776 2.603 15.4984 0 18.7314 0C21.9643 0 24.5851 2.603 24.5851 5.81395Z" fill="url(#paint0_linear_1034_2179)"/>
<path d="M31.1361 20.5613C30.6405 20.8313 30.1006 20.9438 29.5748 20.9159C29.2933 21.0053 28.9933 21.0536 28.6819 21.0536H22.982C22.8559 21.8891 22.5247 22.7063 21.9773 23.4288L16.4686 30.7005C16.4299 30.7517 16.3903 30.8019 16.3501 30.8513L19.8329 34.3056C19.9433 34.415 20.0429 34.531 20.132 34.6523C20.8093 35.1847 21.2439 36.0084 21.2439 36.933V46.0536C21.2439 47.6591 19.9335 48.9606 18.317 48.9606C16.7005 48.9606 15.3901 47.6591 15.3901 46.0536V38.1156L7.92345 30.7101C7.3421 30.1335 7.05589 29.3745 7.06494 28.6183C6.76424 27.1886 7.06195 25.6424 8.01556 24.3836L13.5243 17.1119C14.8952 15.3022 17.2164 14.6216 19.2793 15.2396H28.6819C28.6986 15.2396 28.7152 15.2398 28.7317 15.2401L32.5697 13.1494C33.987 12.3774 35.7661 12.8927 36.5434 14.3003C37.3207 15.708 36.8019 17.475 35.3846 18.247L31.1361 20.5613Z" fill="url(#paint1_linear_1034_2179)"/>
<path d="M6.66863 36.0438C7.6405 34.7609 9.47546 34.5034 10.7671 35.4687C12.0588 36.434 12.3181 38.2564 11.3462 39.5393L5.26582 47.5657C4.29395 48.8486 2.45899 49.106 1.16731 48.1408C-0.124364 47.1755 -0.383619 45.353 0.588249 44.0701L6.66863 36.0438Z" fill="url(#paint2_linear_1034_2179)"/>
<path d="M48 3.48837C42.4679 3.48837 37.463 6.1257 33.8558 10.383C35.7351 10.4908 37.5121 11.5475 38.4491 13.3242C39.8688 16.0161 38.8226 19.3413 36.1123 20.7514L32.3803 22.693C31.0849 23.367 29.6437 23.4814 28.3371 23.1233C28.1793 24.3032 28.0973 25.5125 28.0973 26.7442C28.0973 39.588 37.0081 50 48 50V3.48837Z" fill="url(#paint3_linear_1034_2179)"/>
<defs>
<linearGradient id="paint0_linear_1034_2179" x1="-0.0596432" y1="13.8298" x2="53.5662" y2="19.7568" gradientUnits="userSpaceOnUse">
<stop stop-color="#99660A"/>
<stop offset="0.204906" stop-color="#F2DB51"/>
<stop offset="0.638605" stop-color="#F2DB51"/>
<stop offset="1" stop-color="#99660A"/>
</linearGradient>
<linearGradient id="paint1_linear_1034_2179" x1="-0.0596432" y1="13.8298" x2="53.5662" y2="19.7568" gradientUnits="userSpaceOnUse">
<stop stop-color="#99660A"/>
<stop offset="0.204906" stop-color="#F2DB51"/>
<stop offset="0.638605" stop-color="#F2DB51"/>
<stop offset="1" stop-color="#99660A"/>
</linearGradient>
<linearGradient id="paint2_linear_1034_2179" x1="-0.0596432" y1="13.8298" x2="53.5662" y2="19.7568" gradientUnits="userSpaceOnUse">
<stop stop-color="#99660A"/>
<stop offset="0.204906" stop-color="#F2DB51"/>
<stop offset="0.638605" stop-color="#F2DB51"/>
<stop offset="1" stop-color="#99660A"/>
</linearGradient>
<linearGradient id="paint3_linear_1034_2179" x1="-0.0596432" y1="13.8298" x2="53.5662" y2="19.7568" gradientUnits="userSpaceOnUse">
<stop stop-color="#99660A"/>
<stop offset="0.204906" stop-color="#F2DB51"/>
<stop offset="0.638605" stop-color="#F2DB51"/>
<stop offset="1" stop-color="#99660A"/>
</linearGradient>
</defs>
</svg>
