<svg width="14" height="14" viewBox="0 0 14 14" fill="none" xmlns="http://www.w3.org/2000/svg">
  <path d="M13.7215 6.59688C12.2402 3.47656 10.0012 1.90625 6.9996 1.90625C3.99648 1.90625 1.75898 3.47656 0.277727 6.59844C0.218314 6.72425 0.1875 6.86165 0.1875 7.00078C0.1875 7.13991 0.218314 7.27732 0.277727 7.40312C1.75898 10.5234 3.99804 12.0938 6.9996 12.0938C10.0027 12.0938 12.2402 10.5234 13.7215 7.40156C13.8418 7.14844 13.8418 6.85469 13.7215 6.59688ZM6.9996 10.9688C4.47929 10.9688 2.63398 9.69063 1.33241 7C2.63398 4.30938 4.47929 3.03125 6.9996 3.03125C9.51992 3.03125 11.3652 4.30938 12.6668 7C11.3668 9.69063 9.52148 10.9688 6.9996 10.9688ZM6.9371 4.25C5.41835 4.25 4.1871 5.48125 4.1871 7C4.1871 8.51875 5.41835 9.75 6.9371 9.75C8.45585 9.75 9.6871 8.51875 9.6871 7C9.6871 5.48125 8.45585 4.25 6.9371 4.25ZM6.9371 8.75C5.96991 8.75 5.1871 7.96719 5.1871 7C5.1871 6.03281 5.96991 5.25 6.9371 5.25C7.90429 5.25 8.6871 6.03281 8.6871 7C8.6871 7.96719 7.90429 8.75 6.9371 8.75Z" fill="white"/>
</svg>
