<svg width="15" height="15" viewBox="0 0 15 15" fill="none" xmlns="http://www.w3.org/2000/svg">
<g clip-path="url(#clip0_1338_4187)">
<path d="M13.25 1H9.4045L8.975 0.138254C8.93244 0.0530976 8.84522 -0.000527339 8.75 3.91118e-06H6.25C6.15525 -2.73388e-05 6.06859 0.0535039 6.02625 0.138254L5.5955 1H1.75C1.61194 1 1.5 1.11194 1.5 1.25V2.75C1.5 2.88807 1.61194 3 1.75 3H2.27925L3.752 14.781C3.76763 14.9061 3.87394 15 4 15H11C11.1261 15 11.2324 14.9061 11.248 14.781L12.7207 3H13.25C13.3881 3 13.5 2.88807 13.5 2.75V1.25C13.5 1.11194 13.3881 1 13.25 1ZM6.4045 0.500004H8.5955L8.8455 1H6.1545L6.4045 0.500004ZM10.7795 14.5H4.22075L2.78325 3H12.2168L10.7795 14.5ZM13 2.5H2V1.5H13V2.5Z" fill="white"/>
<path d="M5.51758 12.7811C5.53321 12.9062 5.63952 13 5.76558 13.0001C5.77602 13 5.78646 12.9994 5.79683 12.9981C5.93377 12.9809 6.03093 12.856 6.01383 12.7191L5.01383 4.71908C4.99671 4.58205 4.87174 4.48483 4.73471 4.50196C4.59767 4.51908 4.50046 4.64405 4.51758 4.78108L5.51758 12.7811Z" fill="white"/>
<path d="M9.20333 12.9981C9.2137 12.9994 9.22414 13 9.23458 13.0001C9.36064 13 9.46695 12.9062 9.48258 12.7811L10.4826 4.78108C10.4997 4.64405 10.4025 4.51908 10.2655 4.50196C10.1284 4.48483 10.0035 4.58205 9.98633 4.71908L8.98633 12.7191C8.96923 12.856 9.06639 12.9809 9.20333 12.9981Z" fill="white"/>
<path d="M7.5 13C7.63806 13 7.75 12.8881 7.75 12.75V4.75C7.75 4.61194 7.63806 4.5 7.5 4.5C7.36194 4.5 7.25 4.61194 7.25 4.75V12.75C7.25 12.8881 7.36194 13 7.5 13Z" fill="white"/>
</g>
<defs>
<clipPath id="clip0_1338_4187">
<rect width="15" height="15" fill="white"/>
</clipPath>
</defs>
</svg>
