<svg width="50" height="50" viewBox="0 0 50 50" fill="none" xmlns="http://www.w3.org/2000/svg">
<path fill-rule="evenodd" clip-rule="evenodd" d="M28.9113 4.51932C26.3776 3.9132 23.6228 3.91281 21.0891 4.51831C21.7647 3.03284 23.2617 2 25 2C26.7387 2 28.236 3.03331 28.9113 4.51932ZM12.0677 14.9322C12.0677 9.63599 15.5215 6.27595 19.9049 4.85119C20.5331 2.62863 22.5763 1 25 1C27.4241 1 29.4677 2.62924 30.0955 4.85245C34.4787 6.27815 37.9323 9.63837 37.9323 14.9322V28.2724C37.9323 30.9774 39.2435 31.762 40.5321 32.5332C41.6458 33.1995 42.7425 33.8558 42.9615 35.7326C44.39 47.9763 5.60996 47.9763 7.03853 35.7326C7.27341 33.7195 8.51814 32.799 9.71039 31.9172C10.9159 31.0257 12.0677 30.1738 12.0677 28.2724V14.9322ZM24.5597 48.9998C22.4322 48.9998 20.5979 47.7449 19.7564 45.935H29.363C28.5215 47.7449 26.6871 48.9998 24.5597 48.9998Z" fill="url(#paint0_linear_1972_5402)"/>
  <defs>
    <linearGradient id="paint0_linear_1972_5402" x1="6.95527" y1="14.2766" x2="47.3647" y2="17.7658" gradientUnits="userSpaceOnUse">
      <stop stop-color="#99660A"/>
      <stop offset="0.204906" stop-color="#F2DB51"/>
      <stop offset="0.638605" stop-color="#F2DB51"/>
      <stop offset="1" stop-color="#99660A"/>
    </linearGradient>
  </defs>
</svg>
