<svg width="50" height="50" viewBox="0 0 50 50" fill="none" xmlns="http://www.w3.org/2000/svg">
<path fill-rule="evenodd" clip-rule="evenodd" d="M25.0778 17.2414C29.9093 17.2414 33.8259 13.3818 33.8259 8.62069C33.8259 3.85961 29.9093 0 25.0778 0C20.2464 0 16.3298 3.85961 16.3298 8.62069C16.3298 13.3818 20.2464 17.2414 25.0778 17.2414ZM34.8037 20.6897H30.4608L26.6198 31.6082C27.1048 32.0295 27.4107 32.6462 27.4107 33.3333V35.0575C27.4107 36.3271 26.3663 37.3563 25.0779 37.3563C23.7895 37.3563 22.7451 36.3271 22.7451 35.0575V33.3333C22.7451 32.6711 23.0292 32.0742 23.484 31.6547L19.6266 20.6897H13.997L13.9986 20.7164C13.4343 20.7883 12.8861 21.0045 12.4138 21.3629L2.03743 29.2363C1.65908 29.5234 1.36886 29.8811 1.17092 30.2759C1.0619 30.3655 0.957045 30.4636 0.857149 30.5704C-0.0941984 31.5865 -0.272194 33.0913 0.416457 34.2959L8.29342 48.0741C8.94341 49.2111 10.3829 49.6475 11.569 49.0672C12.7652 48.4819 13.2796 47.0708 12.7347 45.8693L6.95013 33.1136L14.4273 27.8987L15.7466 50H34.4092L35.7275 27.9155L43.0499 33.0225L37.2653 45.7781C36.7204 46.9796 37.2348 48.3908 38.431 48.976C39.6171 49.5563 41.0566 49.1199 41.7066 47.9829L49.5835 34.2047C50.2722 33.0001 50.0942 31.4954 49.1429 30.4792C49.043 30.3725 48.9381 30.2744 48.8291 30.1847C48.6311 29.7899 48.3409 29.4322 47.9626 29.1451L37.5862 21.2717C36.7805 20.6604 35.7539 20.4627 34.8037 20.6897ZM28.3563 20.6897L25.0437 30.1061L21.7311 20.6897H28.3563Z" fill="url(#paint0_linear_969_567)"/>
<defs>
<linearGradient id="paint0_linear_969_567" x1="-0.0621283" y1="13.8298" x2="55.7409" y2="20.2544" gradientUnits="userSpaceOnUse">
<stop stop-color="#99660A"/>
<stop offset="0.204906" stop-color="#F2DB51"/>
<stop offset="0.638605" stop-color="#F2DB51"/>
<stop offset="1" stop-color="#99660A"/>
</linearGradient>
</defs>
</svg>
