<svg width="50" height="50" viewBox="0 0 50 50" fill="none" xmlns="http://www.w3.org/2000/svg">
<path fill-rule="evenodd" clip-rule="evenodd" d="M12 1H9V3H3H1V5V45V47H3H47H49V45V21H47V45H3V14H47H48H49V5V3H47H35V1H32V3H27V1H24V3H19V1H16V7H19V5H24V7H27V5H32V7H35V5H47V11H3V5H9V7H12V1ZM20.4659 38.5824C21.4602 39.0199 22.5938 39.2386 23.8665 39.2386C25.1733 39.2386 26.3324 39.017 27.3438 38.5739C28.3551 38.1307 29.1477 37.5227 29.7216 36.75C30.3011 35.9773 30.5881 35.0938 30.5824 34.0994C30.5881 33.0142 30.2528 32.1108 29.5767 31.3892C28.9062 30.6619 27.929 30.2159 26.6449 30.0511V29.9148C27.6222 29.7386 28.4148 29.3239 29.0227 28.6705C29.6364 28.017 29.9403 27.2017 29.9347 26.2244C29.9403 25.304 29.6903 24.4744 29.1847 23.7358C28.6847 22.9915 27.983 22.4006 27.0795 21.9631C26.1761 21.5256 25.1222 21.3068 23.9176 21.3068C22.7244 21.3068 21.6534 21.5256 20.7045 21.9631C19.7614 22.3949 19.0114 22.9943 18.4545 23.7614C17.8977 24.5284 17.6108 25.4148 17.5938 26.4205H21.1307C21.1477 25.9773 21.2812 25.5909 21.5312 25.2614C21.7812 24.9318 22.1136 24.679 22.5284 24.5028C22.9432 24.321 23.4006 24.2301 23.9006 24.2301C24.3949 24.2301 24.8267 24.3239 25.196 24.5114C25.571 24.6989 25.8608 24.9602 26.0653 25.2955C26.2756 25.625 26.3807 26.0085 26.3807 26.446C26.3807 26.9062 26.2614 27.3097 26.0227 27.6562C25.7841 27.9972 25.4489 28.2642 25.017 28.4574C24.5909 28.6506 24.0994 28.7472 23.5426 28.7472H21.9148V31.4574H23.5426C24.2017 31.4574 24.7699 31.5597 25.2472 31.7642C25.7301 31.9688 26.0994 32.2528 26.3551 32.6165C26.6165 32.9744 26.7472 33.3864 26.7472 33.8523C26.7472 34.3125 26.625 34.7188 26.3807 35.071C26.1364 35.4233 25.7983 35.6989 25.3665 35.8977C24.9347 36.0966 24.4375 36.196 23.875 36.196C23.3352 36.196 22.8494 36.108 22.4176 35.9318C21.9858 35.7557 21.6392 35.5085 21.3778 35.1903C21.1222 34.8665 20.983 34.4915 20.9602 34.0653H17.2443C17.2614 35.0824 17.554 35.9801 18.1222 36.7585C18.696 37.5312 19.4773 38.1392 20.4659 38.5824Z" fill="url(#paint0_linear_487_1625)"/>
<defs>
<linearGradient id="paint0_linear_487_1625" x1="0.940357" y1="13.7234" x2="54.449" y2="20.1517" gradientUnits="userSpaceOnUse">
<stop stop-color="#99660A"/>
<stop offset="0.204906" stop-color="#F2DB51"/>
<stop offset="0.638605" stop-color="#F2DB51"/>
<stop offset="1" stop-color="#99660A"/>
</linearGradient>
</defs>
</svg>
