<svg width="25" height="25" viewBox="0 0 25 25" fill="none" xmlns="http://www.w3.org/2000/svg">
<path d="M24.5033 11.7804C21.8582 6.20843 17.8598 3.4043 12.4999 3.4043C7.13719 3.4043 3.14166 6.20843 0.496569 11.7832C0.390473 12.0079 0.335449 12.2532 0.335449 12.5017C0.335449 12.7501 0.390473 12.9955 0.496569 13.2201C3.14166 18.7921 7.13998 21.5963 12.4999 21.5963C17.8626 21.5963 21.8582 18.7921 24.5033 13.2174C24.7181 12.7653 24.7181 12.2408 24.5033 11.7804V11.7804ZM12.4999 19.5873C7.99936 19.5873 4.70416 17.305 2.37994 12.5003C4.70416 7.69559 7.99936 5.41323 12.4999 5.41323C17.0005 5.41323 20.2957 7.69559 22.6199 12.5003C20.2985 17.305 17.0033 19.5873 12.4999 19.5873ZM12.3883 7.58956C9.67626 7.58956 7.4776 9.78823 7.4776 12.5003C7.4776 15.2123 9.67626 17.411 12.3883 17.411C15.1004 17.411 17.299 15.2123 17.299 12.5003C17.299 9.78823 15.1004 7.58956 12.3883 7.58956ZM12.3883 15.6253C10.6612 15.6253 9.26331 14.2274 9.26331 12.5003C9.26331 10.7732 10.6612 9.37528 12.3883 9.37528C14.1154 9.37528 15.5133 10.7732 15.5133 12.5003C15.5133 14.2274 14.1154 15.6253 12.3883 15.6253Z" fill="#888888"/>
<line x1="21.6148" y1="2.84197" x2="2.80639" y2="22.9042" stroke="#888888"/>
</svg>
