<svg width="31" height="30" viewBox="0 0 31 30" fill="none" xmlns="http://www.w3.org/2000/svg">
<g clip-path="url(#clip0_1915_7910)">
<path d="M21.4996 8.98312L25.8637 17.902L29.5092 16.1181L25.1451 7.19931L21.4996 8.98312Z" fill="url(#paint0_linear_1915_7910)"/>
<path d="M25.1381 18.3292L23.8218 19.5414C22.6279 20.6373 21.281 21.5618 19.8239 22.272L12.8383 25.6882C12.5322 25.8413 12.1588 25.7127 12.0057 25.4005C11.8527 25.0944 11.9812 24.7209 12.2935 24.5679L12.3792 24.525L16.1995 22.6577C16.475 22.523 16.5913 22.1924 16.4566 21.9169C16.322 21.6414 15.9913 21.5251 15.7158 21.6598L11.8955 23.5271L9.9731 24.4699C9.66699 24.623 9.29352 24.4944 9.14046 24.1822C9.067 24.0352 9.05475 23.8638 9.10985 23.7107C9.16496 23.5516 9.27516 23.4291 9.42209 23.3556L15.024 20.6128C15.2995 20.4781 15.4158 20.1475 15.2812 19.872C15.1465 19.5965 14.8159 19.4802 14.5404 19.6149L10.3833 21.6536L10.2241 21.7332L8.24048 22.7067C8.09355 22.7801 7.92212 22.7924 7.76907 22.7373C7.60989 22.6822 7.48744 22.572 7.41397 22.425C7.26091 22.1189 7.38948 21.7455 7.70172 21.5924L8.38742 21.2557L9.78943 20.57L10.1813 20.3802L13.4016 18.8006C13.6771 18.6659 13.7934 18.3353 13.6587 18.0598C13.524 17.7843 13.1934 17.668 12.9179 17.8027L7.90376 20.2577C7.59764 20.4047 7.22418 20.2822 7.07112 19.97C6.99765 19.8231 6.98541 19.6516 7.04051 19.4986C7.09561 19.3394 7.20581 19.2169 7.35275 19.1435L10.016 17.8394C10.2915 17.7047 10.4078 17.3741 10.2731 17.0986C10.1384 16.8231 9.8078 16.7068 9.5323 16.8415L6.86908 18.1455C6.45277 18.3476 6.14053 18.7027 5.99359 19.1374C5.84666 19.572 5.87114 20.0435 6.07318 20.4598C6.20175 20.7169 6.38542 20.9312 6.60582 21.0904C6.22012 21.5985 6.12216 22.2965 6.42215 22.9087C6.62419 23.325 6.97929 23.6373 7.41397 23.7842C7.59764 23.8454 7.78131 23.876 7.96498 23.876C7.95886 24.1515 8.01396 24.427 8.14253 24.6781C8.44252 25.2903 9.06088 25.6454 9.6976 25.6454C9.95473 25.6454 10.2119 25.5903 10.4568 25.4678L10.8486 25.2781C10.867 25.4862 10.9221 25.6882 11.0139 25.8842C11.3139 26.4964 11.9322 26.8515 12.569 26.8515C12.8261 26.8515 13.0832 26.7964 13.3281 26.6739L20.3137 23.2577C21.8688 22.4985 23.3014 21.5189 24.5748 20.3496L26.136 18.9108L29.7115 17.1599C29.987 17.0252 30.1033 16.6946 29.9686 16.419L25.5973 7.51107C25.5299 7.37638 25.4197 7.27842 25.2789 7.22944C25.1381 7.18046 24.985 7.19271 24.8565 7.25393L21.2076 9.03553C20.9321 9.17022 20.8157 9.50082 20.9504 9.77633L25.1381 18.3292ZM24.8442 8.49676L28.7197 16.4252L26.0687 17.7231L22.1933 9.79469L24.8442 8.49676Z" fill="url(#paint1_linear_1915_7910)"/>
<path d="M4.87873 7.7562L1.65742 17.149L5.49681 18.4658L8.71811 9.07293L4.87873 7.7562Z" fill="url(#paint2_linear_1915_7910)"/>
<path d="M11.5072 8.55124L11.1337 8.73491C10.6684 8.96144 10.1235 8.99205 9.63986 8.82062L9.01538 8.60022C8.97865 8.57573 8.94192 8.55736 8.90518 8.54512L5.06036 7.22882C4.77261 7.13086 4.45425 7.28392 4.3563 7.57167L1.12983 16.9694C1.08085 17.1102 1.0931 17.2633 1.15432 17.3919C1.21554 17.5204 1.33187 17.6245 1.47268 17.6735L5.31138 18.9898C5.3726 19.0082 5.43382 19.0204 5.48893 19.0204C5.72157 19.0204 5.93586 18.8735 6.01545 18.647L9.05824 9.79407L9.2664 9.86754C10.0317 10.1369 10.8888 10.0879 11.6235 9.73285L11.997 9.54918C12.4561 9.32265 12.9949 9.29204 13.4786 9.45734L20.5376 11.8879C20.4641 12.1818 20.3172 12.5308 20.0478 12.7205C19.7478 12.9287 19.3009 12.9287 18.7131 12.7267L15.5663 11.6491C15.4193 11.6002 15.2602 11.6124 15.1255 11.6859C14.9908 11.7593 14.8928 11.8879 14.85 12.0348C14.8438 12.0532 14.4092 13.6817 13.0194 14.4287C12.1439 14.9001 11.0541 14.9185 9.77455 14.4838C9.4868 14.3858 9.16844 14.5389 9.07049 14.8266C8.97253 15.1144 9.12559 15.4327 9.41333 15.5307C10.148 15.7817 10.8398 15.9103 11.4827 15.9103C12.2296 15.9103 12.9153 15.745 13.5398 15.4082C14.7826 14.7409 15.4255 13.5715 15.7193 12.8736L18.3458 13.7736C19.2825 14.0981 20.0662 14.0491 20.6723 13.6266C21.6457 12.9532 21.6947 11.5879 21.7008 11.5267C21.707 11.2818 21.5539 11.0675 21.3274 10.9879L13.8337 8.4043C13.0806 8.14717 12.2296 8.20227 11.5072 8.55124ZM5.1522 17.7592L2.36042 16.8041L5.21954 8.4594L8.01132 9.41449L5.1522 17.7592Z" fill="url(#paint3_linear_1915_7910)"/>
</g>
<defs>
<linearGradient id="paint0_linear_1915_7910" x1="1.06367" y1="12.635" x2="32.8607" y2="18.0231" gradientUnits="userSpaceOnUse">
<stop stop-color="#99660A"/>
<stop offset="0.204906" stop-color="#F2DB51"/>
<stop offset="0.638605" stop-color="#F2DB51"/>
<stop offset="1" stop-color="#99660A"/>
</linearGradient>
<linearGradient id="paint1_linear_1915_7910" x1="1.06367" y1="12.635" x2="32.8607" y2="18.0231" gradientUnits="userSpaceOnUse">
<stop stop-color="#99660A"/>
<stop offset="0.204906" stop-color="#F2DB51"/>
<stop offset="0.638605" stop-color="#F2DB51"/>
<stop offset="1" stop-color="#99660A"/>
</linearGradient>
<linearGradient id="paint2_linear_1915_7910" x1="1.06367" y1="12.635" x2="32.8607" y2="18.0231" gradientUnits="userSpaceOnUse">
<stop stop-color="#99660A"/>
<stop offset="0.204906" stop-color="#F2DB51"/>
<stop offset="0.638605" stop-color="#F2DB51"/>
<stop offset="1" stop-color="#99660A"/>
</linearGradient>
<linearGradient id="paint3_linear_1915_7910" x1="1.06367" y1="12.635" x2="32.8607" y2="18.0231" gradientUnits="userSpaceOnUse">
<stop stop-color="#99660A"/>
<stop offset="0.204906" stop-color="#F2DB51"/>
<stop offset="0.638605" stop-color="#F2DB51"/>
<stop offset="1" stop-color="#99660A"/>
</linearGradient>
<clipPath id="clip0_1915_7910">
<rect width="30" height="30" fill="white" transform="translate(0.5)"/>
</clipPath>
</defs>
</svg>
