<svg width="50" height="48" viewBox="0 0 50 48" fill="none" xmlns="http://www.w3.org/2000/svg">
<path fill-rule="evenodd" clip-rule="evenodd" d="M24.6389 0C11.0925 0 0.111084 10.7452 0.111084 24C0.111084 37.2548 11.0925 48 24.6389 48C38.1852 48 49.1666 37.2548 49.1666 24C49.1666 10.7452 38.1852 0 24.6389 0ZM19.2461 11.2773C20.6415 11.2152 21.0873 11.2 24.6401 11.2H24.636C28.1898 11.2 28.6341 11.2152 30.0294 11.2773C31.4221 11.3397 32.3732 11.5555 33.2072 11.872C34.0684 12.1987 34.7961 12.636 35.5237 13.348C36.2514 14.0595 36.6983 14.7736 37.0336 15.6155C37.3551 16.4294 37.5759 17.3595 37.6413 18.7222C37.704 20.0876 37.7203 20.5238 37.7203 24.0001C37.7203 27.4764 37.704 27.9116 37.6413 29.277C37.5759 30.6391 37.3551 31.5695 37.0336 32.3837C36.6983 33.2253 36.2514 33.9394 35.5237 34.6509C34.7969 35.3629 34.0681 35.8013 33.208 36.1283C32.3757 36.4448 31.424 36.6605 30.0313 36.7229C28.636 36.7851 28.1915 36.8003 24.6385 36.8003C21.086 36.8003 20.6404 36.7851 19.245 36.7229C17.8526 36.6605 16.9018 36.4448 16.0694 36.1283C15.2096 35.8013 14.4798 35.3629 13.7529 34.6509C13.0255 33.9394 12.5786 33.2253 12.2442 32.3834C11.9209 31.5695 11.7005 30.6394 11.6364 29.2767C11.5732 27.9114 11.5574 27.4764 11.5574 24.0001C11.5574 20.5238 11.5737 20.0873 11.6361 18.7219C11.6988 17.3598 11.9196 16.4294 12.2439 15.6152C12.5791 14.7736 13.0261 14.0595 13.7537 13.348C14.4808 12.6363 15.2107 12.1989 16.0711 11.872C16.9029 11.5555 17.8535 11.3397 19.2461 11.2773Z" fill="url(#paint0_linear_800_1746)"/>
<path fill-rule="evenodd" clip-rule="evenodd" d="M23.4666 13.5071C23.6944 13.5068 23.9396 13.5069 24.2041 13.507L24.6401 13.5071C28.1329 13.5071 28.5469 13.5194 29.9262 13.5807C31.2016 13.6378 31.8939 13.8463 32.355 14.0215C32.9655 14.2535 33.4007 14.5309 33.8583 14.9789C34.3161 15.4269 34.5996 15.8535 34.8372 16.4509C35.0163 16.9015 35.2297 17.5789 35.2877 18.8269C35.3504 20.1762 35.364 20.5816 35.364 23.9976C35.364 27.4137 35.3504 27.819 35.2877 29.1683C35.2294 30.4163 35.0163 31.0937 34.8372 31.5444C34.6001 32.1417 34.3161 32.567 33.8583 33.0148C33.4004 33.4628 32.9657 33.7401 32.355 33.9721C31.8944 34.1481 31.2016 34.3561 29.9262 34.4132C28.5471 34.4745 28.1329 34.4879 24.6401 34.4879C21.147 34.4879 20.7331 34.4745 19.354 34.4132C18.0786 34.3556 17.3863 34.1471 16.9249 33.9719C16.3145 33.7399 15.8784 33.4625 15.4206 33.0145C14.9627 32.5665 14.6793 32.1409 14.4416 31.5433C14.2626 31.0926 14.0492 30.4153 13.9911 29.1673C13.9284 27.8179 13.9159 27.4126 13.9159 23.9944C13.9159 20.5762 13.9284 20.173 13.9911 18.8237C14.0494 17.5757 14.2626 16.8983 14.4416 16.4471C14.6787 15.8498 14.9627 15.4231 15.4206 14.9751C15.8784 14.5271 16.3145 14.2498 16.9249 14.0172C17.3861 13.8412 18.0786 13.6332 19.354 13.5759C20.5608 13.5226 21.0285 13.5066 23.4666 13.5039V13.5071ZM31.6234 15.6324C30.7567 15.6324 30.0536 16.3196 30.0536 17.1679C30.0536 18.0159 30.7567 18.7039 31.6234 18.7039C32.49 18.7039 33.1932 18.0159 33.1932 17.1679C33.1932 16.3198 32.49 15.6318 31.6234 15.6318V15.6324ZM17.9218 24.0006C17.9218 20.3706 20.9296 17.4274 24.6394 17.4272C28.3494 17.4272 31.3566 20.3705 31.3566 24.0006C31.3566 27.6308 28.3497 30.5727 24.6397 30.5727C20.9297 30.5727 17.9218 27.6308 17.9218 24.0006Z" fill="url(#paint1_linear_800_1746)"/>
<path d="M24.6406 19.7334C27.0487 19.7334 29.0011 21.6436 29.0011 24.0001C29.0011 26.3564 27.0487 28.2668 24.6406 28.2668C22.2322 28.2668 20.28 26.3564 20.28 24.0001C20.28 21.6436 22.2322 19.7334 24.6406 19.7334Z" fill="url(#paint2_linear_800_1746)"/>
<defs>
<linearGradient id="paint0_linear_800_1746" x1="0.0501292" y1="13.2766" x2="54.7672" y2="19.7147" gradientUnits="userSpaceOnUse">
<stop stop-color="#99660A"/>
<stop offset="0.204906" stop-color="#F2DB51"/>
<stop offset="0.638605" stop-color="#F2DB51"/>
<stop offset="1" stop-color="#99660A"/>
</linearGradient>
<linearGradient id="paint1_linear_800_1746" x1="13.8892" y1="19.308" x2="37.8126" y2="22.1232" gradientUnits="userSpaceOnUse">
<stop stop-color="#99660A"/>
<stop offset="0.204906" stop-color="#F2DB51"/>
<stop offset="0.638605" stop-color="#F2DB51"/>
<stop offset="1" stop-color="#99660A"/>
</linearGradient>
<linearGradient id="paint2_linear_800_1746" x1="20.2692" y1="22.0937" x2="29.9968" y2="23.2383" gradientUnits="userSpaceOnUse">
<stop stop-color="#99660A"/>
<stop offset="0.204906" stop-color="#F2DB51"/>
<stop offset="0.638605" stop-color="#F2DB51"/>
<stop offset="1" stop-color="#99660A"/>
</linearGradient>
</defs>
</svg>
