<svg width="50" height="50" viewBox="0 0 50 50" fill="none" xmlns="http://www.w3.org/2000/svg">
<path fill-rule="evenodd" clip-rule="evenodd" d="M11 15C9.89543 15 9 15.8954 9 17V33C9 34.1046 9.89543 35 11 35H39C40.1046 35 41 34.1046 41 33V17C41 15.8954 40.1046 15 39 15H11ZM11 33V19.6824L23.9632 27.5409C24.6004 27.9272 25.3996 27.9272 26.0368 27.5409L39 19.6824V33H11ZM11.2581 17.5L25 25.8306L38.7419 17.5H11.2581Z" fill="url(#paint0_linear_497_1862)"/>
<path fill-rule="evenodd" clip-rule="evenodd" d="M50 25C50 38.8071 38.8071 50 25 50C11.1929 50 0 38.8071 0 25C0 11.1929 11.1929 0 25 0C38.8071 0 50 11.1929 50 25ZM48 25C48 37.7025 37.7025 48 25 48C12.2975 48 2 37.7025 2 25C2 12.2975 12.2975 2 25 2C37.7025 2 48 12.2975 48 25Z" fill="url(#paint1_linear_497_1862)"/>
<defs>
<linearGradient id="paint0_linear_497_1862" x1="-0.0621283" y1="13.8298" x2="55.7409" y2="20.2544" gradientUnits="userSpaceOnUse">
<stop stop-color="#99660A"/>
<stop offset="0.204906" stop-color="#F2DB51"/>
<stop offset="0.638605" stop-color="#F2DB51"/>
<stop offset="1" stop-color="#99660A"/>
</linearGradient>
<linearGradient id="paint1_linear_497_1862" x1="-0.0621283" y1="13.8298" x2="55.7409" y2="20.2544" gradientUnits="userSpaceOnUse">
<stop stop-color="#99660A"/>
<stop offset="0.204906" stop-color="#F2DB51"/>
<stop offset="0.638605" stop-color="#F2DB51"/>
<stop offset="1" stop-color="#99660A"/>
</linearGradient>
</defs>
</svg>
