<svg width="18" height="20" viewBox="0 0 18 20" fill="none" xmlns="http://www.w3.org/2000/svg">
<path fill-rule="evenodd" clip-rule="evenodd" d="M16.9551 4.17517L16.9728 4.15562L16.9769 4.15122C17.747 3.28555 17.7213 1.99626 16.9138 1.25735C16.1133 0.524852 14.8422 0.605568 14.0466 1.42891L14.0337 1.44231C14.0237 1.4529 14.0137 1.46362 14.0038 1.47445L1.14097 15.3201L1.14521 15.3241L0.00292969 19.4928L4.06795 18.0394L4.07149 18.0427L4.07784 18.0358L4.08194 18.0344L4.08047 18.033L16.9551 4.17517ZM15.5636 4.20323L14.0984 2.84197L2.55423 15.2681L4.01949 16.6294L15.5636 4.20323Z" fill="url(#paint0_linear_1361_3302)"/>
<defs>
<linearGradient id="paint0_linear_1361_3302" x1="-0.018858" y1="5.93842" x2="19.5825" y2="8.05029" gradientUnits="userSpaceOnUse">
<stop stop-color="#99660A"/>
<stop offset="0.204906" stop-color="#F2DB51"/>
<stop offset="0.638605" stop-color="#F2DB51"/>
<stop offset="1" stop-color="#99660A"/>
</linearGradient>
</defs>
</svg>
