<svg width="37" height="48" viewBox="0 0 37 48" fill="none" xmlns="http://www.w3.org/2000/svg">
<path fill-rule="evenodd" clip-rule="evenodd" d="M29.503 4.40981C29.4208 4.3524 29.3339 4.28517 29.2428 4.20652C28.7066 3.74353 28.0171 2.87946 27.253 1.25787C27.2349 1.21953 27.2171 1.1815 27.1997 1.14377C26.4593 1.86971 26 2.88122 26 4C26 5.44095 26.7619 6.70395 27.9049 7.40807C28.9412 6.09107 29.317 5.22638 29.4457 4.72507C29.4789 4.59576 29.4955 4.49131 29.503 4.40981ZM30 0C29.2784 0 28.6014 0.191082 28.0169 0.525407C28.0613 0.624727 28.1081 0.72677 28.1575 0.831595C28.8637 2.33009 29.464 3.06374 29.8604 3.41804C30.0041 3.29822 30.2052 3.16732 30.4846 3.04312C31.0963 2.77124 32.0903 2.52828 33.7102 2.50231C33.1174 1.03517 31.6796 0 30 0ZM30.8908 3.95693C31.3654 3.74596 32.2816 3.503 33.9691 3.50005C33.9895 3.66383 34 3.83069 34 4C34 6.20914 32.2091 8 30 8C29.5977 8 29.2093 7.94062 28.8431 7.83014C29.8234 6.54818 30.2482 5.62068 30.4143 4.9737C30.5 4.63993 30.5172 4.37894 30.5046 4.18292C30.5716 4.12767 30.6914 4.04551 30.8908 3.95693ZM5.78413 13.1694C4.76022 12.9667 4.09454 11.9723 4.29729 10.9484L6.13461 1.66968C6.33737 0.645772 7.33177 -0.0199079 8.35568 0.182843C9.37959 0.385593 10.0453 1.38 9.84252 2.40391L8.33791 10.0024L15.3898 12.9684L26.6502 10.8789C26.7787 10.8551 26.9065 10.8451 27.0322 10.8481L34.2034 7.86327C35.0933 7.49287 36.115 7.91402 36.4854 8.80395C36.8558 9.69387 36.4347 10.7156 35.5447 11.086L28.049 14.2059C27.8385 14.354 27.5936 14.4602 27.324 14.5102L22.557 15.3948V25.2649C22.557 25.4256 22.5189 25.5782 22.4508 25.7135L22.6382 36.4795C22.6419 36.6914 22.5794 36.889 22.4698 37.0527C22.4016 37.3161 22.2722 37.5679 22.08 37.786L13.8687 47.105C13.2152 47.8466 12.0843 47.9181 11.3427 47.2646C10.601 46.6111 10.5296 45.4802 11.183 44.7386L18.2357 36.7344C18.2243 36.6768 18.2179 36.6173 18.2168 36.5565L18.0439 26.6213L17.1615 26.7095L13.322 34.9511C13.2725 35.0574 13.2067 35.1509 13.129 35.23C12.9513 35.4824 12.7062 35.6925 12.405 35.8297L3.12624 40.0571C2.22283 40.4687 1.15681 40.07 0.745218 39.1666C0.333624 38.2632 0.732318 37.1972 1.63573 36.7856L9.37337 33.2603C9.3866 33.2178 9.40281 33.1758 9.42211 33.1343L12.5909 26.3325C12.5678 26.2489 12.5553 26.1609 12.5549 26.0697L12.5108 16.0336L6.26752 13.4077C6.12424 13.3474 5.99181 13.2722 5.87129 13.1846C5.84227 13.1802 5.81321 13.1752 5.78413 13.1694ZM21 7C21 9.20914 19.2091 11 17 11C14.7909 11 13 9.20914 13 7C13 4.79086 14.7909 3 17 3C19.2091 3 21 4.79086 21 7Z" fill="url(#paint0_linear_1577_1565)"/>
<defs>
<linearGradient id="paint0_linear_1577_1565" x1="0.53823" y1="13.1968" x2="40.9848" y2="16.714" gradientUnits="userSpaceOnUse">
<stop stop-color="#99660A"/>
<stop offset="0.204906" stop-color="#F2DB51"/>
<stop offset="0.638605" stop-color="#F2DB51"/>
<stop offset="1" stop-color="#99660A"/>
</linearGradient>
</defs>
</svg>
