<svg width="50" height="49" viewBox="0 0 50 49" fill="none" xmlns="http://www.w3.org/2000/svg">
<mask id="path-1-inside-1_982_13" fill="white">
<path fill-rule="evenodd" clip-rule="evenodd" d="M25 0C11.1929 0 0 10.969 0 24.5C0 38.031 11.1929 49 25 49C38.8071 49 50 38.031 50 24.5C50 10.969 38.8071 0 25 0ZM16.8132 12.4523C17.1173 12.4055 17.4181 12.3593 17.6786 12.3C17.9822 12.275 18.2424 12.3475 18.4107 12.62C18.4404 12.6672 18.4702 12.7144 18.4999 12.7616C18.848 13.3145 19.1967 13.8684 19.5281 14.435C19.768 14.8447 19.9969 15.261 20.226 15.6777C20.3939 15.9832 20.5621 16.289 20.7347 16.5926C20.8016 16.7156 20.8851 16.8315 20.9687 16.9474C21.0158 17.0129 21.063 17.0783 21.1072 17.1451C21.2137 17.3111 21.3156 17.4817 21.4151 17.6481L21.4312 17.6751C21.6455 18.0726 21.6353 18.4726 21.3164 18.7901C20.9807 19.1265 20.62 19.445 20.2599 19.763C20.1328 19.8752 20.0059 19.9873 19.8801 20.1001C19.7238 20.2407 19.5652 20.3791 19.4067 20.5173C19.1564 20.7356 18.9063 20.9536 18.6658 21.1802C18.3597 21.4702 18.2806 21.8327 18.4873 22.2152C18.5064 22.2503 18.5255 22.2854 18.5446 22.3204C18.8442 22.8703 19.1434 23.4195 19.472 23.9577C20.7679 26.0752 22.4236 27.8753 24.5154 29.2628C25.3216 29.8003 26.1609 30.2928 27.0078 30.7628C27.8063 31.2053 28.1175 31.1303 28.7374 30.4528C29.0649 30.0964 29.3857 29.7368 29.707 29.3768C29.9514 29.1028 30.1961 28.8286 30.4441 28.5553C30.5819 28.4028 30.7477 28.2678 30.9084 28.1378C31.2349 27.8678 31.5921 27.8378 31.9671 28.0228C31.9906 28.034 32.0145 28.045 32.0385 28.056C32.1211 28.094 32.2046 28.1324 32.2758 28.1828C32.941 28.6491 33.6587 29.0239 34.3754 29.3981C34.7307 29.5836 35.0857 29.769 35.434 29.9653C35.793 30.1675 36.1459 30.3788 36.4978 30.5896C36.6985 30.7098 36.8988 30.8298 37.0998 30.9478C37.3983 31.1203 37.5182 31.3728 37.4978 31.7203C37.4417 32.6978 37.2758 33.6579 36.6968 34.4829C36.4544 34.8254 36.11 35.1254 35.7631 35.3679C34.8013 36.0279 33.7273 36.4354 32.5844 36.6854C31.5462 36.9129 30.5104 36.8304 29.5155 36.5254C27.5946 35.9454 25.7017 35.2804 23.9593 34.2729C22.3776 33.3554 20.9388 32.2478 19.6072 31.0103C17.9209 29.4378 16.4158 27.7228 15.1989 25.7702C14.4056 24.5027 13.8392 23.1377 13.3265 21.7452C13.0152 20.9051 12.7091 20.0726 12.5713 19.1826C12.4132 18.1751 12.5229 17.2051 12.852 16.2501C13.1479 15.3876 13.5178 14.5625 14.0765 13.825C14.5153 13.2525 15.0637 12.8325 15.7729 12.645C16.0825 12.5647 16.4502 12.5082 16.8132 12.4523Z"/>
</mask>
<path d="M17.6786 12.3L17.5144 10.3067L17.3731 10.3184L17.2349 10.3498L17.6786 12.3ZM16.8132 12.4523L17.1174 14.4291L17.1174 14.4291L16.8132 12.4523ZM18.4107 12.62L16.7093 13.6713L16.7136 13.6782L16.718 13.6852L18.4107 12.62ZM18.4999 12.7616L16.8074 13.8272L16.8074 13.8272L18.4999 12.7616ZM19.5281 14.435L17.8017 15.4448L17.8023 15.4458L19.5281 14.435ZM20.226 15.6777L18.4734 16.6412L20.226 15.6777ZM20.7347 16.5926L22.4921 15.6377L22.4828 15.6206L22.4731 15.6037L20.7347 16.5926ZM20.9687 16.9474L19.3462 18.1168L19.3462 18.1168L20.9687 16.9474ZM21.1072 17.1451L22.7907 16.0653L22.7829 16.0532L22.775 16.0412L21.1072 17.1451ZM21.4151 17.6481L19.6982 18.674L19.6983 18.6741L21.4151 17.6481ZM21.4312 17.6751L23.1917 16.726L23.1707 16.6871L23.148 16.6491L21.4312 17.6751ZM21.3164 18.7901L19.9052 17.3728L19.9007 17.3773L21.3164 18.7901ZM20.2599 19.763L18.936 18.2639H18.936L20.2599 19.763ZM19.8801 20.1001L18.5447 18.6113L18.5427 18.6131L19.8801 20.1001ZM19.4067 20.5173L20.7212 22.0246L20.7212 22.0246L19.4067 20.5173ZM18.6658 21.1802L17.2946 19.7242L17.2904 19.7282L18.6658 21.1802ZM18.4873 22.2152L16.7276 23.1658L16.7312 23.1723L18.4873 22.2152ZM18.5446 22.3204L20.3009 21.3636L20.3009 21.3636L18.5446 22.3204ZM19.472 23.9577L17.7649 24.9998L17.7661 25.0017L19.472 23.9577ZM24.5154 29.2628L25.6249 27.5988L25.6209 27.5961L24.5154 29.2628ZM27.0078 30.7628L26.0373 32.5116L26.0384 32.5121L27.0078 30.7628ZM28.7374 30.4528L27.2647 29.0997L27.2619 29.1027L28.7374 30.4528ZM29.707 29.3768L31.1993 30.7083L31.1993 30.7083L29.707 29.3768ZM30.4441 28.5553L31.9252 29.8993L31.9282 29.8959L30.4441 28.5553ZM30.9084 28.1378L32.1662 29.6927L32.1746 29.686L32.1829 29.6791L30.9084 28.1378ZM31.9671 28.0228L31.0822 29.8164L31.0933 29.8218L31.1045 29.8272L31.9671 28.0228ZM32.0385 28.056L32.8739 26.2389L32.8739 26.2388L32.0385 28.056ZM32.2758 28.1828L31.1203 29.8153L31.1276 29.8204L32.2758 28.1828ZM34.3754 29.3981L33.4498 31.171L34.3754 29.3981ZM35.434 29.9653L34.4518 31.7075L34.4526 31.708L35.434 29.9653ZM36.4978 30.5896L35.4702 32.3054L35.4702 32.3054L36.4978 30.5896ZM37.0998 30.9478L36.0872 32.6726L36.099 32.6794L37.0998 30.9478ZM37.4978 31.7203L35.5012 31.6031L35.5011 31.6057L37.4978 31.7203ZM36.6968 34.4829L38.3294 35.6381L38.3337 35.6319L36.6968 34.4829ZM35.7631 35.3679L36.8947 37.0169L36.9018 37.0121L36.9089 37.0071L35.7631 35.3679ZM32.5844 36.6854L32.157 34.7316L32.1564 34.7318L32.5844 36.6854ZM29.5155 36.5254L30.1017 34.6132L30.0936 34.6108L29.5155 36.5254ZM23.9593 34.2729L22.9557 36.0029L22.9581 36.0042L23.9593 34.2729ZM19.6072 31.0103L18.2431 32.473L18.2457 32.4754L19.6072 31.0103ZM15.1989 25.7702L16.8963 24.7124L16.8942 24.7091L15.1989 25.7702ZM13.3265 21.7452L15.2033 21.0541L15.2019 21.0503L13.3265 21.7452ZM12.5713 19.1826L14.5478 18.8767L14.5471 18.8724L12.5713 19.1826ZM12.852 16.2501L14.7428 16.9016L14.7437 16.8991L12.852 16.2501ZM14.0765 13.825L12.489 12.6084L12.4822 12.6174L14.0765 13.825ZM15.7729 12.645L15.271 10.709L15.2617 10.7114L15.7729 12.645ZM2 24.5C2 12.1115 12.2592 2 25 2V-2C10.1266 -2 -2 9.82656 -2 24.5H2ZM25 47C12.2592 47 2 36.8885 2 24.5H-2C-2 39.1734 10.1266 51 25 51V47ZM48 24.5C48 36.8885 37.7408 47 25 47V51C39.8734 51 52 39.1734 52 24.5H48ZM25 2C37.7408 2 48 12.1115 48 24.5H52C52 9.82656 39.8734 -2 25 -2V2ZM17.2349 10.3498C17.0574 10.3902 16.8319 10.4259 16.5091 10.4756L17.1174 14.4291C17.4028 14.3851 17.7788 14.3283 18.1222 14.2502L17.2349 10.3498ZM20.1122 11.5688C19.81 11.0797 19.3703 10.702 18.831 10.4886C18.3291 10.2901 17.8555 10.2787 17.5144 10.3067L17.8427 14.2933C17.8053 14.2963 17.6135 14.3086 17.3597 14.2082C17.0685 14.093 16.8431 13.8878 16.7093 13.6713L20.1122 11.5688ZM20.1924 11.6961C20.1626 11.6488 20.133 11.6018 20.1035 11.5548L16.718 13.6852C16.7478 13.7326 16.7777 13.78 16.8074 13.8272L20.1924 11.6961ZM21.2545 13.4253C20.9039 12.8258 20.5376 12.2444 20.1924 11.6961L16.8074 13.8272C17.1583 14.3846 17.4895 14.911 17.8017 15.4448L21.2545 13.4253ZM21.9786 14.7141C21.7517 14.3014 21.5098 13.8613 21.2539 13.4243L17.8023 15.4458C18.0262 15.8281 18.2421 16.2205 18.4734 16.6412L21.9786 14.7141ZM22.4731 15.6037C22.3089 15.3148 22.1477 15.0218 21.9786 14.7141L18.4734 16.6412C18.6402 16.9446 18.8153 17.2632 18.9963 17.5815L22.4731 15.6037ZM22.5912 15.778C22.5463 15.7157 22.5229 15.6831 22.5036 15.6545C22.4862 15.6285 22.4854 15.6255 22.4921 15.6377L18.9774 17.5474C19.1153 17.8012 19.2762 18.0198 19.3462 18.1168L22.5912 15.778ZM22.775 16.0412C22.7051 15.9356 22.6343 15.8379 22.5912 15.778L19.3462 18.1168C19.3974 18.1878 19.4209 18.221 19.4394 18.249L22.775 16.0412ZM23.1319 16.6223C23.0352 16.4603 22.9171 16.2625 22.7907 16.0653L19.4237 18.2249C19.5103 18.3598 19.596 18.503 19.6982 18.674L23.1319 16.6223ZM23.148 16.6491L23.1319 16.6222L19.6983 18.6741L19.7144 18.7011L23.148 16.6491ZM22.7275 20.2074C23.1972 19.7398 23.5093 19.1259 23.567 18.4271C23.622 17.7602 23.4334 17.1745 23.1917 16.726L19.6707 18.6241C19.6432 18.5732 19.5567 18.3863 19.5805 18.0981C19.6069 17.7781 19.7545 17.5229 19.9052 17.3728L22.7275 20.2074ZM21.5837 21.2622C21.9355 20.9515 22.3443 20.5914 22.732 20.2029L19.9007 17.3773C19.6172 17.6615 19.3044 17.9386 18.936 18.2639L21.5837 21.2622ZM21.2156 21.5889C21.3346 21.4822 21.4557 21.3752 21.5837 21.2622L18.936 18.2639C18.8099 18.3752 18.6771 18.4925 18.5447 18.6113L21.2156 21.5889ZM20.7212 22.0246C20.8778 21.8881 21.048 21.7397 21.2176 21.5872L18.5427 18.6131C18.3997 18.7417 18.2526 18.8701 18.0921 19.01L20.7212 22.0246ZM20.0371 22.6361C20.245 22.4402 20.466 22.2472 20.7212 22.0246L18.0921 19.01C17.8468 19.224 17.5676 19.4671 17.2946 19.7242L20.0371 22.6361ZM20.2469 21.2646C20.3268 21.4124 20.4136 21.6868 20.3511 22.0256C20.2911 22.3512 20.1275 22.5504 20.0413 22.6321L17.2904 19.7282C16.898 20.0999 16.5419 20.6253 16.4174 21.3004C16.2905 21.9885 16.4411 22.6354 16.7276 23.1658L20.2469 21.2646ZM20.3009 21.3636C20.2818 21.3285 20.2626 21.2933 20.2433 21.258L16.7312 23.1723C16.7502 23.2073 16.7693 23.2422 16.7884 23.2773L20.3009 21.3636ZM21.179 22.9156C20.8804 22.4264 20.6043 21.9204 20.3009 21.3636L16.7884 23.2773C17.0842 23.8202 17.4065 24.4127 17.7649 24.9998L21.179 22.9156ZM25.6209 27.5961C23.797 26.3863 22.3378 24.809 21.1779 22.9137L17.7661 25.0017C19.198 27.3414 21.0501 29.3642 23.4099 30.9295L25.6209 27.5961ZM27.9783 29.014C27.1573 28.5584 26.3692 28.095 25.6249 27.5988L23.4059 30.9268C24.2739 31.5056 25.1644 32.0272 26.0374 32.5116L27.9783 29.014ZM27.2619 29.1027C27.138 29.2381 27.1035 29.2599 27.1278 29.242C27.1678 29.2124 27.3211 29.1092 27.5688 29.0625C27.8226 29.0146 28.0171 29.0555 28.0939 29.0781C28.1465 29.0937 28.1242 29.0949 27.9773 29.0135L26.0384 32.5121C26.4754 32.7544 27.306 33.1826 28.3104 32.9931C29.2774 32.8107 29.9031 32.1416 30.213 31.8029L27.2619 29.1027ZM28.2146 28.0453C27.8918 28.4071 27.5806 28.7558 27.2647 29.0997L30.2102 31.8059C30.5491 31.4371 30.8796 31.0666 31.1993 30.7083L28.2146 28.0453ZM28.963 27.2112C28.7084 27.4918 28.4581 27.7723 28.2146 28.0453L31.1993 30.7083C31.4447 30.4333 31.6837 30.1653 31.9252 29.8993L28.963 27.2112ZM29.6506 26.5828C29.508 26.6981 29.2193 26.9276 28.96 27.2146L31.9282 29.8959C31.9275 29.8967 31.9313 29.8925 31.9413 29.8829C31.9512 29.8732 31.9657 29.8599 31.9862 29.8419C32.031 29.8026 32.0832 29.7599 32.1662 29.6927L29.6506 26.5828ZM32.8519 26.2292C32.3971 26.0048 31.8375 25.8564 31.2158 25.92C30.5874 25.9844 30.0536 26.2494 29.6339 26.5964L32.1829 29.6791C32.0897 29.7561 31.8977 29.8711 31.6233 29.8992C31.3556 29.9267 31.162 29.8557 31.0822 29.8164L32.8519 26.2292ZM32.8739 26.2388C32.8475 26.2267 32.8374 26.222 32.8297 26.2184L31.1045 29.8272C31.1438 29.846 31.1815 29.8632 31.203 29.8732L32.8739 26.2388ZM33.4312 26.5503C33.1815 26.3736 32.9216 26.2608 32.8739 26.2389L31.203 29.8731C31.2253 29.8834 31.236 29.8884 31.245 29.8926C31.2529 29.8963 31.252 29.896 31.246 29.893C31.2398 29.8898 31.2251 29.882 31.2045 29.8699C31.1839 29.8578 31.1549 29.8397 31.1203 29.8153L33.4312 26.5503ZM35.3011 27.6252C34.5652 27.241 33.9646 26.9242 33.4239 26.5451L31.1276 29.8204C31.9174 30.3741 32.7522 30.8068 33.4498 31.171L35.3011 27.6252ZM36.4161 28.2231C36.0352 28.0083 35.6516 27.8082 35.3011 27.6252L33.4498 31.171C33.8098 31.359 34.1362 31.5296 34.4518 31.7075L36.4161 28.2231ZM37.5255 28.8738C37.1773 28.6653 36.8016 28.4402 36.4154 28.2226L34.4526 31.708C34.7845 31.8949 35.1144 32.0924 35.4702 32.3054L37.5255 28.8738ZM38.1124 29.2231C37.9202 29.1103 37.7274 28.9948 37.5255 28.8738L35.4702 32.3054C35.6695 32.4248 35.8774 32.5493 36.0872 32.6725L38.1124 29.2231ZM39.4943 31.8376C39.5196 31.4081 39.466 30.8862 39.2035 30.3666C38.9349 29.8349 38.5269 29.4626 38.1006 29.2162L36.099 32.6794C35.9712 32.6055 35.7724 32.4457 35.6333 32.1703C35.5002 31.9069 35.4964 31.6851 35.5012 31.6031L39.4943 31.8376ZM38.3337 35.6319C39.2367 34.3455 39.4316 32.9297 39.4945 31.835L35.5011 31.6057C35.4517 32.466 35.315 32.9702 35.0598 33.3338L38.3337 35.6319ZM36.9089 37.0071C37.3596 36.6921 37.9048 36.2381 38.3294 35.6381L35.0641 33.3277C35.004 33.4126 34.8604 33.5587 34.6173 33.7286L36.9089 37.0071ZM33.0118 38.6392C34.3422 38.3482 35.6715 37.8564 36.8947 37.0169L34.6314 33.7189C33.9311 34.1994 33.1124 34.5226 32.157 34.7316L33.0118 38.6392ZM28.9293 38.4376C30.2037 38.8283 31.5911 38.9505 33.0125 38.6391L32.1564 34.7318C31.5012 34.8753 30.8172 34.8326 30.1017 34.6132L28.9293 38.4376ZM22.9581 36.0042C24.9038 37.1293 26.9739 37.8472 28.9374 38.44L30.0936 34.6108C28.2153 34.0436 26.4996 33.4315 24.9605 32.5415L22.9581 36.0042ZM18.2457 32.4754C19.6675 33.7966 21.2247 34.9987 22.9557 36.0029L24.9629 32.5429C23.5306 31.712 22.2102 30.699 20.9687 29.5453L18.2457 32.4754ZM13.5016 26.8281C14.8325 28.9635 16.4615 30.8115 18.2431 32.473L20.9712 29.5476C19.3804 28.0641 17.9991 26.482 16.8963 24.7124L13.5016 26.8281ZM11.4497 22.4362C11.9768 23.8679 12.5996 25.3869 13.5037 26.8314L16.8942 24.7091C16.2116 23.6185 15.7016 22.4074 15.2033 21.0541L11.4497 22.4362ZM10.5949 19.4885C10.7683 20.6092 11.1495 21.6262 11.451 22.44L15.2019 21.0503C14.8809 20.1841 14.6499 19.5361 14.5478 18.8767L10.5949 19.4885ZM10.9611 15.5985C10.5362 16.8315 10.3819 18.1318 10.5955 19.4928L14.5471 18.8724C14.4445 18.2184 14.5095 17.5787 14.7428 16.9016L10.9611 15.5985ZM12.4822 12.6174C11.7467 13.5884 11.2928 14.6316 10.9602 15.601L14.7437 16.8991C15.003 16.1435 15.2889 15.5367 15.6707 15.0327L12.4822 12.6174ZM15.2617 10.7114C14.0423 11.0338 13.1407 11.7581 12.4891 12.6084L15.6639 15.0416C15.8898 14.7469 16.0851 14.6312 16.2841 14.5786L15.2617 10.7114ZM16.5091 10.4756C16.1737 10.5272 15.698 10.5983 15.271 10.709L16.2749 14.581C16.467 14.5312 16.7268 14.4892 17.1174 14.4291L16.5091 10.4756Z" fill="url(#paint0_linear_982_13)" mask="url(#path-1-inside-1_982_13)"/>
<defs>
<linearGradient id="paint0_linear_982_13" x1="-0.0621283" y1="13.5532" x2="55.7108" y2="20.1053" gradientUnits="userSpaceOnUse">
<stop stop-color="#99660A"/>
<stop offset="0.204906" stop-color="#F2DB51"/>
<stop offset="0.638605" stop-color="#F2DB51"/>
<stop offset="1" stop-color="#99660A"/>
</linearGradient>
</defs>
</svg>
