<svg width="50" height="49" viewBox="0 0 50 49" fill="none" xmlns="http://www.w3.org/2000/svg">
<mask id="path-1-inside-1_497_1861" fill="white">
<path fill-rule="evenodd" clip-rule="evenodd" d="M0 24.5C0 38.031 11.1929 49 25 49C38.8071 49 50 38.031 50 24.5C50 10.969 38.8071 0 25 0C11.1929 0 0 10.969 0 24.5ZM25.0289 39.2001C25.0289 39.2001 18.3178 29.364 15.9421 23.8955C15.3378 22.6208 15.0001 21.1978 15.0001 19.6967C15.0001 14.231 19.4773 9.8001 25.0001 9.8001C30.523 9.8001 35.0001 14.231 35.0001 19.6967C35.0001 20.8995 34.794 22.0522 34.3969 23.1185C32.805 27.2674 25.0289 39.2001 25.0289 39.2001Z"/>
</mask>
<path d="M15.9421 23.8955L17.7765 23.0985L17.7634 23.0684L17.7493 23.0387L15.9421 23.8955ZM25.0289 39.2001L23.3768 40.3273L25.0671 42.8047L26.7045 40.292L25.0289 39.2001ZM34.3969 23.1185L36.2642 23.835L36.2678 23.8257L36.2712 23.8164L34.3969 23.1185ZM25 47C12.2592 47 2 36.8885 2 24.5H-2C-2 39.1734 10.1266 51 25 51V47ZM48 24.5C48 36.8885 37.7408 47 25 47V51C39.8734 51 52 39.1734 52 24.5H48ZM25 2C37.7408 2 48 12.1115 48 24.5H52C52 9.82656 39.8734 -2 25 -2V2ZM2 24.5C2 12.1115 12.2592 2 25 2V-2C10.1266 -2 -2 9.82656 -2 24.5H2ZM14.1077 24.6924C15.3628 27.5815 17.7104 31.5234 19.6829 34.6626C20.6806 36.2502 21.6025 37.664 22.2749 38.6809C22.6113 39.1896 22.8857 39.5997 23.0765 39.8832C23.1719 40.025 23.2464 40.1353 23.2974 40.2104C23.3229 40.248 23.3424 40.2768 23.3558 40.2964C23.3625 40.3063 23.3676 40.3138 23.3711 40.3189C23.3729 40.3215 23.3742 40.3235 23.3752 40.3249C23.3756 40.3256 23.376 40.3262 23.3763 40.3266C23.3764 40.3268 23.3766 40.3269 23.3766 40.327C23.3767 40.3272 23.3768 40.3273 25.0289 39.2001C26.681 38.0729 26.681 38.0729 26.681 38.0729C26.681 38.0729 26.681 38.0728 26.6809 38.0727C26.6807 38.0725 26.6805 38.0722 26.6802 38.0717C26.6795 38.0707 26.6784 38.0691 26.6769 38.067C26.674 38.0626 26.6694 38.056 26.6634 38.047C26.6512 38.0291 26.6328 38.002 26.6085 37.9662C26.56 37.8946 26.488 37.7881 26.3953 37.6503C26.2097 37.3746 25.9413 36.9735 25.6114 36.4746C24.9513 35.4763 24.0469 34.0893 23.0698 32.5344C21.0929 29.3883 18.897 25.678 17.7765 23.0985L14.1077 24.6924ZM13.0001 19.6967C13.0001 21.5008 13.4066 23.2159 14.1349 24.7522L17.7493 23.0387C17.2691 22.0257 17.0001 20.8948 17.0001 19.6967H13.0001ZM25.0001 7.8001C18.3924 7.8001 13.0001 13.1069 13.0001 19.6967H17.0001C17.0001 15.3551 20.5622 11.8001 25.0001 11.8001V7.8001ZM37.0001 19.6967C37.0001 13.1069 31.6079 7.8001 25.0001 7.8001V11.8001C29.4381 11.8001 33.0001 15.3551 33.0001 19.6967H37.0001ZM36.2712 23.8164C36.7543 22.519 37.0001 21.1293 37.0001 19.6967H33.0001C33.0001 20.6697 32.8336 21.5854 32.5226 22.4207L36.2712 23.8164ZM25.0289 39.2001C26.7045 40.292 26.7046 40.2919 26.7047 40.2918C26.7047 40.2917 26.7049 40.2915 26.705 40.2913C26.7053 40.2908 26.7057 40.2902 26.7062 40.2894C26.7072 40.2878 26.7087 40.2855 26.7107 40.2825C26.7146 40.2765 26.7204 40.2676 26.728 40.2559C26.7432 40.2326 26.7655 40.1982 26.7946 40.1534C26.8527 40.0637 26.9379 39.9322 27.0467 39.7635C27.2643 39.4263 27.5764 38.9407 27.9556 38.3453C28.7138 37.155 29.7423 35.5232 30.8218 33.7591C32.934 30.3078 35.3886 26.117 36.2642 23.835L32.5297 22.4021C31.8133 24.269 29.5839 28.119 27.41 31.6712C26.3466 33.4089 25.3315 35.0195 24.5819 36.1963C24.2073 36.7844 23.8995 37.2634 23.6855 37.595C23.5786 37.7608 23.4952 37.8896 23.4386 37.9768C23.4104 38.0203 23.3889 38.0535 23.3745 38.0756C23.3673 38.0866 23.3619 38.0949 23.3584 38.1004C23.3566 38.1031 23.3553 38.1051 23.3544 38.1064C23.354 38.1071 23.3537 38.1075 23.3535 38.1078C23.3534 38.108 23.3533 38.1081 23.3533 38.1081C23.3533 38.1082 23.3533 38.1082 25.0289 39.2001Z" fill="url(#paint0_linear_497_1861)" mask="url(#path-1-inside-1_497_1861)"/>
<path d="M29.8337 19.5995C29.8337 22.1855 27.6888 24.3161 25.0003 24.3161C22.3118 24.3161 20.167 22.1855 20.167 19.5995C20.167 17.0135 22.3118 14.8828 25.0003 14.8828C27.6888 14.8828 29.8337 17.0135 29.8337 19.5995Z" stroke="url(#paint1_linear_497_1861)" stroke-width="2"/>
<defs>
<linearGradient id="paint0_linear_497_1861" x1="-0.0621283" y1="13.5532" x2="55.7108" y2="20.1053" gradientUnits="userSpaceOnUse">
<stop stop-color="#99660A"/>
<stop offset="0.204906" stop-color="#F2DB51"/>
<stop offset="0.638605" stop-color="#F2DB51"/>
<stop offset="1" stop-color="#99660A"/>
</linearGradient>
<linearGradient id="paint1_linear_497_1861" x1="19.1525" y1="17.0452" x2="32.1662" y2="18.5741" gradientUnits="userSpaceOnUse">
<stop stop-color="#99660A"/>
<stop offset="0.204906" stop-color="#F2DB51"/>
<stop offset="0.638605" stop-color="#F2DB51"/>
<stop offset="1" stop-color="#99660A"/>
</linearGradient>
</defs>
</svg>
