<svg width="14" height="14" viewBox="0 0 14 14" fill="none" xmlns="http://www.w3.org/2000/svg">
<path fill-rule="evenodd" clip-rule="evenodd" d="M13.2618 6.95924L9.58696 4.47728L10.9118 3.87328C10.6087 3.32547 10.1895 2.8384 9.67589 2.44518C8.82947 1.79717 7.77694 1.44253 6.69106 1.43949C5.60519 1.43645 4.55049 1.78518 3.70008 2.42845C2.84968 3.07171 2.25411 3.97129 2.01113 4.97951L0.538417 4.65741C0.858092 3.33096 1.64165 2.14744 2.76047 1.30114C3.87929 0.454831 5.26689 -0.00397566 6.69551 2.59557e-05C8.12412 0.00402757 9.50887 0.4706 10.6224 1.32316C11.3136 1.85231 11.8748 2.51065 12.2756 3.25154L13.5381 2.67598L13.2618 6.95924ZM0.276314 6.04127L3.95113 8.52324L2.62625 9.12724C2.9294 9.67504 3.34859 10.1621 3.8622 10.5553C4.70862 11.2034 5.76115 11.558 6.84702 11.561C7.9329 11.5641 8.9876 11.2153 9.838 10.5721C10.6884 9.9288 11.284 9.02923 11.527 8.021L12.9997 8.3431C12.68 9.66956 11.8964 10.8531 10.7776 11.6994C9.6588 12.5457 8.2712 13.0045 6.84258 13.0005C5.41396 12.9965 4.02921 12.5299 2.91564 11.6774C2.22448 11.1482 1.66327 10.4899 1.26248 9.74898L0 10.3245L0.276314 6.04127Z" fill="url(#paint0_linear_2337_6130)"/>
<defs>
<linearGradient id="paint0_linear_2337_6130" x1="-0.016822" y1="3.59589" x2="15.0758" y2="5.40535" gradientUnits="userSpaceOnUse">
<stop stop-color="#99660A"/>
<stop offset="0.204906" stop-color="#F2DB51"/>
<stop offset="0.638605" stop-color="#F2DB51"/>
<stop offset="1" stop-color="#99660A"/>
</linearGradient>
</defs>
</svg>
