<svg width="31" height="30" viewBox="0 0 31 30" fill="none" xmlns="http://www.w3.org/2000/svg">
<path fill-rule="evenodd" clip-rule="evenodd" d="M14.2655 0.3464C15.0237 -0.115467 15.9763 -0.115467 16.7345 0.3464L18.4542 1.39406C18.8423 1.6305 19.2902 1.7505 19.7445 1.7398L21.7577 1.69238C22.6453 1.67148 23.4702 2.14777 23.8959 2.92684L24.8614 4.69402C25.0793 5.09284 25.4072 5.4207 25.806 5.6386L27.5732 6.60413C28.3522 7.02979 28.8285 7.85474 28.8076 8.74227L28.7602 10.7555C28.7495 11.2098 28.8695 11.6577 29.1059 12.0458L30.1536 13.7655C30.6155 14.5237 30.6155 15.4763 30.1536 16.2345L29.1059 17.9542C28.8695 18.3423 28.7495 18.7902 28.7602 19.2445L28.8076 21.2577C28.8285 22.1453 28.3522 22.9702 27.5732 23.3959L25.806 24.3614C25.4072 24.5793 25.0793 24.9072 24.8614 25.306L23.8959 27.0732C23.4702 27.8522 22.6453 28.3285 21.7577 28.3076L19.7445 28.2602C19.2902 28.2495 18.8423 28.3695 18.4542 28.6059L16.7345 29.6536C15.9763 30.1155 15.0237 30.1155 14.2655 29.6536L12.5458 28.6059C12.1577 28.3695 11.7098 28.2495 11.2555 28.2602L9.24227 28.3076C8.35474 28.3285 7.52979 27.8522 7.10413 27.0732L6.1386 25.306C5.9207 24.9072 5.59284 24.5793 5.19402 24.3614L3.42684 23.3959C2.64776 22.9702 2.17148 22.1453 2.19238 21.2577L2.2398 19.2445C2.2505 18.7902 2.1305 18.3423 1.89406 17.9542L0.8464 16.2345C0.384533 15.4763 0.384533 14.5237 0.8464 13.7655L1.89406 12.0458C2.1305 11.6577 2.2505 11.2098 2.2398 10.7555L2.19238 8.74227C2.17148 7.85474 2.64777 7.02979 3.42684 6.60413L5.19402 5.6386C5.59284 5.4207 5.9207 5.09284 6.1386 4.69402L7.10413 2.92684C7.52979 2.14777 8.35474 1.67148 9.24227 1.69238L11.2555 1.7398C11.7098 1.7505 12.1577 1.6305 12.5458 1.39406L14.2655 0.3464ZM15.5 24.2434C20.605 24.2434 24.7434 20.105 24.7434 15C24.7434 9.89503 20.605 5.75663 15.5 5.75663C10.395 5.75663 6.25663 9.89503 6.25663 15C6.25663 20.105 10.395 24.2434 15.5 24.2434ZM15.5 26.092C21.626 26.092 26.592 21.126 26.592 15C26.592 8.87403 21.626 3.90796 15.5 3.90796C9.37403 3.90796 4.40796 8.87403 4.40796 15C4.40796 21.126 9.37403 26.092 15.5 26.092ZM22.1828 12.9586C22.757 12.3308 22.7136 11.3563 22.0858 10.7821C21.4579 10.2079 20.4835 10.2513 19.9092 10.8791L14.231 17.0873L11.0414 13.9088C10.4388 13.3082 9.46332 13.3099 8.86274 13.9126C8.26217 14.5152 8.26386 15.4907 8.86653 16.0912L13.1951 20.4048C13.4927 20.7013 13.8983 20.8634 14.3182 20.8537C14.7381 20.844 15.1359 20.6632 15.4194 20.3533L22.1828 12.9586Z" fill="url(#paint0_linear_1915_7912)"/>
<defs>
<linearGradient id="paint0_linear_1915_7912" x1="0.462723" y1="8.29787" x2="33.9445" y2="12.1526" gradientUnits="userSpaceOnUse">
<stop stop-color="#99660A"/>
<stop offset="0.204906" stop-color="#F2DB51"/>
<stop offset="0.638605" stop-color="#F2DB51"/>
<stop offset="1" stop-color="#99660A"/>
</linearGradient>
</defs>
</svg>
