<svg width="46" height="46" viewBox="0 0 46 46" fill="none" xmlns="http://www.w3.org/2000/svg">
<path d="M39.1144 0.291634L39.4494 4.12058L43.2784 3.78559L38.0374 10.0315L35.4848 10.2548L23.256 24.8286C22.9344 25.2118 22.3629 25.2618 21.9797 24.9402C21.5964 24.6187 21.5464 24.0472 21.868 23.6639L34.0968 9.09016L33.8735 6.53753L39.1144 0.291634Z" fill="url(#paint0_linear_1034_2157)"/>
<path d="M5.79461 8.99409C12.6304 0.847467 23.9807 -1.27631 33.1166 3.21146L32.2283 4.27008L32.6943 6.53351L29.9923 9.75356C23.7685 6.6585 16.0116 8.0931 11.3465 13.6527C5.87915 20.1684 6.72904 29.8827 13.2448 35.35C19.7605 40.8174 29.4748 39.9675 34.9421 33.4518C39.6072 27.8922 39.673 20.0039 35.5442 14.4122L38.2462 11.1921L40.5561 11.258L41.4444 10.1994C47.4504 18.4171 47.3299 29.9638 40.494 38.1104C32.4538 47.6924 18.1682 48.9422 8.58618 40.902C-0.9958 32.8617 -2.24563 18.5761 5.79461 8.99409Z" fill="url(#paint1_linear_1034_2157)"/>
<path d="M26.3373 14.1095C22.562 12.8339 18.2264 13.9099 15.5104 17.1467C11.9727 21.3627 12.5227 27.6484 16.7387 31.1861C20.9548 34.7238 27.2405 34.1739 30.7782 29.9578C33.4941 26.7211 33.8009 22.2645 31.8892 18.7681L25.338 26.5755C24.0515 28.1086 21.7658 28.3086 20.2327 27.0222C18.6996 25.7357 18.4996 23.45 19.786 21.9169L26.3373 14.1095Z" fill="url(#paint2_linear_1034_2157)"/>
<defs>
<linearGradient id="paint0_linear_1034_2157" x1="14.7837" y1="-1.80628" x2="50.2641" y2="34.7671" gradientUnits="userSpaceOnUse">
<stop stop-color="#99660A"/>
<stop offset="0.204906" stop-color="#F2DB51"/>
<stop offset="0.638605" stop-color="#F2DB51"/>
<stop offset="1" stop-color="#99660A"/>
</linearGradient>
<linearGradient id="paint1_linear_1034_2157" x1="14.7837" y1="-1.80628" x2="50.2641" y2="34.7671" gradientUnits="userSpaceOnUse">
<stop stop-color="#99660A"/>
<stop offset="0.204906" stop-color="#F2DB51"/>
<stop offset="0.638605" stop-color="#F2DB51"/>
<stop offset="1" stop-color="#99660A"/>
</linearGradient>
<linearGradient id="paint2_linear_1034_2157" x1="14.7837" y1="-1.80628" x2="50.2641" y2="34.7671" gradientUnits="userSpaceOnUse">
<stop stop-color="#99660A"/>
<stop offset="0.204906" stop-color="#F2DB51"/>
<stop offset="0.638605" stop-color="#F2DB51"/>
<stop offset="1" stop-color="#99660A"/>
</linearGradient>
</defs>
</svg>
