<svg width="570" height="180" viewBox="0 0 570 180" fill="none" xmlns="http://www.w3.org/2000/svg">
<mask id="path-1-inside-1_465_3100" fill="white">
<path d="M0 0H570V180H0V0Z"/>
</mask>
<path d="M570 179H0V181H570V179Z" fill="#D4D4D4" mask="url(#path-1-inside-1_465_3100)"/>
<g clip-path="url(#clip0_465_3100)">
<path d="M299.114 10.2916L299.449 14.1206L303.278 13.7856L298.037 20.0315L295.485 20.2548L283.256 34.8286C282.934 35.2118 282.363 35.2618 281.98 34.9402C281.596 34.6187 281.546 34.0472 281.868 33.6639L294.097 19.0902L293.874 16.5375L299.114 10.2916Z" fill="url(#paint0_linear_465_3100)"/>
<path d="M265.795 18.9941C272.63 10.8475 283.981 8.72369 293.117 13.2115L292.228 14.2701L292.694 16.5335L289.992 19.7536C283.769 16.6585 276.012 18.0931 271.347 23.6527C265.879 30.1684 266.729 39.8827 273.245 45.35C279.761 50.8174 289.475 49.9675 294.942 43.4518C299.607 37.8922 299.673 30.0039 295.544 24.4122L298.246 21.1921L300.556 21.258L301.444 20.1994C307.45 28.4171 307.33 39.9638 300.494 48.1104C292.454 57.6924 278.168 58.9422 268.586 50.902C259.004 42.8617 257.754 28.5761 265.795 18.9941Z" fill="url(#paint1_linear_465_3100)"/>
<path d="M286.337 24.1095C282.562 22.8339 278.226 23.9099 275.51 27.1467C271.973 31.3627 272.523 37.6484 276.739 41.1861C280.955 44.7238 287.24 44.1739 290.778 39.9578C293.494 36.7211 293.801 32.2645 291.889 28.7681L285.338 36.5755C284.052 38.1086 281.766 38.3086 280.233 37.0222C278.7 35.7357 278.5 33.45 279.786 31.9169L286.337 24.1095Z" fill="url(#paint2_linear_465_3100)"/>
</g>
<path d="M79.2188 112V83.4453H101.152V112H96.5039V87.4297H83.9062V112H79.2188ZM119.336 89.9688C121.901 89.9688 123.958 90.9062 125.508 92.7812C127.07 94.6562 127.852 97.4427 127.852 101.141C127.852 103.589 127.487 105.652 126.758 107.332C126.042 108.999 125.033 110.262 123.73 111.121C122.441 111.967 120.938 112.391 119.219 112.391C118.125 112.391 117.174 112.247 116.367 111.961C115.56 111.674 114.87 111.303 114.297 110.848C113.724 110.379 113.242 109.871 112.852 109.324H112.578C112.643 109.845 112.702 110.424 112.754 111.062C112.819 111.688 112.852 112.26 112.852 112.781V121.59H108.242V90.3789H111.992L112.637 93.3672H112.852C113.255 92.7552 113.743 92.1888 114.316 91.668C114.902 91.1471 115.605 90.737 116.426 90.4375C117.259 90.125 118.229 89.9688 119.336 89.9688ZM118.105 93.7188C116.842 93.7188 115.827 93.9727 115.059 94.4805C114.303 94.9753 113.75 95.724 113.398 96.7266C113.06 97.7292 112.878 98.9857 112.852 100.496V101.141C112.852 102.742 113.014 104.103 113.34 105.223C113.678 106.329 114.232 107.176 115 107.762C115.781 108.335 116.836 108.621 118.164 108.621C119.284 108.621 120.208 108.315 120.938 107.703C121.68 107.091 122.233 106.219 122.598 105.086C122.962 103.953 123.145 102.618 123.145 101.082C123.145 98.7513 122.728 96.9414 121.895 95.6523C121.074 94.3633 119.811 93.7188 118.105 93.7188ZM141.641 89.9688C144.375 89.9688 146.439 90.5742 147.832 91.7852C149.238 92.9961 149.941 94.8841 149.941 97.4492V112H146.68L145.801 108.934H145.645C145.033 109.715 144.401 110.359 143.75 110.867C143.099 111.375 142.344 111.753 141.484 112C140.638 112.26 139.603 112.391 138.379 112.391C137.09 112.391 135.938 112.156 134.922 111.688C133.906 111.206 133.105 110.477 132.52 109.5C131.934 108.523 131.641 107.286 131.641 105.789C131.641 103.562 132.467 101.889 134.121 100.77C135.788 99.6497 138.301 99.0312 141.66 98.9141L145.41 98.7773V97.6445C145.41 96.1471 145.059 95.0794 144.355 94.4414C143.665 93.8034 142.689 93.4844 141.426 93.4844C140.345 93.4844 139.297 93.6406 138.281 93.9531C137.266 94.2656 136.276 94.6497 135.312 95.1055L133.828 91.8633C134.883 91.3034 136.081 90.8477 137.422 90.4961C138.776 90.1445 140.182 89.9688 141.641 89.9688ZM145.391 101.668L142.598 101.766C140.306 101.844 138.698 102.234 137.773 102.938C136.849 103.641 136.387 104.604 136.387 105.828C136.387 106.896 136.706 107.677 137.344 108.172C137.982 108.654 138.822 108.895 139.863 108.895C141.452 108.895 142.767 108.445 143.809 107.547C144.863 106.635 145.391 105.301 145.391 103.543V101.668ZM174.551 95.9258C174.551 97.1758 174.167 98.1979 173.398 98.9922C172.643 99.7734 171.602 100.288 170.273 100.535V100.691C171.693 100.874 172.878 101.375 173.828 102.195C174.779 103.016 175.254 104.155 175.254 105.613C175.254 106.85 174.941 107.951 174.316 108.914C173.704 109.865 172.728 110.62 171.387 111.18C170.059 111.727 168.32 112 166.172 112H156.367V90.3789H166.133C167.747 90.3789 169.186 90.5547 170.449 90.9062C171.725 91.2578 172.728 91.8372 173.457 92.6445C174.186 93.4518 174.551 94.5456 174.551 95.9258ZM170.469 105.457C170.469 104.389 170.059 103.621 169.238 103.152C168.431 102.684 167.246 102.449 165.684 102.449H160.977V108.621H165.781C167.24 108.621 168.385 108.38 169.219 107.898C170.052 107.404 170.469 106.59 170.469 105.457ZM169.883 96.3359C169.883 95.4896 169.564 94.8646 168.926 94.4609C168.288 94.0443 167.285 93.8359 165.918 93.8359H160.977V99.0703H165.293C166.803 99.0703 167.943 98.8555 168.711 98.4258C169.492 97.9831 169.883 97.2865 169.883 96.3359ZM184.844 90.3789V101.414C184.844 101.766 184.831 102.215 184.805 102.762C184.792 103.296 184.766 103.855 184.727 104.441C184.688 105.014 184.648 105.542 184.609 106.023C184.57 106.505 184.538 106.863 184.512 107.098L195.391 90.3789H200.977V112H196.582V101.082C196.582 100.509 196.595 99.8451 196.621 99.0898C196.66 98.3346 196.699 97.6055 196.738 96.9023C196.79 96.1992 196.823 95.6654 196.836 95.3008L185.996 112H180.43V90.3789H184.844ZM225.371 112H220.742V93.9727H214.746C214.486 97.2539 214.16 100.06 213.77 102.391C213.379 104.721 212.891 106.622 212.305 108.094C211.719 109.552 210.996 110.62 210.137 111.297C209.277 111.974 208.242 112.312 207.031 112.312C206.497 112.312 206.016 112.273 205.586 112.195C205.156 112.13 204.772 112.026 204.434 111.883V108.27C204.655 108.348 204.896 108.413 205.156 108.465C205.417 108.517 205.684 108.543 205.957 108.543C206.439 108.543 206.882 108.348 207.285 107.957C207.702 107.553 208.086 106.922 208.438 106.062C208.789 105.203 209.108 104.07 209.395 102.664C209.681 101.245 209.941 99.526 210.176 97.5078C210.41 95.4766 210.618 93.1003 210.801 90.3789H225.371V112ZM236.562 99.0117H241.934C243.965 99.0117 245.645 99.2461 246.973 99.7148C248.314 100.171 249.316 100.861 249.98 101.785C250.645 102.71 250.977 103.868 250.977 105.262C250.977 106.629 250.664 107.82 250.039 108.836C249.414 109.839 248.438 110.62 247.109 111.18C245.794 111.727 244.076 112 241.953 112H231.953V90.3789H236.562V99.0117ZM246.367 105.379C246.367 104.298 245.964 103.536 245.156 103.094C244.349 102.638 243.197 102.41 241.699 102.41H236.562V108.621H241.738C243.105 108.621 244.219 108.374 245.078 107.879C245.938 107.371 246.367 106.538 246.367 105.379ZM260.664 90.3789V99.0703H270.781V90.3789H275.391V112H270.781V102.664H260.664V112H256.055V90.3789H260.664ZM281.953 112V90.3789H286.562V99.0117H290.918C292.949 99.0117 294.622 99.2461 295.938 99.7148C297.253 100.171 298.229 100.861 298.867 101.785C299.505 102.71 299.824 103.868 299.824 105.262C299.824 106.629 299.518 107.82 298.906 108.836C298.294 109.839 297.337 110.62 296.035 111.18C294.733 111.727 293.027 112 290.918 112H281.953ZM286.562 108.621H290.605C291.986 108.621 293.099 108.374 293.945 107.879C294.805 107.371 295.234 106.538 295.234 105.379C295.234 104.298 294.837 103.536 294.043 103.094C293.262 102.638 292.116 102.41 290.605 102.41H286.562V108.621ZM303.164 112V90.3789H307.773V112H303.164ZM318.75 90.3789V101.414C318.75 101.766 318.737 102.215 318.711 102.762C318.698 103.296 318.672 103.855 318.633 104.441C318.594 105.014 318.555 105.542 318.516 106.023C318.477 106.505 318.444 106.863 318.418 107.098L329.297 90.3789H334.883V112H330.488V101.082C330.488 100.509 330.501 99.8451 330.527 99.0898C330.566 98.3346 330.605 97.6055 330.645 96.9023C330.697 96.1992 330.729 95.6654 330.742 95.3008L319.902 112H314.336V90.3789H318.75ZM333.262 81.2773C333.132 82.6185 332.767 83.7773 332.168 84.7539C331.582 85.7174 330.69 86.4596 329.492 86.9805C328.294 87.5013 326.719 87.7617 324.766 87.7617C322.747 87.7617 321.152 87.5143 319.98 87.0195C318.809 86.5117 317.962 85.776 317.441 84.8125C316.921 83.8359 316.608 82.6576 316.504 81.2773H320.684C320.814 82.7227 321.191 83.6992 321.816 84.207C322.441 84.7018 323.451 84.9492 324.844 84.9492C326.042 84.9492 326.999 84.6823 327.715 84.1484C328.444 83.6146 328.88 82.6576 329.023 81.2773H333.262ZM370.762 90.3789V112H366.133V94.0117H356.484V112H351.875V90.3789H370.762ZM396.484 101.141C396.484 102.938 396.25 104.533 395.781 105.926C395.312 107.319 394.629 108.497 393.73 109.461C392.832 110.411 391.751 111.141 390.488 111.648C389.225 112.143 387.799 112.391 386.211 112.391C384.727 112.391 383.366 112.143 382.129 111.648C380.892 111.141 379.818 110.411 378.906 109.461C378.008 108.497 377.311 107.319 376.816 105.926C376.322 104.533 376.074 102.938 376.074 101.141C376.074 98.7578 376.484 96.7396 377.305 95.0859C378.138 93.4193 379.323 92.1497 380.859 91.2773C382.396 90.4049 384.225 89.9688 386.348 89.9688C388.34 89.9688 390.098 90.4049 391.621 91.2773C393.145 92.1497 394.336 93.4193 395.195 95.0859C396.055 96.7526 396.484 98.7708 396.484 101.141ZM380.801 101.141C380.801 102.716 380.99 104.064 381.367 105.184C381.758 106.303 382.357 107.163 383.164 107.762C383.971 108.348 385.013 108.641 386.289 108.641C387.565 108.641 388.607 108.348 389.414 107.762C390.221 107.163 390.814 106.303 391.191 105.184C391.569 104.064 391.758 102.716 391.758 101.141C391.758 99.5651 391.569 98.2305 391.191 97.1367C390.814 96.0299 390.221 95.1901 389.414 94.6172C388.607 94.0312 387.559 93.7383 386.27 93.7383C384.368 93.7383 382.982 94.3763 382.109 95.6523C381.237 96.9284 380.801 98.7578 380.801 101.141ZM419.414 90.3789V108.445H422.539V119.617H418.301V112H403.379V119.617H399.141V108.445H400.898C401.992 106.857 402.904 105.086 403.633 103.133C404.375 101.18 404.948 99.1224 405.352 96.9609C405.768 94.7865 406.029 92.5924 406.133 90.3789H419.414ZM414.863 93.8945H410.078C409.922 95.6523 409.655 97.4036 409.277 99.1484C408.9 100.88 408.411 102.54 407.812 104.129C407.227 105.704 406.523 107.143 405.703 108.445H414.863V93.8945ZM431.348 100.945L424.121 90.3789H429.355L434.297 97.9766L439.258 90.3789H444.473L437.207 100.945L444.844 112H439.59L434.297 103.895L428.984 112H423.77L431.348 100.945ZM467.734 101.141C467.734 102.938 467.5 104.533 467.031 105.926C466.562 107.319 465.879 108.497 464.98 109.461C464.082 110.411 463.001 111.141 461.738 111.648C460.475 112.143 459.049 112.391 457.461 112.391C455.977 112.391 454.616 112.143 453.379 111.648C452.142 111.141 451.068 110.411 450.156 109.461C449.258 108.497 448.561 107.319 448.066 105.926C447.572 104.533 447.324 102.938 447.324 101.141C447.324 98.7578 447.734 96.7396 448.555 95.0859C449.388 93.4193 450.573 92.1497 452.109 91.2773C453.646 90.4049 455.475 89.9688 457.598 89.9688C459.59 89.9688 461.348 90.4049 462.871 91.2773C464.395 92.1497 465.586 93.4193 466.445 95.0859C467.305 96.7526 467.734 98.7708 467.734 101.141ZM452.051 101.141C452.051 102.716 452.24 104.064 452.617 105.184C453.008 106.303 453.607 107.163 454.414 107.762C455.221 108.348 456.263 108.641 457.539 108.641C458.815 108.641 459.857 108.348 460.664 107.762C461.471 107.163 462.064 106.303 462.441 105.184C462.819 104.064 463.008 102.716 463.008 101.141C463.008 99.5651 462.819 98.2305 462.441 97.1367C462.064 96.0299 461.471 95.1901 460.664 94.6172C459.857 94.0312 458.809 93.7383 457.52 93.7383C455.618 93.7383 454.232 94.3763 453.359 95.6523C452.487 96.9284 452.051 98.7578 452.051 101.141ZM490.664 90.3789V108.445H493.789V119.617H489.551V112H474.629V119.617H470.391V108.445H472.148C473.242 106.857 474.154 105.086 474.883 103.133C475.625 101.18 476.198 99.1224 476.602 96.9609C477.018 94.7865 477.279 92.5924 477.383 90.3789H490.664ZM486.113 93.8945H481.328C481.172 95.6523 480.905 97.4036 480.527 99.1484C480.15 100.88 479.661 102.54 479.062 104.129C478.477 105.704 477.773 107.143 476.953 108.445H486.113V93.8945Z" fill="white"/>
<path d="M127.109 145.982C126.322 145.982 125.612 146.119 124.98 146.393C124.355 146.66 123.822 147.05 123.379 147.564C122.943 148.072 122.607 148.688 122.373 149.41C122.139 150.133 122.021 150.947 122.021 151.852C122.021 153.049 122.207 154.091 122.578 154.977C122.956 155.855 123.516 156.536 124.258 157.018C125.007 157.499 125.941 157.74 127.061 157.74C127.699 157.74 128.298 157.688 128.857 157.584C129.424 157.473 129.974 157.337 130.508 157.174V158.619C129.987 158.814 129.44 158.958 128.867 159.049C128.294 159.146 127.614 159.195 126.826 159.195C125.374 159.195 124.16 158.896 123.184 158.297C122.214 157.691 121.484 156.839 120.996 155.738C120.514 154.638 120.273 153.339 120.273 151.842C120.273 150.761 120.423 149.775 120.723 148.883C121.029 147.984 121.471 147.21 122.051 146.559C122.637 145.908 123.353 145.406 124.199 145.055C125.052 144.697 126.029 144.518 127.129 144.518C127.852 144.518 128.548 144.589 129.219 144.732C129.889 144.876 130.495 145.081 131.035 145.348L130.371 146.754C129.915 146.546 129.414 146.367 128.867 146.217C128.327 146.061 127.741 145.982 127.109 145.982ZM140.654 149.674H137.129V159H135.527V149.674H132.051V148.297H140.654V149.674ZM146.777 148.121C148.053 148.121 149.001 148.408 149.619 148.98C150.238 149.553 150.547 150.468 150.547 151.725V159H149.365L149.053 157.418H148.975C148.675 157.809 148.363 158.137 148.037 158.404C147.712 158.665 147.334 158.863 146.904 159C146.481 159.13 145.96 159.195 145.342 159.195C144.691 159.195 144.111 159.081 143.604 158.854C143.102 158.626 142.705 158.281 142.412 157.818C142.126 157.356 141.982 156.77 141.982 156.061C141.982 154.993 142.406 154.173 143.252 153.6C144.098 153.027 145.387 152.714 147.119 152.662L148.965 152.584V151.93C148.965 151.005 148.766 150.357 148.369 149.986C147.972 149.615 147.412 149.43 146.689 149.43C146.13 149.43 145.596 149.511 145.088 149.674C144.58 149.837 144.098 150.029 143.643 150.25L143.145 149.02C143.626 148.772 144.18 148.561 144.805 148.385C145.43 148.209 146.087 148.121 146.777 148.121ZM148.945 153.727L147.314 153.795C145.98 153.847 145.039 154.065 144.492 154.449C143.945 154.833 143.672 155.377 143.672 156.08C143.672 156.692 143.857 157.145 144.229 157.438C144.6 157.73 145.091 157.877 145.703 157.877C146.654 157.877 147.432 157.613 148.037 157.086C148.643 156.559 148.945 155.768 148.945 154.713V153.727ZM162.393 150.982C162.393 151.653 162.197 152.177 161.807 152.555C161.416 152.926 160.911 153.176 160.293 153.307V153.385C160.964 153.476 161.54 153.717 162.021 154.107C162.51 154.492 162.754 155.081 162.754 155.875C162.754 156.487 162.607 157.027 162.314 157.496C162.021 157.965 161.562 158.333 160.938 158.6C160.312 158.867 159.499 159 158.496 159H153.887V148.297H158.457C159.225 148.297 159.902 148.385 160.488 148.561C161.081 148.73 161.546 149.01 161.885 149.4C162.223 149.791 162.393 150.318 162.393 150.982ZM161.064 155.875C161.064 155.243 160.824 154.788 160.342 154.508C159.867 154.228 159.173 154.088 158.262 154.088H155.518V157.682H158.301C159.199 157.682 159.883 157.545 160.352 157.271C160.827 156.992 161.064 156.526 161.064 155.875ZM160.742 151.168C160.742 150.66 160.557 150.283 160.186 150.035C159.814 149.781 159.206 149.654 158.359 149.654H155.518V152.73H158.076C158.955 152.73 159.619 152.604 160.068 152.35C160.518 152.096 160.742 151.702 160.742 151.168ZM166.914 148.297V155.025C166.914 155.156 166.911 155.325 166.904 155.533C166.898 155.735 166.888 155.953 166.875 156.188C166.862 156.415 166.849 156.637 166.836 156.852C166.829 157.06 166.82 157.232 166.807 157.369L172.646 148.297H174.639V159H173.125V152.438C173.125 152.229 173.128 151.962 173.135 151.637C173.141 151.311 173.151 150.992 173.164 150.68C173.177 150.361 173.187 150.113 173.193 149.938L167.373 159H165.371V148.297H166.914ZM189.385 148.297V159H187.92V152.027C187.92 151.741 187.926 151.451 187.939 151.158C187.959 150.859 187.982 150.559 188.008 150.26H187.949L184.395 159H183.018L179.551 150.26H179.492C179.512 150.559 179.525 150.859 179.531 151.158C179.544 151.451 179.551 151.76 179.551 152.086V159H178.076V148.297H180.254L183.711 157.047L187.217 148.297H189.385ZM208.369 162.701H206.787V159H197.949V148.297H199.58V157.623H205.254V148.297H206.875V157.643H208.369V162.701ZM214.59 148.102C215.501 148.102 216.283 148.303 216.934 148.707C217.585 149.111 218.083 149.677 218.428 150.406C218.773 151.129 218.945 151.975 218.945 152.945V153.951H211.553C211.572 155.208 211.885 156.165 212.49 156.822C213.096 157.48 213.949 157.809 215.049 157.809C215.726 157.809 216.325 157.747 216.846 157.623C217.367 157.499 217.907 157.317 218.467 157.076V158.502C217.926 158.743 217.389 158.919 216.855 159.029C216.328 159.14 215.703 159.195 214.98 159.195C213.952 159.195 213.053 158.987 212.285 158.57C211.523 158.147 210.931 157.529 210.508 156.715C210.085 155.901 209.873 154.905 209.873 153.727C209.873 152.574 210.065 151.578 210.449 150.738C210.84 149.892 211.387 149.241 212.09 148.785C212.799 148.329 213.633 148.102 214.59 148.102ZM214.57 149.43C213.704 149.43 213.014 149.713 212.5 150.279C211.986 150.846 211.68 151.637 211.582 152.652H217.246C217.24 152.014 217.139 151.454 216.943 150.973C216.755 150.484 216.465 150.107 216.074 149.84C215.684 149.566 215.182 149.43 214.57 149.43ZM229.727 159H228.076V149.654H224.824C224.694 151.34 224.528 152.786 224.326 153.99C224.131 155.188 223.883 156.168 223.584 156.93C223.291 157.685 222.933 158.242 222.51 158.6C222.093 158.951 221.595 159.127 221.016 159.127C220.84 159.127 220.674 159.117 220.518 159.098C220.361 159.078 220.228 159.046 220.117 159V157.77C220.202 157.796 220.29 157.815 220.381 157.828C220.479 157.841 220.579 157.848 220.684 157.848C220.977 157.848 221.243 157.727 221.484 157.486C221.732 157.239 221.953 156.868 222.148 156.373C222.35 155.878 222.529 155.253 222.686 154.498C222.842 153.736 222.979 152.841 223.096 151.812C223.219 150.777 223.327 149.605 223.418 148.297H229.727V159ZM234.688 148.297V155.025C234.688 155.156 234.684 155.325 234.678 155.533C234.671 155.735 234.661 155.953 234.648 156.188C234.635 156.415 234.622 156.637 234.609 156.852C234.603 157.06 234.593 157.232 234.58 157.369L240.42 148.297H242.412V159H240.898V152.438C240.898 152.229 240.902 151.962 240.908 151.637C240.915 151.311 240.924 150.992 240.938 150.68C240.951 150.361 240.96 150.113 240.967 149.938L235.146 159H233.145V148.297H234.688ZM252.598 148.297V155.025C252.598 155.156 252.594 155.325 252.588 155.533C252.581 155.735 252.572 155.953 252.559 156.188C252.546 156.415 252.533 156.637 252.52 156.852C252.513 157.06 252.503 157.232 252.49 157.369L258.33 148.297H260.322V159H258.809V152.438C258.809 152.229 258.812 151.962 258.818 151.637C258.825 151.311 258.835 150.992 258.848 150.68C258.861 150.361 258.87 150.113 258.877 149.938L253.057 159H251.055V148.297H252.598ZM270.508 148.297V155.025C270.508 155.156 270.505 155.325 270.498 155.533C270.492 155.735 270.482 155.953 270.469 156.188C270.456 156.415 270.443 156.637 270.43 156.852C270.423 157.06 270.413 157.232 270.4 157.369L276.24 148.297H278.232V159H276.719V152.438C276.719 152.229 276.722 151.962 276.729 151.637C276.735 151.311 276.745 150.992 276.758 150.68C276.771 150.361 276.781 150.113 276.787 149.938L270.967 159H268.965V148.297H270.508ZM289.521 148.297V157.623H291.055V162.701H289.482V159H281.904V162.701H280.352V157.623H281.191C281.803 156.777 282.311 155.849 282.715 154.84C283.118 153.831 283.424 152.773 283.633 151.666C283.841 150.553 283.952 149.43 283.965 148.297H289.521ZM287.949 149.586H285.41C285.352 150.536 285.212 151.503 284.99 152.486C284.775 153.469 284.489 154.407 284.131 155.299C283.773 156.184 283.356 156.959 282.881 157.623H287.949V149.586ZM297.305 148.102C298.216 148.102 298.997 148.303 299.648 148.707C300.299 149.111 300.798 149.677 301.143 150.406C301.488 151.129 301.66 151.975 301.66 152.945V153.951H294.268C294.287 155.208 294.6 156.165 295.205 156.822C295.811 157.48 296.663 157.809 297.764 157.809C298.441 157.809 299.04 157.747 299.561 157.623C300.081 157.499 300.622 157.317 301.182 157.076V158.502C300.641 158.743 300.104 158.919 299.57 159.029C299.043 159.14 298.418 159.195 297.695 159.195C296.667 159.195 295.768 158.987 295 158.57C294.238 158.147 293.646 157.529 293.223 156.715C292.799 155.901 292.588 154.905 292.588 153.727C292.588 152.574 292.78 151.578 293.164 150.738C293.555 149.892 294.102 149.241 294.805 148.785C295.514 148.329 296.348 148.102 297.305 148.102ZM297.285 149.43C296.419 149.43 295.729 149.713 295.215 150.279C294.701 150.846 294.395 151.637 294.297 152.652H299.961C299.954 152.014 299.854 151.454 299.658 150.973C299.469 150.484 299.18 150.107 298.789 149.84C298.398 149.566 297.897 149.43 297.285 149.43ZM315.713 148.297V159H314.248V152.027C314.248 151.741 314.255 151.451 314.268 151.158C314.287 150.859 314.31 150.559 314.336 150.26H314.277L310.723 159H309.346L305.879 150.26H305.82C305.84 150.559 305.853 150.859 305.859 151.158C305.872 151.451 305.879 151.76 305.879 152.086V159H304.404V148.297H306.582L310.039 157.047L313.545 148.297H315.713ZM332.783 150.982C332.783 151.653 332.588 152.177 332.197 152.555C331.807 152.926 331.302 153.176 330.684 153.307V153.385C331.354 153.476 331.93 153.717 332.412 154.107C332.9 154.492 333.145 155.081 333.145 155.875C333.145 156.487 332.998 157.027 332.705 157.496C332.412 157.965 331.953 158.333 331.328 158.6C330.703 158.867 329.889 159 328.887 159H324.277V148.297H328.848C329.616 148.297 330.293 148.385 330.879 148.561C331.471 148.73 331.937 149.01 332.275 149.4C332.614 149.791 332.783 150.318 332.783 150.982ZM331.455 155.875C331.455 155.243 331.214 154.788 330.732 154.508C330.257 154.228 329.564 154.088 328.652 154.088H325.908V157.682H328.691C329.59 157.682 330.273 157.545 330.742 157.271C331.217 156.992 331.455 156.526 331.455 155.875ZM331.133 151.168C331.133 150.66 330.947 150.283 330.576 150.035C330.205 149.781 329.596 149.654 328.75 149.654H325.908V152.73H328.467C329.346 152.73 330.01 152.604 330.459 152.35C330.908 152.096 331.133 151.702 331.133 151.168ZM347.061 148.297V159H345.596V152.027C345.596 151.741 345.602 151.451 345.615 151.158C345.635 150.859 345.658 150.559 345.684 150.26H345.625L342.07 159H340.693L337.227 150.26H337.168C337.188 150.559 337.201 150.859 337.207 151.158C337.22 151.451 337.227 151.76 337.227 152.086V159H335.752V148.297H337.93L341.387 157.047L344.893 148.297H347.061ZM354.551 148.102C355.462 148.102 356.243 148.303 356.895 148.707C357.546 149.111 358.044 149.677 358.389 150.406C358.734 151.129 358.906 151.975 358.906 152.945V153.951H351.514C351.533 155.208 351.846 156.165 352.451 156.822C353.057 157.48 353.91 157.809 355.01 157.809C355.687 157.809 356.286 157.747 356.807 157.623C357.327 157.499 357.868 157.317 358.428 157.076V158.502C357.887 158.743 357.35 158.919 356.816 159.029C356.289 159.14 355.664 159.195 354.941 159.195C353.913 159.195 353.014 158.987 352.246 158.57C351.484 158.147 350.892 157.529 350.469 156.715C350.046 155.901 349.834 154.905 349.834 153.727C349.834 152.574 350.026 151.578 350.41 150.738C350.801 149.892 351.348 149.241 352.051 148.785C352.76 148.329 353.594 148.102 354.551 148.102ZM354.531 149.43C353.665 149.43 352.975 149.713 352.461 150.279C351.947 150.846 351.641 151.637 351.543 152.652H357.207C357.201 152.014 357.1 151.454 356.904 150.973C356.715 150.484 356.426 150.107 356.035 149.84C355.645 149.566 355.143 149.43 354.531 149.43ZM365.947 159.195C364.984 159.195 364.134 158.997 363.398 158.6C362.663 158.202 362.09 157.597 361.68 156.783C361.27 155.969 361.064 154.944 361.064 153.707C361.064 152.411 361.279 151.354 361.709 150.533C362.145 149.706 362.744 149.094 363.506 148.697C364.268 148.3 365.133 148.102 366.104 148.102C366.637 148.102 367.152 148.157 367.646 148.268C368.148 148.372 368.558 148.505 368.877 148.668L368.389 150.025C368.063 149.895 367.686 149.778 367.256 149.674C366.833 149.57 366.436 149.518 366.064 149.518C365.322 149.518 364.704 149.677 364.209 149.996C363.721 150.315 363.353 150.784 363.105 151.402C362.865 152.021 362.744 152.783 362.744 153.688C362.744 154.553 362.861 155.292 363.096 155.904C363.337 156.516 363.691 156.985 364.16 157.311C364.635 157.63 365.228 157.789 365.938 157.789C366.504 157.789 367.015 157.73 367.471 157.613C367.926 157.49 368.34 157.346 368.711 157.184V158.629C368.353 158.811 367.952 158.951 367.51 159.049C367.074 159.146 366.553 159.195 365.947 159.195ZM378.545 149.674H375.02V159H373.418V149.674H369.941V148.297H378.545V149.674ZM384.785 148.102C385.697 148.102 386.478 148.303 387.129 148.707C387.78 149.111 388.278 149.677 388.623 150.406C388.968 151.129 389.141 151.975 389.141 152.945V153.951H381.748C381.768 155.208 382.08 156.165 382.686 156.822C383.291 157.48 384.144 157.809 385.244 157.809C385.921 157.809 386.52 157.747 387.041 157.623C387.562 157.499 388.102 157.317 388.662 157.076V158.502C388.122 158.743 387.585 158.919 387.051 159.029C386.523 159.14 385.898 159.195 385.176 159.195C384.147 159.195 383.249 158.987 382.48 158.57C381.719 158.147 381.126 157.529 380.703 156.715C380.28 155.901 380.068 154.905 380.068 153.727C380.068 152.574 380.26 151.578 380.645 150.738C381.035 149.892 381.582 149.241 382.285 148.785C382.995 148.329 383.828 148.102 384.785 148.102ZM384.766 149.43C383.9 149.43 383.21 149.713 382.695 150.279C382.181 150.846 381.875 151.637 381.777 152.652H387.441C387.435 152.014 387.334 151.454 387.139 150.973C386.95 150.484 386.66 150.107 386.27 149.84C385.879 149.566 385.378 149.43 384.766 149.43ZM403.33 148.297H405.117L400.498 153.463L405.488 159H403.584L398.721 153.57V159H397.09V148.297H398.721V153.492L403.33 148.297ZM414.248 148.297V152.789H420.215V148.297H421.836V159H420.215V154.166H414.248V159H412.617V148.297H414.248ZM426.816 148.297V155.025C426.816 155.156 426.813 155.325 426.807 155.533C426.8 155.735 426.79 155.953 426.777 156.188C426.764 156.415 426.751 156.637 426.738 156.852C426.732 157.06 426.722 157.232 426.709 157.369L432.549 148.297H434.541V159H433.027V152.438C433.027 152.229 433.031 151.962 433.037 151.637C433.044 151.311 433.053 150.992 433.066 150.68C433.079 150.361 433.089 150.113 433.096 149.938L427.275 159H425.273V148.297H426.816ZM449.287 148.297V159H447.822V152.027C447.822 151.741 447.829 151.451 447.842 151.158C447.861 150.859 447.884 150.559 447.91 150.26H447.852L444.297 159H442.92L439.453 150.26H439.395C439.414 150.559 439.427 150.859 439.434 151.158C439.447 151.451 439.453 151.76 439.453 152.086V159H437.979V148.297H440.156L443.613 157.047L447.119 148.297H449.287Z" fill="white"/>
<defs>
<linearGradient id="paint0_linear_465_3100" x1="274.784" y1="8.19372" x2="310.264" y2="44.7671" gradientUnits="userSpaceOnUse">
<stop stop-color="#99660A"/>
<stop offset="0.204906" stop-color="#F2DB51"/>
<stop offset="0.638605" stop-color="#F2DB51"/>
<stop offset="1" stop-color="#99660A"/>
</linearGradient>
<linearGradient id="paint1_linear_465_3100" x1="274.784" y1="8.19372" x2="310.264" y2="44.7671" gradientUnits="userSpaceOnUse">
<stop stop-color="#99660A"/>
<stop offset="0.204906" stop-color="#F2DB51"/>
<stop offset="0.638605" stop-color="#F2DB51"/>
<stop offset="1" stop-color="#99660A"/>
</linearGradient>
<linearGradient id="paint2_linear_465_3100" x1="274.784" y1="8.19372" x2="310.264" y2="44.7671" gradientUnits="userSpaceOnUse">
<stop stop-color="#99660A"/>
<stop offset="0.204906" stop-color="#F2DB51"/>
<stop offset="0.638605" stop-color="#F2DB51"/>
<stop offset="1" stop-color="#99660A"/>
</linearGradient>
<clipPath id="clip0_465_3100">
<rect width="50" height="46" fill="white" transform="translate(260 10)"/>
</clipPath>
</defs>
</svg>
