<svg width="154" height="154" viewBox="0 0 154 154" fill="none" xmlns="http://www.w3.org/2000/svg">
<path fill-rule="evenodd" clip-rule="evenodd" d="M77 154C119.526 154 154 119.526 154 77C154 34.4741 119.526 0 77 0C34.4741 0 0 34.4741 0 77C0 119.526 34.4741 154 77 154ZM81.8131 32.9383C84.0222 32.9383 85.8131 34.7292 85.8131 36.9383V64.1887C85.8131 66.3979 87.6039 68.1887 89.8131 68.1887H117.061C119.27 68.1887 121.061 69.9796 121.061 72.1887V81.8132C121.061 84.0223 119.27 85.8132 117.061 85.8132H89.8131C87.6039 85.8132 85.8131 87.604 85.8131 89.8132V117.061C85.8131 119.27 84.0222 121.061 81.8131 121.061H72.1886C69.9795 121.061 68.1886 119.27 68.1886 117.061V89.8132C68.1886 87.604 66.3978 85.8132 64.1886 85.8132H36.9389C34.7298 85.8132 32.9389 84.0223 32.9389 81.8132V72.1887C32.9389 69.9796 34.7298 68.1887 36.9389 68.1887H64.1886C66.3978 68.1887 68.1886 66.3979 68.1886 64.1887V36.9383C68.1886 34.7292 69.9795 32.9383 72.1886 32.9383H81.8131Z" fill="#D9D9D9"/>
</svg>
