<svg width="38" height="38" viewBox="0 0 38 38" fill="none" xmlns="http://www.w3.org/2000/svg">
<path fill-rule="evenodd" clip-rule="evenodd" d="M19 11.002C14.5817 11.002 11 14.5837 11 19.002C11 23.4202 14.5817 27.002 19 27.002C23.4183 27.002 27 23.4202 27 19.002C27 14.5837 23.4183 11.002 19 11.002ZM15 1.00195V3.02997C15 3.92278 14.3918 4.695 13.5598 5.01892C12.7614 5.32978 11.8457 5.19096 11.2399 4.5851L9.36384 2.70906C8.97332 2.31854 8.34016 2.31854 7.94963 2.70906L3.70699 6.9517C3.31647 7.34223 3.31647 7.97539 3.70699 8.36591L5.18979 9.84871C5.85173 10.5107 5.95254 11.5374 5.53854 12.377C5.34899 12.7614 5.17542 13.1552 5.0187 13.5573C4.69203 14.3956 3.91609 15.002 3.01645 15.002H1C0.447715 15.002 0 15.4497 0 16.002V22.002C0 22.5542 0.447715 23.002 1 23.002H3.01645C3.9161 23.002 4.69203 23.6084 5.0187 24.4466C5.05097 24.5294 5.08396 24.6119 5.11766 24.694C5.45153 25.5074 5.32183 26.4575 4.7001 27.0792L2.70711 29.0722C2.31658 29.4627 2.31658 30.0959 2.70711 30.4864L6.94975 34.729C7.34027 35.1196 7.97344 35.1196 8.36396 34.729L10.139 32.954C10.7898 32.3032 11.7953 32.1939 12.6283 32.5853C12.9319 32.728 13.2411 32.8608 13.5554 32.9833C14.3936 33.3099 15 34.0859 15 34.9855V37.002C15 37.5542 15.4477 38.002 16 38.002H22C22.5523 38.002 23 37.5542 23 37.002V34.9855C23 34.0859 23.6064 33.3099 24.4446 32.9833C24.6436 32.9057 24.8406 32.824 25.0353 32.7383C25.859 32.3759 26.8368 32.4957 27.4731 33.132L29.071 34.7299C29.4615 35.1204 30.0946 35.1204 30.4852 34.7299L34.7278 30.4872C35.1183 30.0967 35.1183 29.4635 34.7278 29.073L33.13 27.4752C32.4936 26.8389 32.3739 25.8611 32.7363 25.0374C32.822 24.8426 32.9037 24.6456 32.9813 24.4466C33.308 23.6084 34.0839 23.002 34.9835 23.002H37C37.5523 23.002 38 22.5542 38 22.002V16.002C38 15.4497 37.5523 15.002 37 15.002H34.9835C34.0839 15.002 33.308 14.3956 32.9813 13.5573C32.8588 13.243 32.726 12.9339 32.5834 12.6303C32.192 11.7973 32.3012 10.7918 32.952 10.141L34.7279 8.36508C35.1184 7.97456 35.1184 7.34139 34.7279 6.95087L30.4853 2.70823C30.0948 2.3177 29.4616 2.3177 29.0711 2.70823L27.0772 4.70205C26.4555 5.32379 25.5054 5.45348 24.692 5.11961C24.6099 5.08592 24.5275 5.05293 24.4446 5.02065C23.6064 4.69398 23 3.91805 23 3.01841V1.00195C23 0.449668 22.5523 0.00195312 22 0.00195312H16C15.4477 0.00195312 15 0.449668 15 1.00195Z" fill="url(#paint0_linear_1477_3036)"/>
<defs>
<linearGradient id="paint0_linear_1477_3036" x1="-0.0472175" y1="10.5126" x2="42.3631" y2="15.3953" gradientUnits="userSpaceOnUse">
<stop stop-color="#99660A"/>
<stop offset="0.204906" stop-color="#F2DB51"/>
<stop offset="0.638605" stop-color="#F2DB51"/>
<stop offset="1" stop-color="#99660A"/>
</linearGradient>
</defs>
</svg>
