<svg width="100" height="100" viewBox="0 0 100 100" fill="none" xmlns="http://www.w3.org/2000/svg">
<path fill-rule="evenodd" clip-rule="evenodd" d="M50 100C77.6142 100 100 77.6142 100 50C100 22.3858 77.6142 0 50 0C22.3858 0 0 22.3858 0 50C0 77.6142 22.3858 100 50 100ZM72.243 35.6453C73.7039 33.3019 72.9886 30.218 70.6452 28.757C68.3019 27.2961 65.218 28.0114 63.757 30.3547L45.8503 59.077L36.4951 49.9324C34.5203 48.0021 31.3547 48.0382 29.4244 50.0129C27.4942 51.9876 27.5302 55.1532 29.5049 57.0835L43.3078 70.5756C44.391 71.6344 45.8957 72.1451 47.3996 71.9642C48.9035 71.7834 50.2444 70.9306 51.0458 69.6453L72.243 35.6453Z" fill="url(#paint0_linear_643_3437)"/>
<defs>
<linearGradient id="paint0_linear_643_3437" x1="-0.124257" y1="27.6596" x2="111.482" y2="40.5087" gradientUnits="userSpaceOnUse">
<stop stop-color="#99660A"/>
<stop offset="0.204906" stop-color="#F2DB51"/>
<stop offset="0.638605" stop-color="#F2DB51"/>
<stop offset="1" stop-color="#99660A"/>
</linearGradient>
</defs>
</svg>
