<svg width="50" height="48" viewBox="0 0 50 48" fill="none" xmlns="http://www.w3.org/2000/svg">
<path fill-rule="evenodd" clip-rule="evenodd" d="M0.0556641 24C0.0556641 37.2548 11.0371 48 24.5834 48C38.1298 48 49.1112 37.2548 49.1112 24C49.1112 10.7452 38.1298 0 24.5834 0C11.0371 0 0.0556641 10.7452 0.0556641 24ZM20.0867 35L20.504 28.8823L20.5037 28.882L31.8773 18.839C32.3765 18.4055 31.7683 18.1941 31.1057 18.5873L17.069 27.2523L11.006 25.4007C9.69661 25.0084 9.68721 24.128 11.2999 23.4951L34.9263 14.5809C36.0054 14.1015 37.0469 14.8345 36.635 16.4505L32.6114 35.0031C32.3304 36.3215 31.5163 36.6368 30.3883 36.0278L24.2592 31.5969L21.3131 34.4C21.3038 34.4088 21.2945 34.4176 21.2853 34.4264C20.9558 34.7403 20.6832 35 20.0867 35Z" fill="url(#paint0_linear_800_1741)"/>
<defs>
<linearGradient id="paint0_linear_800_1741" x1="-0.00529068" y1="13.2766" x2="54.7118" y2="19.7147" gradientUnits="userSpaceOnUse">
<stop stop-color="#99660A"/>
<stop offset="0.204906" stop-color="#F2DB51"/>
<stop offset="0.638605" stop-color="#F2DB51"/>
<stop offset="1" stop-color="#99660A"/>
</linearGradient>
</defs>
</svg>
