<svg width="20" height="18" viewBox="0 0 20 18" fill="none" xmlns="http://www.w3.org/2000/svg">
<path d="M18.5723 0.0116327C18.2399 -0.0236174 17.8786 0.028289 17.5156 0.171789C17.0656 0.348789 10.0144 3.31495 3.44141 6.08195L1.26953 6.99601C0.428531 7.33701 0.00390625 7.89159 0.00390625 8.63859C0.00390625 9.16159 0.22525 9.87098 1.28125 10.289L4.94727 11.7577C5.26427 12.7087 6.00055 14.9168 6.18555 15.5038C6.29555 15.8518 6.57339 16.7285 7.27539 16.9335C7.41939 16.9825 7.56966 17.0077 7.72266 17.0077C8.16566 17.0077 8.48462 16.8016 8.64062 16.6816L10.9707 14.7109L13.8008 17.328C13.9098 17.439 14.4867 17.9999 15.2617 17.9999C16.2287 17.9999 16.9622 17.1949 17.1152 16.4159C17.1982 15.9889 19.9277 2.28698 19.9277 2.28898C20.1727 1.18998 19.7322 0.619867 19.4492 0.376867C19.2067 0.169367 18.9046 0.0468827 18.5723 0.0116327ZM17.9102 2.17179C17.5332 4.06179 15.478 14.3781 15.166 15.8651L11.0293 12.039L8.22266 14.4159L9 11.3749C9 11.3749 14.3625 5.94677 14.6855 5.63077C14.9455 5.37777 15 5.28909 15 5.20109C15 5.08409 14.9398 4.99991 14.8008 4.99991C14.6758 4.99991 14.506 5.1197 14.416 5.1757C13.2727 5.88851 8.40409 8.66215 6.00781 10.0253L2.53125 8.63663L4.21875 7.92765C8.51775 6.11765 16.1742 2.89379 17.9102 2.17179Z" fill="#54A3D9"/>
</svg>
