<svg width="50" height="48" viewBox="0 0 50 48" fill="none" xmlns="http://www.w3.org/2000/svg">
<path fill-rule="evenodd" clip-rule="evenodd" d="M24.5278 0C10.9815 0 0 10.7452 0 24C0 37.2548 10.9815 48 24.5278 48C38.0741 48 49.0555 37.2548 49.0555 24C49.0555 10.7452 38.0741 0 24.5278 0ZM26.5249 31.5762C26.283 31.8257 25.8108 31.8761 25.8108 31.8761H24.2471C24.2471 31.8761 20.7973 32.0752 17.7581 29.037C14.4439 25.7222 11.5174 19.1455 11.5174 19.1455C11.5174 19.1455 11.3485 18.7141 11.5314 18.5064C11.7375 18.2717 12.2992 18.2569 12.2992 18.2569L16.037 18.2336C16.037 18.2336 16.3889 18.2889 16.641 18.4671C16.8496 18.6146 16.966 18.8887 16.966 18.8887C16.966 18.8887 17.57 20.3562 18.3698 21.6835C19.9322 24.2756 20.6591 24.8422 21.1888 24.5644C21.9617 24.1601 21.7301 20.9006 21.7301 20.9006C21.7301 20.9006 21.7442 19.7183 21.3411 19.191C21.0289 18.783 20.4402 18.6637 20.1805 18.6306C19.9693 18.6035 20.3148 18.134 20.7627 17.9239C21.4358 17.608 22.6233 17.5896 24.027 17.6031C25.1211 17.6141 25.4359 17.6793 25.8633 17.7788C26.8552 18.0087 26.8243 18.7455 26.7574 20.3357C26.7375 20.8113 26.7143 21.3631 26.7143 22.0006C26.7143 22.1439 26.7099 22.2966 26.7054 22.4537C26.6823 23.2683 26.6557 24.2012 27.2146 24.5485C27.5012 24.7254 28.2012 24.5743 29.953 21.7179C30.7835 20.3635 31.4054 18.7719 31.4054 18.7719C31.4054 18.7719 31.5423 18.488 31.7535 18.3663C31.9697 18.2422 32.2615 18.2803 32.2615 18.2803L36.1951 18.2569C36.1951 18.2569 37.3774 18.1205 37.5681 18.6343C37.769 19.1713 37.1266 20.4274 35.5194 22.4849C33.9966 24.4348 33.2546 25.1542 33.3208 25.7893C33.3693 26.2547 33.8516 26.6748 34.7785 27.5006C36.7105 29.2235 37.2283 30.1299 37.3527 30.3477C37.3631 30.3657 37.3707 30.379 37.3762 30.3877C38.2425 31.7679 36.4151 31.8761 36.4151 31.8761L32.9205 31.9228C32.9205 31.9228 32.1706 32.0654 31.1827 31.414C30.6653 31.073 30.1596 30.5162 29.6779 29.9858C28.9424 29.1758 28.2629 28.4276 27.6829 28.6043C26.7091 28.9018 26.7386 30.9162 26.7386 30.9162C26.7386 30.9162 26.7463 31.3476 26.5249 31.5762Z" fill="url(#paint0_linear_800_1736)"/>
<defs>
<linearGradient id="paint0_linear_800_1736" x1="-0.0609547" y1="13.2766" x2="54.6561" y2="19.7147" gradientUnits="userSpaceOnUse">
<stop stop-color="#99660A"/>
<stop offset="0.204906" stop-color="#F2DB51"/>
<stop offset="0.638605" stop-color="#F2DB51"/>
<stop offset="1" stop-color="#99660A"/>
</linearGradient>
</defs>
</svg>
