<svg width="30" height="30" viewBox="0 0 30 30" fill="none" xmlns="http://www.w3.org/2000/svg">
<circle cx="15" cy="15" r="14.5" fill="white" stroke="currentColor"/>
<path fill-rule="evenodd" clip-rule="evenodd" d="M14.6973 3C12.8972 3 11.5321 4.62304 11.8405 6.39654L14.1241 19.527C14.1968 19.9449 14.5595 20.25 14.9837 20.25C15.422 20.25 15.7922 19.9249 15.8489 19.4903L17.5727 6.27474C17.7991 4.53906 16.4477 3 14.6973 3ZM14.9998 26.25C16.2425 26.25 17.2498 25.2426 17.2498 24C17.2498 22.7574 16.2425 21.75 14.9998 21.75C13.7572 21.75 12.7498 22.7574 12.7498 24C12.7498 25.2426 13.7572 26.25 14.9998 26.25Z" fill="currentColor"/>
</svg>
