<svg width="50" height="50" viewBox="0 0 50 50" fill="none" xmlns="http://www.w3.org/2000/svg">
<path fill-rule="evenodd" clip-rule="evenodd" d="M42.7807 7.41173C39.4888 4.08926 35.2709 1.68459 30.5457 0.616137C32.6385 2.70362 34.4255 5.93598 35.726 9.93101C38.394 9.31294 40.7777 8.45246 42.7689 7.41785C42.7728 7.41581 42.7768 7.41377 42.7807 7.41173ZM33.7516 10.3342C33.3425 9.10387 32.8863 7.95797 32.3901 6.90934C30.1154 2.10109 27.3669 0 25.0001 0C22.6333 0 19.8848 2.10109 17.6101 6.90934C17.1654 7.84929 16.7527 8.86739 16.3773 9.95441C19.2953 10.6219 22.55 10.9999 26.0008 10.9999C28.7303 10.9999 31.3371 10.7634 33.7516 10.3342ZM15.7755 11.8682C18.8973 12.5954 22.3581 12.9999 26.0008 12.9999C28.9228 12.9999 31.7278 12.7396 34.3346 12.2613C35.2807 15.7126 35.876 19.7032 35.9891 23.9999H14.0111C14.1286 19.5391 14.7657 15.4082 15.7755 11.8682ZM14.4333 9.45317C15.7188 5.67804 17.4458 2.61968 19.4546 0.616077C15.0744 1.60646 11.1301 3.74504 7.95531 6.69853C8.35561 6.94323 8.78125 7.1833 9.23265 7.41785C10.7533 8.20799 12.503 8.89656 14.4333 9.45317ZM6.5134 8.15381C8.52889 9.45261 11.0155 10.5458 13.8383 11.3632C12.779 15.0921 12.126 19.3955 12.0089 23.9999H0C0.239999 17.9037 2.66465 12.3683 6.5134 8.15381ZM36.2974 11.8515C39.2798 11.1509 41.9506 10.1552 44.1719 8.93619C47.6218 13.0428 49.7746 18.274 50 23.9999H37.9913C37.8793 19.5952 37.2769 15.4658 36.2974 11.8515ZM35.9891 26.9999C35.8842 30.9843 35.3648 34.7054 34.5354 37.9774C31.5966 37.3475 28.3764 37 25 37C21.6236 37 18.4035 37.3475 15.4648 37.9774C14.6354 34.7054 14.116 30.9843 14.0111 26.9999H35.9891ZM25 39C28.2049 39 31.2406 39.326 33.9947 39.9072C33.5259 41.4276 32.9868 42.8295 32.3901 44.0908C31.0881 46.8429 29.6309 48.7082 28.1789 49.8001C27.1378 49.932 26.0769 50 25 50C23.9232 50 22.8623 49.932 21.8214 49.8002C20.3693 48.7082 18.9121 46.843 17.6101 44.0908C17.0134 42.8295 16.4743 41.4276 16.0055 39.9072C18.7595 39.326 21.7952 39 25 39ZM12.0089 26.9999C12.1137 31.1221 12.648 35.0031 13.5189 38.4465C10.7134 39.2007 8.21764 40.2227 6.15699 41.4473C2.72195 37.5214 0.495913 32.5123 0.0592469 26.9999H12.0089ZM8.23187 42.582C8.00587 42.6994 7.78634 42.8183 7.57321 42.9383C10.5391 45.8156 14.2162 47.965 18.3157 49.0979C16.5983 46.9196 15.1383 43.9274 14.0551 40.3735C11.8773 40.9579 9.91444 41.7078 8.23187 42.582ZM31.6845 49.0978C35.784 47.9649 39.461 45.8156 42.4268 42.9383C42.2137 42.8183 41.9941 42.6994 41.7681 42.582C40.0856 41.7078 38.1228 40.9579 35.9451 40.3735C34.8619 43.9273 33.402 46.9195 31.6845 49.0978ZM36.4813 38.4465C39.2867 39.2007 41.7824 40.2227 43.843 41.4473C47.278 37.5214 49.5041 32.5123 49.9408 26.9999H37.9913C37.8865 31.1221 37.3522 35.0031 36.4813 38.4465Z" fill="url(#paint0_linear_1577_2237)"/>
<defs>
<linearGradient id="paint0_linear_1577_2237" x1="-0.0621283" y1="13.8298" x2="55.7409" y2="20.2544" gradientUnits="userSpaceOnUse">
<stop stop-color="#99660A"/>
<stop offset="0.204906" stop-color="#F2DB51"/>
<stop offset="0.638605" stop-color="#F2DB51"/>
<stop offset="1" stop-color="#99660A"/>
</linearGradient>
</defs>
</svg>
